NotoSansMalayalam-CondensedBold.ufo
<glyph name="quotedbl.mlym" format="2">
  <advance width="499"/>
  <unicode hex="0022"/>
  <outline>
    <contour>
      <point x="75" y="542" type="line"/>
      <point x="204" y="542" type="line"/>
      <point x="224" y="800" type="line"/>
      <point x="55" y="800" type="line"/>
    </contour>
    <contour>
      <point x="295" y="542" type="line"/>
      <point x="424" y="542" type="line"/>
      <point x="444" y="800" type="line"/>
      <point x="275" y="800" type="line"/>
    </contour>
  </outline>
</glyph>
<glyph name="percent.mlym" format="2">
  <advance width="832"/>
  <unicode hex="0025"/>
  <outline>
    <contour>
      <point x="209" y="0" type="line"/>
      <point x="329" y="0" type="line"/>
      <point x="623" y="714" type="line"/>
      <point x="503" y="714" type="line"/>
    </contour>
    <contour>
      <point x="183" y="276" type="curve" smooth="yes"/>
      <point x="290" y="276"/>
      <point x="342" y="358"/>
      <point x="342" y="501" type="curve" smooth="yes"/>
      <point x="342" y="638"/>
      <point x="288" y="724"/>
      <point x="187" y="724" type="curve" smooth="yes"/>
      <point x="80" y="724"/>
      <point x="28" y="642"/>
      <point x="28" y="499" type="curve" smooth="yes"/>
      <point x="28" y="364"/>
      <point x="82" y="276"/>
    </contour>
    <contour>
      <point x="185" y="387" type="curve" smooth="yes"/>
      <point x="163" y="387"/>
      <point x="153" y="416"/>
      <point x="153" y="501" type="curve" smooth="yes"/>
      <point x="153" y="583"/>
      <point x="163" y="613"/>
      <point x="185" y="613" type="curve" smooth="yes"/>
      <point x="207" y="613"/>
      <point x="217" y="584"/>
      <point x="217" y="500" type="curve" smooth="yes"/>
      <point x="217" y="415"/>
      <point x="207" y="387"/>
    </contour>
    <contour>
      <point x="645" y="-8" type="curve" smooth="yes"/>
      <point x="752" y="-8"/>
      <point x="804" y="74"/>
      <point x="804" y="217" type="curve" smooth="yes"/>
      <point x="804" y="353"/>
      <point x="750" y="440"/>
      <point x="649" y="440" type="curve" smooth="yes"/>
      <point x="542" y="440"/>
      <point x="490" y="358"/>
      <point x="490" y="215" type="curve" smooth="yes"/>
      <point x="490" y="80"/>
      <point x="544" y="-8"/>
    </contour>
    <contour>
      <point x="653" y="103" type="curve" smooth="yes"/>
      <point x="631" y="103"/>
      <point x="621" y="134"/>
      <point x="621" y="217" type="curve" smooth="yes"/>
      <point x="621" y="299"/>
      <point x="631" y="329"/>
      <point x="653" y="329" type="curve" smooth="yes"/>
      <point x="675" y="329"/>
      <point x="685" y="300"/>
      <point x="685" y="216" type="curve" smooth="yes"/>
      <point x="685" y="132"/>
      <point x="675" y="103"/>
    </contour>
  </outline>
</glyph>
<glyph name="parenleft.mlym" format="2">
  <advance width="372"/>
  <unicode hex="0028"/>
  <outline>
    <contour>
      <point x="46" y="279" type="curve" smooth="yes"/>
      <point x="46" y="82"/>
      <point x="96" y="-97"/>
      <point x="193" y="-244" type="curve"/>
      <point x="346" y="-244" type="line"/>
      <point x="256" y="-80"/>
      <point x="208" y="86"/>
      <point x="208" y="279" type="curve" smooth="yes"/>
      <point x="208" y="470"/>
      <point x="256" y="636"/>
      <point x="346" y="800" type="curve"/>
      <point x="193" y="800" type="line"/>
      <point x="96" y="653"/>
      <point x="46" y="474"/>
    </contour>
  </outline>
</glyph>
<glyph name="parenright.mlym" format="2">
  <advance width="372"/>
  <unicode hex="0029"/>
  <outline>
    <contour>
      <point x="326" y="277" type="curve" smooth="yes"/>
      <point x="326" y="474"/>
      <point x="276" y="653"/>
      <point x="179" y="800" type="curve"/>
      <point x="26" y="800" type="line"/>
      <point x="116" y="636"/>
      <point x="164" y="470"/>
      <point x="164" y="277" type="curve" smooth="yes"/>
      <point x="164" y="86"/>
      <point x="116" y="-80"/>
      <point x="26" y="-244" type="curve"/>
      <point x="179" y="-244" type="line"/>
      <point x="276" y="-97"/>
      <point x="326" y="82"/>
    </contour>
  </outline>
</glyph>
<glyph name="plus.mlym" format="2">
  <advance width="496"/>
  <unicode hex="002B"/>
  <outline>
    <contour>
      <point x="181" y="111" type="line"/>
      <point x="314" y="111" type="line"/>
      <point x="314" y="288" type="line"/>
      <point x="462" y="288" type="line"/>
      <point x="462" y="417" type="line"/>
      <point x="314" y="417" type="line"/>
      <point x="314" y="597" type="line"/>
      <point x="181" y="597" type="line"/>
      <point x="181" y="417" type="line"/>
      <point x="34" y="417" type="line"/>
      <point x="34" y="288" type="line"/>
      <point x="181" y="288" type="line"/>
    </contour>
  </outline>
</glyph>
<glyph name="comma.mlym" format="2">
  <advance width="288"/>
  <unicode hex="002C"/>
  <outline>
    <contour>
      <point x="229" y="146" type="line"/>
      <point x="70" y="146" type="line"/>
      <point x="66" y="71"/>
      <point x="48" y="-62"/>
      <point x="34" y="-139" type="curve"/>
      <point x="169" y="-139" type="line"/>
      <point x="198" y="-66"/>
      <point x="219" y="25"/>
      <point x="234" y="135" type="curve"/>
    </contour>
  </outline>
</glyph>
<glyph name="hyphen.mlym" format="2">
  <advance width="338"/>
  <unicode hex="002D"/>
  <outline>
    <contour>
      <point x="36" y="196" type="line"/>
      <point x="302" y="196" type="line"/>
      <point x="302" y="341" type="line"/>
      <point x="36" y="341" type="line"/>
    </contour>
  </outline>
</glyph>
<glyph name="period.mlym" format="2">
  <advance width="288"/>
  <unicode hex="002E"/>
  <outline>
    <contour>
      <point x="145" y="-12" type="curve" smooth="yes"/>
      <point x="202" y="-12"/>
      <point x="236" y="22"/>
      <point x="236" y="81" type="curve" smooth="yes"/>
      <point x="236" y="141"/>
      <point x="203" y="176"/>
      <point x="145" y="176" type="curve" smooth="yes"/>
      <point x="85" y="176"/>
      <point x="52" y="141"/>
      <point x="52" y="81" type="curve" smooth="yes"/>
      <point x="52" y="22"/>
      <point x="88" y="-12"/>
    </contour>
  </outline>
</glyph>
<glyph name="slash.mlym" format="2">
  <advance width="450"/>
  <unicode hex="002F"/>
  <outline>
    <contour>
      <point x="17" y="-244" type="line"/>
      <point x="170" y="-244" type="line"/>
      <point x="433" y="800" type="line"/>
      <point x="280" y="800" type="line"/>
    </contour>
  </outline>
</glyph>
<glyph name="zero.mlym" format="2">
  <advance width="496"/>
  <unicode hex="0030"/>
  <outline>
    <contour>
      <point x="247" y="-10" type="curve" smooth="yes"/>
      <point x="417" y="-10"/>
      <point x="461" y="150"/>
      <point x="461" y="356" type="curve" smooth="yes"/>
      <point x="461" y="600"/>
      <point x="390" y="724"/>
      <point x="247" y="724" type="curve" smooth="yes"/>
      <point x="104" y="724"/>
      <point x="35" y="610"/>
      <point x="35" y="356" type="curve" smooth="yes"/>
      <point x="35" y="114"/>
      <point x="106" y="-10"/>
    </contour>
    <contour>
      <point x="247" y="134" type="curve" smooth="yes"/>
      <point x="207" y="134"/>
      <point x="201" y="200"/>
      <point x="201" y="356" type="curve" smooth="yes"/>
      <point x="201" y="507"/>
      <point x="209" y="580"/>
      <point x="247" y="580" type="curve" smooth="yes"/>
      <point x="289" y="580"/>
      <point x="295" y="514"/>
      <point x="295" y="356" type="curve" smooth="yes"/>
      <point x="295" y="204"/>
      <point x="289" y="134"/>
    </contour>
  </outline>
</glyph>
<glyph name="one.mlym" format="2">
  <advance width="496"/>
  <unicode hex="0031"/>
  <outline>
    <contour>
      <point x="397" y="0" type="line"/>
      <point x="397" y="714" type="line"/>
      <point x="246" y="714" type="line"/>
      <point x="34" y="486" type="line"/>
      <point x="135" y="389" type="line"/>
      <point x="196" y="456" type="line" smooth="yes"/>
      <point x="210" y="472"/>
      <point x="222" y="487"/>
      <point x="231" y="501" type="curve"/>
      <point x="230" y="463"/>
      <point x="229" y="421"/>
      <point x="229" y="375" type="curve" smooth="yes"/>
      <point x="229" y="0" type="line"/>
    </contour>
  </outline>
</glyph>
<glyph name="two.mlym" format="2">
  <advance width="496"/>
  <unicode hex="0032"/>
  <outline>
    <contour>
      <point x="20" y="0" type="line"/>
      <point x="458" y="0" type="line"/>
      <point x="458" y="147" type="line"/>
      <point x="232" y="147" type="line"/>
      <point x="232" y="150" type="line"/>
      <point x="301" y="235" type="line" smooth="yes"/>
      <point x="414" y="374"/>
      <point x="446" y="438"/>
      <point x="446" y="530" type="curve" smooth="yes"/>
      <point x="446" y="648"/>
      <point x="357" y="724"/>
      <point x="233" y="724" type="curve" smooth="yes"/>
      <point x="155" y="724"/>
      <point x="87" y="691"/>
      <point x="24" y="649" type="curve"/>
      <point x="96" y="526" type="line"/>
      <point x="138" y="555"/>
      <point x="175" y="573"/>
      <point x="218" y="573" type="curve" smooth="yes"/>
      <point x="250" y="573"/>
      <point x="277" y="558"/>
      <point x="277" y="515" type="curve" smooth="yes"/>
      <point x="277" y="460"/>
      <point x="254" y="418"/>
      <point x="180" y="323" type="curve" smooth="yes"/>
      <point x="20" y="116" type="line"/>
    </contour>
  </outline>
</glyph>
<glyph name="three.mlym" format="2">
  <advance width="496"/>
  <unicode hex="0033"/>
  <outline>
    <contour>
      <point x="209" y="-10" type="curve" smooth="yes"/>
      <point x="365" y="-10"/>
      <point x="454" y="71"/>
      <point x="454" y="201" type="curve" smooth="yes"/>
      <point x="454" y="297"/>
      <point x="403" y="354"/>
      <point x="315" y="373" type="curve"/>
      <point x="315" y="376" type="line"/>
      <point x="394" y="405"/>
      <point x="442" y="472"/>
      <point x="442" y="545" type="curve" smooth="yes"/>
      <point x="442" y="664"/>
      <point x="359" y="724"/>
      <point x="232" y="724" type="curve" smooth="yes"/>
      <point x="157" y="724"/>
      <point x="96" y="705"/>
      <point x="30" y="662" type="curve"/>
      <point x="102" y="546" type="line"/>
      <point x="141" y="569"/>
      <point x="173" y="579"/>
      <point x="205" y="579" type="curve" smooth="yes"/>
      <point x="250" y="579"/>
      <point x="276" y="558"/>
      <point x="276" y="516" type="curve" smooth="yes"/>
      <point x="276" y="463"/>
      <point x="236" y="435"/>
      <point x="164" y="435" type="curve" smooth="yes"/>
      <point x="115" y="435" type="line"/>
      <point x="115" y="296" type="line"/>
      <point x="160" y="296" type="line" smooth="yes"/>
      <point x="243" y="296"/>
      <point x="286" y="271"/>
      <point x="286" y="216" type="curve" smooth="yes"/>
      <point x="286" y="158"/>
      <point x="250" y="135"/>
      <point x="186" y="135" type="curve" smooth="yes"/>
      <point x="131" y="135"/>
      <point x="85" y="147"/>
      <point x="30" y="170" type="curve"/>
      <point x="30" y="21" type="line"/>
      <point x="78" y="0"/>
      <point x="141" y="-10"/>
    </contour>
  </outline>
</glyph>
<glyph name="seven.mlym" format="2">
  <advance width="496"/>
  <unicode hex="0037"/>
  <outline>
    <contour>
      <point x="85" y="0" type="line"/>
      <point x="263" y="0" type="line"/>
      <point x="463" y="599" type="line"/>
      <point x="463" y="714" type="line"/>
      <point x="28" y="714" type="line"/>
      <point x="28" y="566" type="line"/>
      <point x="292" y="566" type="line"/>
    </contour>
  </outline>
</glyph>
<glyph name="colon.mlym" format="2">
  <advance width="288"/>
  <unicode hex="003A"/>
  <outline>
    <contour>
      <point x="146" y="-12" type="curve" smooth="yes"/>
      <point x="203" y="-12"/>
      <point x="236" y="22"/>
      <point x="236" y="81" type="curve" smooth="yes"/>
      <point x="236" y="141"/>
      <point x="205" y="176"/>
      <point x="146" y="176" type="curve" smooth="yes"/>
      <point x="85" y="176"/>
      <point x="53" y="141"/>
      <point x="53" y="81" type="curve" smooth="yes"/>
      <point x="53" y="22"/>
      <point x="88" y="-12"/>
    </contour>
    <contour>
      <point x="146" y="376" type="curve" smooth="yes"/>
      <point x="203" y="376"/>
      <point x="236" y="410"/>
      <point x="236" y="469" type="curve" smooth="yes"/>
      <point x="236" y="529"/>
      <point x="205" y="563"/>
      <point x="146" y="563" type="curve" smooth="yes"/>
      <point x="85" y="563"/>
      <point x="53" y="529"/>
      <point x="53" y="469" type="curve" smooth="yes"/>
      <point x="53" y="410"/>
      <point x="88" y="376"/>
    </contour>
  </outline>
</glyph>
<glyph name="semicolon.mlym" format="2">
  <advance width="288"/>
  <unicode hex="003B"/>
  <outline>
    <contour>
      <point x="230" y="146" type="line"/>
      <point x="71" y="146" type="line"/>
      <point x="65" y="69"/>
      <point x="50" y="-60"/>
      <point x="34" y="-139" type="curve"/>
      <point x="170" y="-139" type="line"/>
      <point x="198" y="-66"/>
      <point x="220" y="25"/>
      <point x="235" y="135" type="curve"/>
    </contour>
    <contour>
      <point x="146" y="376" type="curve" smooth="yes"/>
      <point x="203" y="376"/>
      <point x="236" y="410"/>
      <point x="236" y="469" type="curve" smooth="yes"/>
      <point x="236" y="529"/>
      <point x="205" y="563"/>
      <point x="146" y="563" type="curve" smooth="yes"/>
      <point x="85" y="563"/>
      <point x="53" y="529"/>
      <point x="53" y="469" type="curve" smooth="yes"/>
      <point x="53" y="410"/>
      <point x="88" y="376"/>
    </contour>
  </outline>
</glyph>
<glyph name="less.mlym" format="2">
  <advance width="496"/>
  <unicode hex="003C"/>
  <outline>
    <contour>
      <point x="462" y="115" type="line"/>
      <point x="462" y="260" type="line"/>
      <point x="221" y="360" type="line"/>
      <point x="462" y="462" type="line"/>
      <point x="462" y="606" type="line"/>
      <point x="34" y="405" type="line"/>
      <point x="34" y="315" type="line"/>
    </contour>
  </outline>
</glyph>
<glyph name="equal.mlym" format="2">
  <advance width="496"/>
  <unicode hex="003D"/>
  <outline>
    <contour>
      <point x="34" y="177" type="line"/>
      <point x="462" y="177" type="line"/>
      <point x="462" y="306" type="line"/>
      <point x="34" y="306" type="line"/>
    </contour>
    <contour>
      <point x="34" y="399" type="line"/>
      <point x="462" y="399" type="line"/>
      <point x="462" y="528" type="line"/>
      <point x="34" y="528" type="line"/>
    </contour>
  </outline>
</glyph>
<glyph name="greater.mlym" format="2">
  <advance width="496"/>
  <unicode hex="003E"/>
  <outline>
    <contour>
      <point x="34" y="115" type="line"/>
      <point x="462" y="316" type="line"/>
      <point x="462" y="406" type="line"/>
      <point x="34" y="606" type="line"/>
      <point x="34" y="461" type="line"/>
      <point x="275" y="361" type="line"/>
      <point x="34" y="259" type="line"/>
    </contour>
  </outline>
</glyph>
<glyph name="bracketright.mlym" format="2">
  <advance width="348"/>
  <unicode hex="005D"/>
  <outline>
    <contour>
      <point x="35" y="-244" type="line"/>
      <point x="286" y="-244" type="line"/>
      <point x="286" y="800" type="line"/>
      <point x="35" y="800" type="line"/>
      <point x="35" y="676" type="line"/>
      <point x="136" y="676" type="line"/>
      <point x="136" y="-120" type="line"/>
      <point x="35" y="-120" type="line"/>
    </contour>
  </outline>
</glyph>
<glyph name="braceleft.mlym" format="2">
  <advance width="425"/>
  <unicode hex="007B"/>
  <outline>
    <contour>
      <point x="390" y="-244" type="curve"/>
      <point x="390" y="-110" type="line"/>
      <point x="319" y="-110"/>
      <point x="297" y="-96"/>
      <point x="297" y="-50" type="curve" smooth="yes"/>
      <point x="297" y="152" type="line" smooth="yes"/>
      <point x="297" y="228"/>
      <point x="256" y="264"/>
      <point x="180" y="276" type="curve"/>
      <point x="180" y="282" type="line"/>
      <point x="256" y="294"/>
      <point x="297" y="330"/>
      <point x="297" y="406" type="curve" smooth="yes"/>
      <point x="297" y="606" type="line" smooth="yes"/>
      <point x="297" y="652"/>
      <point x="319" y="666"/>
      <point x="390" y="666" type="curve"/>
      <point x="390" y="800" type="line"/>
      <point x="190" y="800"/>
      <point x="144" y="749"/>
      <point x="144" y="632" type="curve" smooth="yes"/>
      <point x="144" y="435" type="line" smooth="yes"/>
      <point x="144" y="375"/>
      <point x="112" y="356"/>
      <point x="24" y="352" type="curve"/>
      <point x="24" y="206" type="line"/>
      <point x="112" y="202"/>
      <point x="144" y="183"/>
      <point x="144" y="123" type="curve" smooth="yes"/>
      <point x="144" y="-76" type="line" smooth="yes"/>
      <point x="144" y="-193"/>
      <point x="190" y="-244"/>
    </contour>
  </outline>
</glyph>
<glyph name="braceright.mlym" format="2">
  <advance width="425"/>
  <unicode hex="007D"/>
  <outline>
    <contour>
      <point x="35" y="800" type="curve"/>
      <point x="35" y="666" type="line"/>
      <point x="106" y="666"/>
      <point x="128" y="652"/>
      <point x="128" y="606" type="curve" smooth="yes"/>
      <point x="128" y="405" type="line" smooth="yes"/>
      <point x="128" y="329"/>
      <point x="169" y="293"/>
      <point x="245" y="281" type="curve"/>
      <point x="245" y="275" type="line"/>
      <point x="169" y="263"/>
      <point x="128" y="227"/>
      <point x="128" y="151" type="curve" smooth="yes"/>
      <point x="128" y="-50" type="line" smooth="yes"/>
      <point x="128" y="-96"/>
      <point x="106" y="-110"/>
      <point x="35" y="-110" type="curve"/>
      <point x="35" y="-244" type="line"/>
      <point x="235" y="-244"/>
      <point x="281" y="-193"/>
      <point x="281" y="-76" type="curve" smooth="yes"/>
      <point x="281" y="122" type="line" smooth="yes"/>
      <point x="281" y="182"/>
      <point x="313" y="201"/>
      <point x="401" y="205" type="curve"/>
      <point x="401" y="351" type="line"/>
      <point x="313" y="355"/>
      <point x="281" y="374"/>
      <point x="281" y="434" type="curve" smooth="yes"/>
      <point x="281" y="632" type="line" smooth="yes"/>
      <point x="281" y="749"/>
      <point x="235" y="800"/>
    </contour>
  </outline>
</glyph>
<glyph name="asciitilde.mlym" format="2">
  <advance width="496"/>
  <unicode hex="007E"/>
  <outline>
    <contour>
      <point x="231" y="291" type="curve" smooth="yes"/>
      <point x="273" y="271"/>
      <point x="311" y="259"/>
      <point x="350" y="259" type="curve" smooth="yes"/>
      <point x="395" y="259"/>
      <point x="430" y="276"/>
      <point x="462" y="312" type="curve"/>
      <point x="462" y="447" type="line"/>
      <point x="430" y="411"/>
      <point x="393" y="388"/>
      <point x="357" y="388" type="curve" smooth="yes"/>
      <point x="326" y="388"/>
      <point x="300" y="397"/>
      <point x="264" y="414" type="curve" smooth="yes"/>
      <point x="225" y="433"/>
      <point x="185" y="446"/>
      <point x="146" y="446" type="curve" smooth="yes"/>
      <point x="101" y="446"/>
      <point x="66" y="429"/>
      <point x="34" y="393" type="curve"/>
      <point x="34" y="258" type="line"/>
      <point x="66" y="294"/>
      <point x="103" y="317"/>
      <point x="139" y="317" type="curve" smooth="yes"/>
      <point x="171" y="317"/>
      <point x="195" y="308"/>
    </contour>
  </outline>
</glyph>
<glyph name="multiply.mlym" format="2">
  <advance width="496"/>
  <unicode hex="00D7"/>
  <outline>
    <contour>
      <point x="375" y="570" type="line"/>
      <point x="247" y="441" type="line"/>
      <point x="120" y="570" type="line"/>
      <point x="29" y="479" type="line"/>
      <point x="158" y="352" type="line"/>
      <point x="29" y="225" type="line"/>
      <point x="120" y="134" type="line"/>
      <point x="247" y="263" type="line"/>
      <point x="375" y="134" type="line"/>
      <point x="466" y="225" type="line"/>
      <point x="336" y="352" type="line"/>
      <point x="466" y="479" type="line"/>
    </contour>
  </outline>
</glyph>
<glyph name="uni0307" format="2">
  <unicode hex="0307"/>
  <outline>
    <contour>
      <point x="-298" y="700" type="curve" smooth="yes"/>
      <point x="-298" y="634"/>
      <point x="-259" y="616"/>
      <point x="-212" y="616" type="curve" smooth="yes"/>
      <point x="-166" y="616"/>
      <point x="-126" y="634"/>
      <point x="-126" y="700" type="curve" smooth="yes"/>
      <point x="-126" y="768"/>
      <point x="-166" y="785"/>
      <point x="-212" y="785" type="curve" smooth="yes"/>
      <point x="-259" y="785"/>
      <point x="-298" y="768"/>
    </contour>
  </outline>
</glyph>
<glyph name="uni0323" format="2">
  <unicode hex="0323"/>
  <outline>
    <contour>
      <point x="-298" y="-137" type="curve" smooth="yes"/>
      <point x="-298" y="-203"/>
      <point x="-259" y="-221"/>
      <point x="-213" y="-221" type="curve" smooth="yes"/>
      <point x="-167" y="-221"/>
      <point x="-126" y="-203"/>
      <point x="-126" y="-137" type="curve" smooth="yes"/>
      <point x="-126" y="-69"/>
      <point x="-167" y="-52"/>
      <point x="-213" y="-52" type="curve" smooth="yes"/>
      <point x="-259" y="-52"/>
      <point x="-298" y="-69"/>
    </contour>
  </outline>
</glyph>
<glyph name="uni0952" format="2">
  <unicode hex="0952"/>
  <outline>
    <contour>
      <point x="-67" y="-182" type="line"/>
      <point x="-67" y="-82" type="line"/>
      <point x="-491" y="-82" type="line"/>
      <point x="-491" y="-182" type="line"/>
    </contour>
  </outline>
</glyph>
<glyph name="danda.mlym" format="2">
  <advance width="320"/>
  <unicode hex="0964"/>
  <outline>
    <contour>
      <point x="106" y="-49" type="line"/>
      <point x="267" y="-49" type="line"/>
      <point x="267" y="610" type="line"/>
      <point x="106" y="610" type="line"/>
    </contour>
  </outline>
</glyph>
<glyph name="dbldanda.mlym" format="2">
  <advance width="559"/>
  <unicode hex="0965"/>
  <outline>
    <contour>
      <point x="345" y="-49" type="line"/>
      <point x="506" y="-49" type="line"/>
      <point x="506" y="610" type="line"/>
      <point x="345" y="610" type="line"/>
    </contour>
    <contour>
      <point x="106" y="-49" type="line"/>
      <point x="267" y="-49" type="line"/>
      <point x="267" y="610" type="line"/>
      <point x="106" y="610" type="line"/>
    </contour>
  </outline>
</glyph>
<glyph name="candrabindumlym" format="2">
  <unicode hex="0D01"/>
  <outline>
    <contour>
      <point x="-278" y="631" type="curve" smooth="yes"/>
      <point x="-154" y="631"/>
      <point x="-100" y="693"/>
      <point x="-100" y="800" type="curve" smooth="yes"/>
      <point x="-100" y="825"/>
      <point x="-104" y="847"/>
      <point x="-108" y="863" type="curve"/>
      <point x="-202" y="853" type="line"/>
      <point x="-199" y="839"/>
      <point x="-198" y="819"/>
      <point x="-198" y="812" type="curve" smooth="yes"/>
      <point x="-198" y="744"/>
      <point x="-236" y="723"/>
      <point x="-278" y="723" type="curve" smooth="yes"/>
      <point x="-329" y="723"/>
      <point x="-359" y="746"/>
      <point x="-359" y="810" type="curve" smooth="yes"/>
      <point x="-359" y="823"/>
      <point x="-357" y="839"/>
      <point x="-354" y="853" type="curve"/>
      <point x="-449" y="864" type="line"/>
      <point x="-453" y="848"/>
      <point x="-457" y="823"/>
      <point x="-457" y="799" type="curve" smooth="yes"/>
      <point x="-457" y="698"/>
      <point x="-401" y="631"/>
    </contour>
    <contour>
      <point x="-279" y="748" type="curve" smooth="yes"/>
      <point x="-244" y="748"/>
      <point x="-225" y="771"/>
      <point x="-225" y="805" type="curve" smooth="yes"/>
      <point x="-225" y="838"/>
      <point x="-241" y="863"/>
      <point x="-279" y="863" type="curve" smooth="yes"/>
      <point x="-315" y="863"/>
      <point x="-332" y="838"/>
      <point x="-332" y="806" type="curve" smooth="yes"/>
      <point x="-332" y="771"/>
      <point x="-314" y="748"/>
    </contour>
  </outline>
</glyph>
<glyph name="anusvaramlym" format="2">
  <advance width="439"/>
  <unicode hex="0D02"/>
  <outline>
    <contour>
      <point x="220" y="-12" type="curve" smooth="yes"/>
      <point x="352" y="-12"/>
      <point x="411" y="68"/>
      <point x="411" y="185" type="curve" smooth="yes"/>
      <point x="411" y="305"/>
      <point x="349" y="382"/>
      <point x="218" y="382" type="curve" smooth="yes"/>
      <point x="93" y="382"/>
      <point x="28" y="305"/>
      <point x="28" y="185" type="curve" smooth="yes"/>
      <point x="28" y="69"/>
      <point x="89" y="-12"/>
    </contour>
    <contour>
      <point x="219" y="263" type="curve" smooth="yes"/>
      <point x="247" y="263"/>
      <point x="265" y="245"/>
      <point x="265" y="185" type="curve" smooth="yes"/>
      <point x="265" y="123"/>
      <point x="245" y="107"/>
      <point x="220" y="107" type="curve" smooth="yes"/>
      <point x="191" y="107"/>
      <point x="174" y="127"/>
      <point x="174" y="184" type="curve" smooth="yes"/>
      <point x="174" y="245"/>
      <point x="193" y="263"/>
    </contour>
  </outline>
</glyph>
<glyph name="visargamlym" format="2">
  <advance width="321"/>
  <unicode hex="0D03"/>
  <outline>
    <contour>
      <point x="25" y="439" type="curve" smooth="yes"/>
      <point x="25" y="355"/>
      <point x="69" y="297"/>
      <point x="160" y="297" type="curve" smooth="yes"/>
      <point x="251" y="297"/>
      <point x="296" y="356"/>
      <point x="296" y="439" type="curve" smooth="yes"/>
      <point x="296" y="522"/>
      <point x="249" y="581"/>
      <point x="160" y="581" type="curve" smooth="yes"/>
      <point x="71" y="581"/>
      <point x="25" y="522"/>
    </contour>
    <contour>
      <point x="128" y="439" type="curve" smooth="yes"/>
      <point x="128" y="472"/>
      <point x="138" y="489"/>
      <point x="160" y="489" type="curve" smooth="yes"/>
      <point x="182" y="489"/>
      <point x="193" y="472"/>
      <point x="193" y="439" type="curve" smooth="yes"/>
      <point x="193" y="406"/>
      <point x="182" y="389"/>
      <point x="160" y="389" type="curve" smooth="yes"/>
      <point x="138" y="389"/>
      <point x="128" y="406"/>
    </contour>
    <contour>
      <point x="25" y="130" type="curve" smooth="yes"/>
      <point x="25" y="46"/>
      <point x="69" y="-12"/>
      <point x="160" y="-12" type="curve" smooth="yes"/>
      <point x="251" y="-12"/>
      <point x="296" y="47"/>
      <point x="296" y="130" type="curve" smooth="yes"/>
      <point x="296" y="213"/>
      <point x="247" y="272"/>
      <point x="160" y="272" type="curve" smooth="yes"/>
      <point x="71" y="272"/>
      <point x="25" y="213"/>
    </contour>
    <contour>
      <point x="128" y="130" type="curve" smooth="yes"/>
      <point x="128" y="163"/>
      <point x="138" y="180"/>
      <point x="160" y="180" type="curve" smooth="yes"/>
      <point x="182" y="180"/>
      <point x="193" y="163"/>
      <point x="193" y="130" type="curve" smooth="yes"/>
      <point x="193" y="97"/>
      <point x="182" y="80"/>
      <point x="160" y="80" type="curve" smooth="yes"/>
      <point x="138" y="80"/>
      <point x="128" y="97"/>
    </contour>
  </outline>
</glyph>
<glyph name="amlym" format="2">
  <advance width="1349"/>
  <unicode hex="0D05"/>
  <outline>
    <contour>
      <point x="333" y="581" type="curve" smooth="yes"/>
      <point x="90" y="581"/>
      <point x="32" y="417"/>
      <point x="32" y="299" type="curve" smooth="yes"/>
      <point x="32" y="162"/>
      <point x="78" y="65"/>
      <point x="139" y="-12" type="curve"/>
      <point x="266" y="53" type="line"/>
      <point x="223" y="129"/>
      <point x="193" y="205"/>
      <point x="193" y="291" type="curve" smooth="yes"/>
      <point x="193" y="394"/>
      <point x="237" y="466"/>
      <point x="352" y="466" type="curve" smooth="yes"/>
      <point x="377" y="466"/>
      <point x="409" y="465"/>
      <point x="437" y="449" type="curve"/>
      <point x="486" y="441"/>
      <point x="517" y="409"/>
      <point x="517" y="369" type="curve" smooth="yes"/>
      <point x="517" y="338"/>
      <point x="501" y="319"/>
      <point x="465" y="319" type="curve" smooth="yes"/>
      <point x="456" y="319" type="line"/>
      <point x="456" y="200" type="line"/>
      <point x="469" y="200" type="line" smooth="yes"/>
      <point x="511" y="200"/>
      <point x="525" y="179"/>
      <point x="525" y="151" type="curve" smooth="yes"/>
      <point x="525" y="122"/>
      <point x="509" y="107"/>
      <point x="478" y="107" type="curve" smooth="yes"/>
      <point x="437" y="107"/>
      <point x="412" y="138"/>
      <point x="412" y="239" type="curve" smooth="yes"/>
      <point x="412" y="364"/>
      <point x="474" y="438"/>
      <point x="534" y="456" type="curve"/>
      <point x="554" y="463"/>
      <point x="576" y="467"/>
      <point x="596" y="467" type="curve" smooth="yes"/>
      <point x="634" y="467"/>
      <point x="665" y="457"/>
      <point x="684" y="441" type="curve" smooth="yes"/>
      <point x="715" y="414"/>
      <point x="726" y="371"/>
      <point x="726" y="294" type="curve" smooth="yes"/>
      <point x="726" y="0" type="line"/>
      <point x="884" y="0" type="line"/>
      <point x="884" y="229" type="line"/>
      <point x="823" y="480" type="line"/>
      <point x="772" y="545"/>
      <point x="709" y="581"/>
      <point x="600" y="581" type="curve" smooth="yes"/>
      <point x="537" y="581"/>
      <point x="479" y="566"/>
      <point x="429" y="539" type="curve" smooth="yes"/>
      <point x="414" y="531"/>
      <point x="409" y="515"/>
      <point x="395" y="506" type="curve" smooth="yes"/>
      <point x="317" y="452"/>
      <point x="261" y="364"/>
      <point x="261" y="239" type="curve" smooth="yes"/>
      <point x="261" y="91"/>
      <point x="318" y="-12"/>
      <point x="488" y="-12" type="curve" smooth="yes"/>
      <point x="633" y="-12"/>
      <point x="681" y="59"/>
      <point x="681" y="138" type="curve" smooth="yes"/>
      <point x="681" y="202"/>
      <point x="643" y="253"/>
      <point x="582" y="271" type="curve"/>
      <point x="584" y="256" type="line"/>
      <point x="644" y="278"/>
      <point x="668" y="315"/>
      <point x="668" y="369" type="curve" smooth="yes"/>
      <point x="668" y="458"/>
      <point x="592" y="496"/>
      <point x="534" y="520" type="curve"/>
      <point x="517" y="526"/>
      <point x="513" y="545"/>
      <point x="494" y="550" type="curve"/>
      <point x="446" y="574"/>
      <point x="387" y="581"/>
    </contour>
    <contour>
      <point x="1117" y="-12" type="curve" smooth="yes"/>
      <point x="1252" y="-12"/>
      <point x="1319" y="64"/>
      <point x="1319" y="237" type="curve" smooth="yes"/>
      <point x="1319" y="423"/>
      <point x="1222" y="581"/>
      <point x="1006" y="581" type="curve" smooth="yes"/>
      <point x="889" y="581"/>
      <point x="819" y="540"/>
      <point x="755" y="440" type="curve"/>
      <point x="884" y="161" type="line"/>
      <point x="884" y="293" type="line" smooth="yes"/>
      <point x="884" y="375"/>
      <point x="895" y="412"/>
      <point x="927" y="436" type="curve" smooth="yes"/>
      <point x="947" y="451"/>
      <point x="972" y="457"/>
      <point x="1008" y="457" type="curve" smooth="yes"/>
      <point x="1092" y="457"/>
      <point x="1149" y="395"/>
      <point x="1158" y="332" type="curve" smooth="yes"/>
      <point x="1159" y="327"/>
      <point x="1160" y="310"/>
      <point x="1160" y="305" type="curve" smooth="yes"/>
      <point x="1162" y="285"/>
      <point x="1164" y="262"/>
      <point x="1164" y="231" type="curve" smooth="yes"/>
      <point x="1164" y="130"/>
      <point x="1150" y="108"/>
      <point x="1121" y="108" type="curve" smooth="yes"/>
      <point x="1100" y="108"/>
      <point x="1084" y="130"/>
      <point x="1084" y="201" type="curve" smooth="yes"/>
      <point x="1084" y="275"/>
      <point x="1100" y="298"/>
      <point x="1128" y="298" type="curve" smooth="yes"/>
      <point x="1161" y="298"/>
      <point x="1179" y="265"/>
      <point x="1187" y="216" type="curve"/>
      <point x="1248" y="222" type="line"/>
      <point x="1232" y="311"/>
      <point x="1179" y="407"/>
      <point x="1090" y="407" type="curve" smooth="yes"/>
      <point x="989" y="407"/>
      <point x="931" y="338"/>
      <point x="931" y="203" type="curve" smooth="yes"/>
      <point x="931" y="82"/>
      <point x="983" y="-12"/>
    </contour>
  </outline>
</glyph>
<glyph name="aamlym" format="2">
  <advance width="1486"/>
  <unicode hex="0D06"/>
  <outline>
    <contour>
      <point x="333" y="581" type="curve" smooth="yes"/>
      <point x="90" y="581"/>
      <point x="32" y="417"/>
      <point x="32" y="299" type="curve" smooth="yes"/>
      <point x="32" y="162"/>
      <point x="78" y="65"/>
      <point x="139" y="-12" type="curve"/>
      <point x="266" y="53" type="line"/>
      <point x="223" y="129"/>
      <point x="193" y="205"/>
      <point x="193" y="291" type="curve" smooth="yes"/>
      <point x="193" y="394"/>
      <point x="237" y="466"/>
      <point x="352" y="466" type="curve" smooth="yes"/>
      <point x="377" y="466"/>
      <point x="409" y="465"/>
      <point x="437" y="449" type="curve"/>
      <point x="486" y="441"/>
      <point x="517" y="409"/>
      <point x="517" y="369" type="curve" smooth="yes"/>
      <point x="517" y="338"/>
      <point x="501" y="319"/>
      <point x="465" y="319" type="curve" smooth="yes"/>
      <point x="456" y="319" type="line"/>
      <point x="456" y="200" type="line"/>
      <point x="469" y="200" type="line" smooth="yes"/>
      <point x="511" y="200"/>
      <point x="525" y="179"/>
      <point x="525" y="151" type="curve" smooth="yes"/>
      <point x="525" y="122"/>
      <point x="509" y="107"/>
      <point x="478" y="107" type="curve" smooth="yes"/>
      <point x="437" y="107"/>
      <point x="412" y="138"/>
      <point x="412" y="239" type="curve" smooth="yes"/>
      <point x="412" y="364"/>
      <point x="474" y="438"/>
      <point x="534" y="456" type="curve"/>
      <point x="554" y="463"/>
      <point x="576" y="467"/>
      <point x="596" y="467" type="curve" smooth="yes"/>
      <point x="634" y="467"/>
      <point x="665" y="457"/>
      <point x="684" y="441" type="curve" smooth="yes"/>
      <point x="715" y="414"/>
      <point x="726" y="371"/>
      <point x="726" y="294" type="curve" smooth="yes"/>
      <point x="726" y="0" type="line"/>
      <point x="884" y="0" type="line"/>
      <point x="884" y="229" type="line"/>
      <point x="823" y="480" type="line"/>
      <point x="772" y="545"/>
      <point x="709" y="581"/>
      <point x="600" y="581" type="curve" smooth="yes"/>
      <point x="537" y="581"/>
      <point x="479" y="566"/>
      <point x="429" y="539" type="curve" smooth="yes"/>
      <point x="414" y="531"/>
      <point x="409" y="515"/>
      <point x="395" y="506" type="curve" smooth="yes"/>
      <point x="317" y="452"/>
      <point x="261" y="364"/>
      <point x="261" y="239" type="curve" smooth="yes"/>
      <point x="261" y="91"/>
      <point x="318" y="-12"/>
      <point x="488" y="-12" type="curve" smooth="yes"/>
      <point x="633" y="-12"/>
      <point x="681" y="59"/>
      <point x="681" y="138" type="curve" smooth="yes"/>
      <point x="681" y="202"/>
      <point x="643" y="253"/>
      <point x="582" y="271" type="curve"/>
      <point x="584" y="256" type="line"/>
      <point x="644" y="278"/>
      <point x="668" y="315"/>
      <point x="668" y="369" type="curve" smooth="yes"/>
      <point x="668" y="458"/>
      <point x="592" y="496"/>
      <point x="534" y="520" type="curve"/>
      <point x="517" y="526"/>
      <point x="513" y="545"/>
      <point x="494" y="550" type="curve"/>
      <point x="446" y="574"/>
      <point x="387" y="581"/>
    </contour>
    <contour>
      <point x="1000" y="581" type="curve" smooth="yes"/>
      <point x="889" y="581"/>
      <point x="819" y="540"/>
      <point x="755" y="440" type="curve"/>
      <point x="884" y="212" type="line"/>
      <point x="884" y="293" type="line" smooth="yes"/>
      <point x="884" y="375"/>
      <point x="895" y="412"/>
      <point x="927" y="436" type="curve" smooth="yes"/>
      <point x="947" y="451"/>
      <point x="972" y="457"/>
      <point x="1003" y="457" type="curve" smooth="yes"/>
      <point x="1057" y="457"/>
      <point x="1102" y="429"/>
      <point x="1129" y="371" type="curve"/>
      <point x="1140" y="337" type="line"/>
      <point x="1148" y="308"/>
      <point x="1152" y="274"/>
      <point x="1152" y="231" type="curve" smooth="yes"/>
      <point x="1152" y="134"/>
      <point x="1137" y="112"/>
      <point x="1112" y="112" type="curve" smooth="yes"/>
      <point x="1090" y="112"/>
      <point x="1076" y="132"/>
      <point x="1076" y="188" type="curve" smooth="yes"/>
      <point x="1076" y="245"/>
      <point x="1096" y="295"/>
      <point x="1168" y="295" type="curve" smooth="yes"/>
      <point x="1181" y="295"/>
      <point x="1194" y="294"/>
      <point x="1205" y="292" type="curve"/>
      <point x="1254" y="284" type="line"/>
      <point x="1308" y="254"/>
      <point x="1319" y="197"/>
      <point x="1319" y="105" type="curve" smooth="yes"/>
      <point x="1319" y="32"/>
      <point x="1303" y="-76"/>
      <point x="1180" y="-76" type="curve" smooth="yes"/>
      <point x="1155" y="-76"/>
      <point x="1129" y="-73"/>
      <point x="1098" y="-63" type="curve"/>
      <point x="1057" y="-180" type="line"/>
      <point x="1098" y="-194"/>
      <point x="1134" y="-201"/>
      <point x="1180" y="-201" type="curve" smooth="yes"/>
      <point x="1413" y="-201"/>
      <point x="1468" y="-52"/>
      <point x="1468" y="101" type="curve" smooth="yes"/>
      <point x="1468" y="280"/>
      <point x="1371" y="380"/>
      <point x="1246" y="406" type="curve"/>
      <point x="1214" y="407" type="line" smooth="yes"/>
      <point x="1203" y="408"/>
      <point x="1191" y="409"/>
      <point x="1176" y="409" type="curve" smooth="yes"/>
      <point x="1018" y="409"/>
      <point x="923" y="331"/>
      <point x="923" y="189" type="curve" smooth="yes"/>
      <point x="923" y="67"/>
      <point x="985" y="-12"/>
      <point x="1107" y="-12" type="curve" smooth="yes"/>
      <point x="1240" y="-12"/>
      <point x="1298" y="73"/>
      <point x="1298" y="236" type="curve" smooth="yes"/>
      <point x="1298" y="269"/>
      <point x="1297" y="303"/>
      <point x="1293" y="335" type="curve"/>
      <point x="1265" y="474"/>
      <point x="1180" y="581"/>
    </contour>
  </outline>
</glyph>
<glyph name="imlym" format="2">
  <advance width="872"/>
  <unicode hex="0D07"/>
  <outline>
    <contour>
      <point x="294" y="581" type="curve" smooth="yes"/>
      <point x="119" y="581"/>
      <point x="29" y="471"/>
      <point x="29" y="328" type="curve" smooth="yes"/>
      <point x="29" y="192"/>
      <point x="96" y="131"/>
      <point x="199" y="131" type="curve" smooth="yes"/>
      <point x="325" y="131"/>
      <point x="361" y="207"/>
      <point x="361" y="284" type="curve" smooth="yes"/>
      <point x="361" y="373"/>
      <point x="316" y="426"/>
      <point x="231" y="426" type="curve" smooth="yes"/>
      <point x="170" y="426"/>
      <point x="127" y="394"/>
      <point x="87" y="350" type="curve"/>
      <point x="134" y="303" type="line"/>
      <point x="156" y="326"/>
      <point x="171" y="333"/>
      <point x="187" y="333" type="curve" smooth="yes"/>
      <point x="205" y="333"/>
      <point x="219" y="320"/>
      <point x="219" y="288" type="curve" smooth="yes"/>
      <point x="219" y="259"/>
      <point x="209" y="241"/>
      <point x="189" y="241" type="curve" smooth="yes"/>
      <point x="170" y="241"/>
      <point x="158" y="257"/>
      <point x="158" y="303" type="curve" smooth="yes"/>
      <point x="158" y="321"/>
      <point x="159" y="342"/>
      <point x="161" y="354" type="curve"/>
      <point x="162" y="369"/>
      <point x="163" y="384"/>
      <point x="167" y="400" type="curve"/>
      <point x="191" y="441"/>
      <point x="237" y="461"/>
      <point x="295" y="461" type="curve" smooth="yes"/>
      <point x="334" y="461"/>
      <point x="355" y="451"/>
      <point x="371" y="436" type="curve" smooth="yes"/>
      <point x="395" y="413"/>
      <point x="403" y="377"/>
      <point x="403" y="306" type="curve" smooth="yes"/>
      <point x="403" y="154" type="line"/>
      <point x="559" y="154" type="line"/>
      <point x="559" y="349" type="line" smooth="yes"/>
      <point x="559" y="410"/>
      <point x="565" y="436"/>
      <point x="581" y="449" type="curve" smooth="yes"/>
      <point x="587" y="454"/>
      <point x="595" y="458"/>
      <point x="609" y="458" type="curve" smooth="yes"/>
      <point x="656" y="458"/>
      <point x="680" y="399"/>
      <point x="680" y="317" type="curve" smooth="yes"/>
      <point x="680" y="239"/>
      <point x="668" y="188"/>
      <point x="631" y="158" type="curve" smooth="yes"/>
      <point x="600" y="132"/>
      <point x="553" y="122"/>
      <point x="461" y="122" type="curve" smooth="yes"/>
      <point x="296" y="122" type="line" smooth="yes"/>
      <point x="186" y="122"/>
      <point x="137" y="112"/>
      <point x="91" y="80" type="curve" smooth="yes"/>
      <point x="53" y="53"/>
      <point x="31" y="12"/>
      <point x="31" y="-45" type="curve" smooth="yes"/>
      <point x="31" y="-111"/>
      <point x="62" y="-153"/>
      <point x="109" y="-177" type="curve" smooth="yes"/>
      <point x="148" y="-197"/>
      <point x="193" y="-206"/>
      <point x="294" y="-206" type="curve" smooth="yes"/>
      <point x="825" y="-206" type="line"/>
      <point x="825" y="-83" type="line"/>
      <point x="284" y="-83" type="line" smooth="yes"/>
      <point x="237" y="-83"/>
      <point x="219" y="-79"/>
      <point x="207" y="-71" type="curve" smooth="yes"/>
      <point x="196" y="-64"/>
      <point x="190" y="-53"/>
      <point x="190" y="-40" type="curve" smooth="yes"/>
      <point x="190" y="-25"/>
      <point x="196" y="-16"/>
      <point x="210" y="-9" type="curve" smooth="yes"/>
      <point x="222" y="-3"/>
      <point x="238" y="0"/>
      <point x="284" y="0" type="curve" smooth="yes"/>
      <point x="477" y="0" type="line" smooth="yes"/>
      <point x="624" y="0"/>
      <point x="696" y="20"/>
      <point x="749" y="62" type="curve" smooth="yes"/>
      <point x="817" y="116"/>
      <point x="840" y="195"/>
      <point x="840" y="318" type="curve" smooth="yes"/>
      <point x="840" y="461"/>
      <point x="776" y="581"/>
      <point x="628" y="581" type="curve" smooth="yes"/>
      <point x="554" y="581"/>
      <point x="503" y="556"/>
      <point x="456" y="500" type="curve"/>
      <point x="506" y="488" type="line"/>
      <point x="464" y="537"/>
      <point x="412" y="581"/>
    </contour>
  </outline>
</glyph>
<glyph name="umlym" format="2">
  <advance width="629"/>
  <unicode hex="0D09"/>
  <outline>
    <contour>
      <point x="314" y="581" type="curve" smooth="yes"/>
      <point x="127" y="581"/>
      <point x="29" y="468"/>
      <point x="29" y="323" type="curve" smooth="yes"/>
      <point x="29" y="192"/>
      <point x="96" y="131"/>
      <point x="199" y="131" type="curve" smooth="yes"/>
      <point x="325" y="131"/>
      <point x="361" y="207"/>
      <point x="361" y="284" type="curve" smooth="yes"/>
      <point x="361" y="373"/>
      <point x="316" y="426"/>
      <point x="231" y="426" type="curve" smooth="yes"/>
      <point x="170" y="426"/>
      <point x="127" y="394"/>
      <point x="87" y="350" type="curve"/>
      <point x="130" y="303" type="line"/>
      <point x="152" y="326"/>
      <point x="171" y="333"/>
      <point x="187" y="333" type="curve" smooth="yes"/>
      <point x="205" y="333"/>
      <point x="219" y="320"/>
      <point x="219" y="288" type="curve" smooth="yes"/>
      <point x="219" y="259"/>
      <point x="209" y="241"/>
      <point x="189" y="241" type="curve" smooth="yes"/>
      <point x="170" y="241"/>
      <point x="158" y="257"/>
      <point x="158" y="303" type="curve" smooth="yes"/>
      <point x="158" y="321"/>
      <point x="159" y="342"/>
      <point x="161" y="354" type="curve"/>
      <point x="162" y="369"/>
      <point x="162" y="384"/>
      <point x="166" y="400" type="curve"/>
      <point x="192" y="434"/>
      <point x="237" y="458"/>
      <point x="302" y="458" type="curve" smooth="yes"/>
      <point x="383" y="458"/>
      <point x="436" y="405"/>
      <point x="436" y="294" type="curve" smooth="yes"/>
      <point x="436" y="248"/>
      <point x="429" y="198"/>
      <point x="397" y="164" type="curve" smooth="yes"/>
      <point x="371" y="137"/>
      <point x="335" y="122"/>
      <point x="259" y="122" type="curve" smooth="yes"/>
      <point x="255" y="122" type="line"/>
      <point x="192" y="121"/>
      <point x="137" y="114"/>
      <point x="91" y="82" type="curve" smooth="yes"/>
      <point x="53" y="55"/>
      <point x="31" y="13"/>
      <point x="31" y="-45" type="curve" smooth="yes"/>
      <point x="31" y="-111"/>
      <point x="62" y="-153"/>
      <point x="109" y="-177" type="curve" smooth="yes"/>
      <point x="148" y="-197"/>
      <point x="193" y="-206"/>
      <point x="294" y="-206" type="curve" smooth="yes"/>
      <point x="581" y="-206" type="line"/>
      <point x="581" y="-83" type="line"/>
      <point x="284" y="-83" type="line" smooth="yes"/>
      <point x="237" y="-83"/>
      <point x="219" y="-79"/>
      <point x="207" y="-71" type="curve" smooth="yes"/>
      <point x="196" y="-64"/>
      <point x="190" y="-53"/>
      <point x="190" y="-40" type="curve" smooth="yes"/>
      <point x="190" y="-25"/>
      <point x="196" y="-15"/>
      <point x="210" y="-8" type="curve" smooth="yes"/>
      <point x="222" y="-2"/>
      <point x="238" y="0"/>
      <point x="257" y="0" type="curve" smooth="yes"/>
      <point x="268" y="0" type="line" smooth="yes"/>
      <point x="375" y="0"/>
      <point x="457" y="18"/>
      <point x="513" y="66" type="curve" smooth="yes"/>
      <point x="572" y="117"/>
      <point x="597" y="194"/>
      <point x="597" y="301" type="curve" smooth="yes"/>
      <point x="597" y="457"/>
      <point x="506" y="581"/>
    </contour>
  </outline>
</glyph>
<glyph name="lvocalicmlym" format="2">
  <advance width="1062"/>
  <unicode hex="0D0C"/>
  <outline>
    <contour>
      <point x="334" y="581" type="curve" smooth="yes"/>
      <point x="158" y="581"/>
      <point x="32" y="467"/>
      <point x="32" y="246" type="curve" smooth="yes"/>
      <point x="32" y="56"/>
      <point x="111" y="-12"/>
      <point x="220" y="-12" type="curve" smooth="yes"/>
      <point x="338" y="-12"/>
      <point x="399" y="58"/>
      <point x="399" y="184" type="curve" smooth="yes"/>
      <point x="399" y="284"/>
      <point x="353" y="356"/>
      <point x="256" y="356" type="curve" smooth="yes"/>
      <point x="193" y="356"/>
      <point x="141" y="323"/>
      <point x="100" y="278" type="curve"/>
      <point x="126" y="164" type="line"/>
      <point x="166" y="223"/>
      <point x="185" y="243"/>
      <point x="212" y="243" type="curve" smooth="yes"/>
      <point x="235" y="243"/>
      <point x="248" y="226"/>
      <point x="248" y="173" type="curve" smooth="yes"/>
      <point x="248" y="121"/>
      <point x="235" y="106"/>
      <point x="216" y="106" type="curve" smooth="yes"/>
      <point x="193" y="106"/>
      <point x="172" y="121"/>
      <point x="172" y="234" type="curve" smooth="yes"/>
      <point x="172" y="240" type="line" smooth="yes"/>
      <point x="172" y="393"/>
      <point x="250" y="458"/>
      <point x="333" y="458" type="curve" smooth="yes"/>
      <point x="367" y="458"/>
      <point x="390" y="451"/>
      <point x="406" y="436" type="curve" smooth="yes"/>
      <point x="431" y="413"/>
      <point x="439" y="378"/>
      <point x="439" y="300" type="curve" smooth="yes"/>
      <point x="439" y="0" type="line"/>
      <point x="597" y="0" type="line"/>
      <point x="597" y="218" type="line"/>
      <point x="569" y="374" type="line"/>
      <point x="543" y="482" type="line"/>
      <point x="488" y="555"/>
      <point x="427" y="581"/>
    </contour>
    <contour>
      <point x="830" y="-12" type="curve" smooth="yes"/>
      <point x="965" y="-12"/>
      <point x="1032" y="64"/>
      <point x="1032" y="237" type="curve" smooth="yes"/>
      <point x="1032" y="423"/>
      <point x="935" y="581"/>
      <point x="719" y="581" type="curve" smooth="yes"/>
      <point x="602" y="581"/>
      <point x="532" y="540"/>
      <point x="468" y="440" type="curve"/>
      <point x="597" y="161" type="line"/>
      <point x="597" y="293" type="line" smooth="yes"/>
      <point x="597" y="375"/>
      <point x="608" y="412"/>
      <point x="640" y="436" type="curve" smooth="yes"/>
      <point x="660" y="451"/>
      <point x="685" y="457"/>
      <point x="721" y="457" type="curve" smooth="yes"/>
      <point x="805" y="457"/>
      <point x="862" y="395"/>
      <point x="871" y="332" type="curve" smooth="yes"/>
      <point x="872" y="327"/>
      <point x="873" y="310"/>
      <point x="873" y="305" type="curve" smooth="yes"/>
      <point x="875" y="285"/>
      <point x="877" y="262"/>
      <point x="877" y="231" type="curve" smooth="yes"/>
      <point x="877" y="130"/>
      <point x="863" y="108"/>
      <point x="834" y="108" type="curve" smooth="yes"/>
      <point x="813" y="108"/>
      <point x="797" y="130"/>
      <point x="797" y="201" type="curve" smooth="yes"/>
      <point x="797" y="275"/>
      <point x="813" y="298"/>
      <point x="841" y="298" type="curve" smooth="yes"/>
      <point x="874" y="298"/>
      <point x="892" y="265"/>
      <point x="900" y="216" type="curve"/>
      <point x="961" y="222" type="line"/>
      <point x="945" y="311"/>
      <point x="892" y="407"/>
      <point x="803" y="407" type="curve" smooth="yes"/>
      <point x="702" y="407"/>
      <point x="644" y="338"/>
      <point x="644" y="203" type="curve" smooth="yes"/>
      <point x="644" y="82"/>
      <point x="696" y="-12"/>
    </contour>
  </outline>
</glyph>
<glyph name="emlym" format="2">
  <advance width="1131"/>
  <unicode hex="0D0E"/>
  <outline>
    <contour>
      <point x="227" y="372" type="curve" smooth="yes"/>
      <point x="102" y="372"/>
      <point x="26" y="296"/>
      <point x="26" y="181" type="curve" smooth="yes"/>
      <point x="26" y="100"/>
      <point x="56" y="41"/>
      <point x="96" y="-13" type="curve"/>
      <point x="222" y="42" type="line"/>
      <point x="200" y="85"/>
      <point x="184" y="120"/>
      <point x="184" y="177" type="curve" smooth="yes"/>
      <point x="184" y="218"/>
      <point x="197" y="250"/>
      <point x="229" y="250" type="curve" smooth="yes"/>
      <point x="262" y="250"/>
      <point x="272" y="216"/>
      <point x="272" y="175" type="curve" smooth="yes"/>
      <point x="272" y="129"/>
      <point x="261" y="95"/>
      <point x="249" y="73" type="curve"/>
      <point x="296" y="0" type="line"/>
      <point x="746" y="0" type="line"/>
      <point x="749" y="122" type="line"/>
      <point x="385" y="122" type="line"/>
      <point x="391" y="78" type="line"/>
      <point x="409" y="107"/>
      <point x="423" y="150"/>
      <point x="423" y="187" type="curve" smooth="yes"/>
      <point x="423" y="276"/>
      <point x="372" y="372"/>
    </contour>
    <contour>
      <point x="791" y="581" type="curve" smooth="yes"/>
      <point x="579" y="581"/>
      <point x="478" y="405"/>
      <point x="478" y="147" type="curve" smooth="yes"/>
      <point x="478" y="-139"/>
      <point x="555" y="-228"/>
      <point x="698" y="-228" type="curve" smooth="yes"/>
      <point x="745" y="-228"/>
      <point x="783" y="-215"/>
      <point x="810" y="-190" type="curve" smooth="yes"/>
      <point x="844" y="-158"/>
      <point x="862" y="-115"/>
      <point x="862" y="-12" type="curve" smooth="yes"/>
      <point x="862" y="374" type="line"/>
      <point x="705" y="374" type="line"/>
      <point x="705" y="-73" type="line" smooth="yes"/>
      <point x="705" y="-90"/>
      <point x="704" y="-97"/>
      <point x="700" y="-102" type="curve" smooth="yes"/>
      <point x="697" y="-106"/>
      <point x="692" y="-108"/>
      <point x="686" y="-108" type="curve" smooth="yes"/>
      <point x="647" y="-108"/>
      <point x="634" y="-58"/>
      <point x="632" y="47" type="curve" smooth="yes"/>
      <point x="632" y="58"/>
      <point x="635" y="69"/>
      <point x="635" y="81" type="curve" smooth="yes"/>
      <point x="635" y="102"/>
      <point x="635" y="126"/>
      <point x="635" y="151" type="curve" smooth="yes"/>
      <point x="635" y="352"/>
      <point x="682" y="457"/>
      <point x="793" y="457" type="curve" smooth="yes"/>
      <point x="891" y="457"/>
      <point x="936" y="359"/>
      <point x="936" y="187" type="curve" smooth="yes"/>
      <point x="936" y="33"/>
      <point x="903" y="-68"/>
      <point x="854" y="-170" type="curve"/>
      <point x="990" y="-229" type="line"/>
      <point x="1047" y="-119"/>
      <point x="1097" y="7"/>
      <point x="1097" y="190" type="curve" smooth="yes"/>
      <point x="1097" y="431"/>
      <point x="1004" y="581"/>
    </contour>
  </outline>
</glyph>
<glyph name="eemlym" format="2">
  <advance width="1143"/>
  <unicode hex="0D0F"/>
  <outline>
    <contour>
      <point x="227" y="372" type="curve" smooth="yes"/>
      <point x="102" y="372"/>
      <point x="26" y="296"/>
      <point x="26" y="181" type="curve" smooth="yes"/>
      <point x="26" y="100"/>
      <point x="56" y="41"/>
      <point x="96" y="-13" type="curve"/>
      <point x="222" y="42" type="line"/>
      <point x="200" y="85"/>
      <point x="184" y="120"/>
      <point x="184" y="177" type="curve" smooth="yes"/>
      <point x="184" y="218"/>
      <point x="197" y="250"/>
      <point x="229" y="250" type="curve" smooth="yes"/>
      <point x="262" y="250"/>
      <point x="272" y="216"/>
      <point x="272" y="175" type="curve" smooth="yes"/>
      <point x="272" y="129"/>
      <point x="261" y="95"/>
      <point x="249" y="73" type="curve"/>
      <point x="296" y="0" type="line"/>
      <point x="746" y="0" type="line"/>
      <point x="749" y="122" type="line"/>
      <point x="385" y="122" type="line"/>
      <point x="391" y="78" type="line"/>
      <point x="409" y="107"/>
      <point x="423" y="150"/>
      <point x="423" y="187" type="curve" smooth="yes"/>
      <point x="423" y="276"/>
      <point x="372" y="372"/>
    </contour>
    <contour>
      <point x="833" y="581" type="curve" smooth="yes"/>
      <point x="589" y="581"/>
      <point x="478" y="393"/>
      <point x="478" y="147" type="curve" smooth="yes"/>
      <point x="478" y="-139"/>
      <point x="555" y="-228"/>
      <point x="698" y="-228" type="curve" smooth="yes"/>
      <point x="745" y="-228"/>
      <point x="783" y="-215"/>
      <point x="810" y="-190" type="curve" smooth="yes"/>
      <point x="844" y="-158"/>
      <point x="862" y="-115"/>
      <point x="862" y="-12" type="curve" smooth="yes"/>
      <point x="862" y="374" type="line"/>
      <point x="705" y="374" type="line"/>
      <point x="705" y="-73" type="line" smooth="yes"/>
      <point x="705" y="-90"/>
      <point x="704" y="-97"/>
      <point x="700" y="-102" type="curve" smooth="yes"/>
      <point x="697" y="-106"/>
      <point x="692" y="-108"/>
      <point x="686" y="-108" type="curve" smooth="yes"/>
      <point x="647" y="-108"/>
      <point x="634" y="-58"/>
      <point x="632" y="47" type="curve" smooth="yes"/>
      <point x="632" y="58"/>
      <point x="635" y="69"/>
      <point x="635" y="81" type="curve" smooth="yes"/>
      <point x="635" y="102"/>
      <point x="635" y="126"/>
      <point x="635" y="151" type="curve" smooth="yes"/>
      <point x="635" y="341"/>
      <point x="699" y="457"/>
      <point x="826" y="457" type="curve" smooth="yes"/>
      <point x="904" y="457"/>
      <point x="953" y="413"/>
      <point x="953" y="323" type="curve" smooth="yes"/>
      <point x="953" y="258"/>
      <point x="926" y="224"/>
      <point x="891" y="204" type="curve"/>
      <point x="891" y="84" type="line"/>
      <point x="935" y="78"/>
      <point x="961" y="39"/>
      <point x="961" y="-16" type="curve" smooth="yes"/>
      <point x="961" y="-72"/>
      <point x="948" y="-104"/>
      <point x="903" y="-104" type="curve" smooth="yes"/>
      <point x="894" y="-104"/>
      <point x="883" y="-103"/>
      <point x="876" y="-101" type="curve"/>
      <point x="852" y="-219" type="line"/>
      <point x="875" y="-225"/>
      <point x="902" y="-228"/>
      <point x="934" y="-228" type="curve" smooth="yes"/>
      <point x="1050" y="-228"/>
      <point x="1119" y="-169"/>
      <point x="1119" y="-26" type="curve" smooth="yes"/>
      <point x="1119" y="78"/>
      <point x="1071" y="134"/>
      <point x="1012" y="168" type="curve"/>
      <point x="1012" y="144" type="line"/>
      <point x="1057" y="174"/>
      <point x="1112" y="232"/>
      <point x="1112" y="341" type="curve" smooth="yes"/>
      <point x="1112" y="469"/>
      <point x="1031" y="581"/>
    </contour>
  </outline>
</glyph>
<glyph name="omlym" format="2">
  <advance width="693"/>
  <unicode hex="0D12"/>
  <outline>
    <contour>
      <point x="408" y="581" type="curve" smooth="yes"/>
      <point x="183" y="581"/>
      <point x="30" y="463"/>
      <point x="30" y="228" type="curve" smooth="yes"/>
      <point x="30" y="59"/>
      <point x="109" y="-12"/>
      <point x="219" y="-12" type="curve" smooth="yes"/>
      <point x="336" y="-12"/>
      <point x="397" y="58"/>
      <point x="397" y="184" type="curve" smooth="yes"/>
      <point x="397" y="284"/>
      <point x="351" y="356"/>
      <point x="254" y="356" type="curve" smooth="yes"/>
      <point x="191" y="356"/>
      <point x="139" y="323"/>
      <point x="98" y="278" type="curve"/>
      <point x="124" y="164" type="line"/>
      <point x="164" y="223"/>
      <point x="183" y="243"/>
      <point x="210" y="243" type="curve" smooth="yes"/>
      <point x="232" y="243"/>
      <point x="246" y="226"/>
      <point x="246" y="173" type="curve" smooth="yes"/>
      <point x="246" y="121"/>
      <point x="233" y="106"/>
      <point x="214" y="106" type="curve" smooth="yes"/>
      <point x="191" y="106"/>
      <point x="170" y="121"/>
      <point x="170" y="229" type="curve" smooth="yes"/>
      <point x="170" y="244" type="line" smooth="yes"/>
      <point x="170" y="387"/>
      <point x="276" y="458"/>
      <point x="398" y="458" type="curve" smooth="yes"/>
      <point x="458" y="458"/>
      <point x="499" y="440"/>
      <point x="499" y="396" type="curve" smooth="yes"/>
      <point x="499" y="378"/>
      <point x="493" y="362"/>
      <point x="477" y="352" type="curve" smooth="yes"/>
      <point x="466" y="345"/>
      <point x="450" y="341"/>
      <point x="420" y="341" type="curve" smooth="yes"/>
      <point x="419" y="341" type="line"/>
      <point x="419" y="222" type="line"/>
      <point x="421" y="222" type="line" smooth="yes"/>
      <point x="456" y="222"/>
      <point x="473" y="218"/>
      <point x="486" y="208" type="curve" smooth="yes"/>
      <point x="499" y="198"/>
      <point x="507" y="183"/>
      <point x="507" y="162" type="curve" smooth="yes"/>
      <point x="507" y="127"/>
      <point x="491" y="110"/>
      <point x="456" y="110" type="curve" smooth="yes"/>
      <point x="443" y="110"/>
      <point x="431" y="112"/>
      <point x="415" y="116" type="curve"/>
      <point x="392" y="0" type="line"/>
      <point x="417" y="-7"/>
      <point x="453" y="-12"/>
      <point x="480" y="-12" type="curve" smooth="yes"/>
      <point x="607" y="-12"/>
      <point x="665" y="45"/>
      <point x="665" y="148" type="curve" smooth="yes"/>
      <point x="665" y="215"/>
      <point x="631" y="265"/>
      <point x="578" y="287" type="curve"/>
      <point x="572" y="277" type="line"/>
      <point x="631" y="305"/>
      <point x="657" y="342"/>
      <point x="657" y="409" type="curve" smooth="yes"/>
      <point x="657" y="500"/>
      <point x="596" y="581"/>
    </contour>
  </outline>
</glyph>
<glyph name="kamlym" format="2">
  <advance width="944"/>
  <unicode hex="0D15"/>
  <outline>
    <contour>
      <point x="208" y="-12" type="curve" smooth="yes"/>
      <point x="270" y="-12"/>
      <point x="318" y="0"/>
      <point x="371" y="37" type="curve"/>
      <point x="303" y="146" type="line"/>
      <point x="281" y="123"/>
      <point x="258" y="109"/>
      <point x="227" y="109" type="curve" smooth="yes"/>
      <point x="189" y="109"/>
      <point x="173" y="132"/>
      <point x="173" y="167" type="curve" smooth="yes"/>
      <point x="173" y="189"/>
      <point x="182" y="205"/>
      <point x="199" y="217" type="curve" smooth="yes"/>
      <point x="216" y="228"/>
      <point x="240" y="234"/>
      <point x="282" y="234" type="curve" smooth="yes"/>
      <point x="642" y="234" type="line" smooth="yes"/>
      <point x="700" y="234"/>
      <point x="722" y="229"/>
      <point x="741" y="216" type="curve" smooth="yes"/>
      <point x="757" y="205"/>
      <point x="766" y="187"/>
      <point x="766" y="161" type="curve" smooth="yes"/>
      <point x="766" y="130"/>
      <point x="752" y="110"/>
      <point x="722" y="110" type="curve" smooth="yes"/>
      <point x="714" y="110"/>
      <point x="704" y="111"/>
      <point x="695" y="113" type="curve"/>
      <point x="670" y="-1" type="line"/>
      <point x="698" y="-8"/>
      <point x="730" y="-12"/>
      <point x="759" y="-12" type="curve" smooth="yes"/>
      <point x="855" y="-12"/>
      <point x="918" y="45"/>
      <point x="918" y="161" type="curve" smooth="yes"/>
      <point x="918" y="237"/>
      <point x="887" y="288"/>
      <point x="832" y="319" type="curve" smooth="yes"/>
      <point x="786" y="345"/>
      <point x="735" y="356"/>
      <point x="643" y="356" type="curve" smooth="yes"/>
      <point x="324" y="356" type="line" smooth="yes"/>
      <point x="227" y="356"/>
      <point x="167" y="346"/>
      <point x="117" y="320" type="curve" smooth="yes"/>
      <point x="61" y="291"/>
      <point x="26" y="241"/>
      <point x="26" y="163" type="curve" smooth="yes"/>
      <point x="26" y="53"/>
      <point x="91" y="-12"/>
    </contour>
    <contour>
      <point x="470" y="581" type="curve" smooth="yes"/>
      <point x="319" y="581"/>
      <point x="241" y="482"/>
      <point x="241" y="294" type="curve" smooth="yes"/>
      <point x="241" y="199"/>
      <point x="258" y="124"/>
      <point x="298" y="71" type="curve"/>
      <point x="333" y="18"/>
      <point x="387" y="-12"/>
      <point x="471" y="-12" type="curve" smooth="yes"/>
      <point x="621" y="-12"/>
      <point x="699" y="82"/>
      <point x="699" y="287" type="curve" smooth="yes"/>
      <point x="699" y="473"/>
      <point x="635" y="581"/>
    </contour>
    <contour>
      <point x="470" y="459" type="curve" smooth="yes"/>
      <point x="522" y="459"/>
      <point x="542" y="415"/>
      <point x="542" y="286" type="curve" smooth="yes"/>
      <point x="542" y="153"/>
      <point x="521" y="110"/>
      <point x="471" y="110" type="curve" smooth="yes"/>
      <point x="417" y="110"/>
      <point x="398" y="156"/>
      <point x="398" y="283" type="curve" smooth="yes"/>
      <point x="398" y="416"/>
      <point x="417" y="459"/>
    </contour>
  </outline>
</glyph>
<glyph name="khamlym" format="2">
  <advance width="905"/>
  <unicode hex="0D16"/>
  <outline>
    <contour>
      <point x="341" y="581" type="curve" smooth="yes"/>
      <point x="157" y="581"/>
      <point x="31" y="453"/>
      <point x="31" y="242" type="curve" smooth="yes"/>
      <point x="31" y="56"/>
      <point x="110" y="-12"/>
      <point x="220" y="-12" type="curve" smooth="yes"/>
      <point x="337" y="-12"/>
      <point x="398" y="58"/>
      <point x="398" y="184" type="curve" smooth="yes"/>
      <point x="398" y="284"/>
      <point x="352" y="356"/>
      <point x="255" y="356" type="curve" smooth="yes"/>
      <point x="192" y="356"/>
      <point x="140" y="323"/>
      <point x="99" y="278" type="curve"/>
      <point x="125" y="164" type="line"/>
      <point x="165" y="223"/>
      <point x="184" y="243"/>
      <point x="211" y="243" type="curve" smooth="yes"/>
      <point x="233" y="243"/>
      <point x="247" y="226"/>
      <point x="247" y="173" type="curve" smooth="yes"/>
      <point x="247" y="121"/>
      <point x="234" y="106"/>
      <point x="215" y="106" type="curve" smooth="yes"/>
      <point x="192" y="106"/>
      <point x="171" y="121"/>
      <point x="171" y="235" type="curve" smooth="yes"/>
      <point x="171" y="245" type="line" smooth="yes"/>
      <point x="171" y="383"/>
      <point x="253" y="458"/>
      <point x="339" y="458" type="curve" smooth="yes"/>
      <point x="432" y="458"/>
      <point x="464" y="390"/>
      <point x="464" y="295" type="curve" smooth="yes"/>
      <point x="464" y="206"/>
      <point x="432" y="129"/>
      <point x="399" y="74" type="curve"/>
      <point x="474" y="0" type="line"/>
      <point x="513" y="0" type="line"/>
      <point x="522" y="35" type="line"/>
      <point x="588" y="117"/>
      <point x="625" y="196"/>
      <point x="625" y="303" type="curve" smooth="yes"/>
      <point x="625" y="439"/>
      <point x="563" y="581"/>
    </contour>
    <contour>
      <point x="857" y="569" type="line"/>
      <point x="699" y="569" type="line"/>
      <point x="699" y="122" type="line"/>
      <point x="550" y="122" type="line"/>
      <point x="492" y="0" type="line"/>
      <point x="857" y="0" type="line"/>
    </contour>
  </outline>
</glyph>
<glyph name="gamlym" format="2">
  <advance width="798"/>
  <unicode hex="0D17"/>
  <outline>
    <contour>
      <point x="535" y="581" type="curve" smooth="yes"/>
      <point x="467" y="581"/>
      <point x="421" y="566"/>
      <point x="383" y="533" type="curve" smooth="yes"/>
      <point x="340" y="495"/>
      <point x="319" y="437"/>
      <point x="319" y="336" type="curve" smooth="yes"/>
      <point x="319" y="206" type="line" smooth="yes"/>
      <point x="319" y="157"/>
      <point x="313" y="137"/>
      <point x="300" y="124" type="curve" smooth="yes"/>
      <point x="292" y="115"/>
      <point x="280" y="111"/>
      <point x="266" y="111" type="curve" smooth="yes"/>
      <point x="227" y="111"/>
      <point x="192" y="147"/>
      <point x="192" y="262" type="curve" smooth="yes"/>
      <point x="192" y="362"/>
      <point x="222" y="434"/>
      <point x="264" y="518" type="curve"/>
      <point x="131" y="582" type="line"/>
      <point x="72" y="484"/>
      <point x="32" y="388"/>
      <point x="32" y="262" type="curve" smooth="yes"/>
      <point x="32" y="99"/>
      <point x="107" y="-12"/>
      <point x="263" y="-12" type="curve" smooth="yes"/>
      <point x="331" y="-12"/>
      <point x="377" y="3"/>
      <point x="415" y="36" type="curve" smooth="yes"/>
      <point x="458" y="74"/>
      <point x="479" y="132"/>
      <point x="479" y="233" type="curve" smooth="yes"/>
      <point x="479" y="363" type="line" smooth="yes"/>
      <point x="479" y="412"/>
      <point x="485" y="432"/>
      <point x="498" y="445" type="curve" smooth="yes"/>
      <point x="506" y="454"/>
      <point x="518" y="458"/>
      <point x="532" y="458" type="curve" smooth="yes"/>
      <point x="571" y="458"/>
      <point x="606" y="422"/>
      <point x="606" y="307" type="curve" smooth="yes"/>
      <point x="606" y="207"/>
      <point x="576" y="135"/>
      <point x="534" y="51" type="curve"/>
      <point x="667" y="-13" type="line"/>
      <point x="726" y="85"/>
      <point x="766" y="181"/>
      <point x="766" y="307" type="curve" smooth="yes"/>
      <point x="766" y="470"/>
      <point x="691" y="581"/>
    </contour>
  </outline>
</glyph>
<glyph name="ghamlym" format="2">
  <advance width="1184"/>
  <unicode hex="0D18"/>
  <outline>
    <contour>
      <point x="227" y="581" type="curve" smooth="yes"/>
      <point x="102" y="581"/>
      <point x="26" y="505"/>
      <point x="26" y="390" type="curve" smooth="yes"/>
      <point x="26" y="309"/>
      <point x="56" y="250"/>
      <point x="96" y="196" type="curve"/>
      <point x="222" y="251" type="line"/>
      <point x="200" y="294"/>
      <point x="184" y="329"/>
      <point x="184" y="386" type="curve" smooth="yes"/>
      <point x="184" y="426"/>
      <point x="197" y="459"/>
      <point x="229" y="459" type="curve" smooth="yes"/>
      <point x="262" y="459"/>
      <point x="272" y="424"/>
      <point x="272" y="384" type="curve" smooth="yes"/>
      <point x="272" y="338"/>
      <point x="261" y="304"/>
      <point x="249" y="282" type="curve"/>
      <point x="296" y="210" type="line"/>
      <point x="618" y="210" type="line"/>
      <point x="579" y="331" type="line"/>
      <point x="385" y="331" type="line"/>
      <point x="391" y="287" type="line"/>
      <point x="409" y="316"/>
      <point x="423" y="359"/>
      <point x="423" y="396" type="curve" smooth="yes"/>
      <point x="423" y="485"/>
      <point x="372" y="581"/>
    </contour>
    <contour>
      <point x="1136" y="569" type="line"/>
      <point x="978" y="569" type="line"/>
      <point x="978" y="122" type="line"/>
      <point x="627" y="122" type="line"/>
      <point x="627" y="210" type="line"/>
      <point x="919" y="210" type="line"/>
      <point x="919" y="307" type="line" smooth="yes"/>
      <point x="919" y="411"/>
      <point x="903" y="472"/>
      <point x="864" y="517" type="curve" smooth="yes"/>
      <point x="829" y="558"/>
      <point x="774" y="581"/>
      <point x="695" y="581" type="curve" smooth="yes"/>
      <point x="620" y="581"/>
      <point x="567" y="558"/>
      <point x="531" y="520" type="curve" smooth="yes"/>
      <point x="489" y="476"/>
      <point x="470" y="413"/>
      <point x="470" y="305" type="curve" smooth="yes"/>
      <point x="470" y="0" type="line"/>
      <point x="1136" y="0" type="line"/>
    </contour>
    <contour>
      <point x="695" y="459" type="curve" smooth="yes"/>
      <point x="740" y="459"/>
      <point x="762" y="423"/>
      <point x="762" y="349" type="curve" smooth="yes"/>
      <point x="762" y="331" type="line"/>
      <point x="627" y="331" type="line"/>
      <point x="627" y="350" type="line" smooth="yes"/>
      <point x="627" y="424"/>
      <point x="646" y="459"/>
    </contour>
  </outline>
</glyph>
<glyph name="ngamlym" format="2">
  <advance width="951"/>
  <unicode hex="0D19"/>
  <outline>
    <contour>
      <point x="334" y="581" type="curve" smooth="yes"/>
      <point x="158" y="581"/>
      <point x="32" y="467"/>
      <point x="32" y="246" type="curve" smooth="yes"/>
      <point x="32" y="56"/>
      <point x="111" y="-12"/>
      <point x="220" y="-12" type="curve" smooth="yes"/>
      <point x="338" y="-12"/>
      <point x="399" y="58"/>
      <point x="399" y="184" type="curve" smooth="yes"/>
      <point x="399" y="284"/>
      <point x="353" y="356"/>
      <point x="256" y="356" type="curve" smooth="yes"/>
      <point x="193" y="356"/>
      <point x="141" y="323"/>
      <point x="100" y="278" type="curve"/>
      <point x="126" y="164" type="line"/>
      <point x="166" y="223"/>
      <point x="185" y="243"/>
      <point x="212" y="243" type="curve" smooth="yes"/>
      <point x="235" y="243"/>
      <point x="248" y="226"/>
      <point x="248" y="173" type="curve" smooth="yes"/>
      <point x="248" y="121"/>
      <point x="235" y="106"/>
      <point x="216" y="106" type="curve" smooth="yes"/>
      <point x="193" y="106"/>
      <point x="172" y="121"/>
      <point x="172" y="234" type="curve" smooth="yes"/>
      <point x="172" y="240" type="line" smooth="yes"/>
      <point x="172" y="393"/>
      <point x="250" y="458"/>
      <point x="333" y="458" type="curve" smooth="yes"/>
      <point x="367" y="458"/>
      <point x="390" y="451"/>
      <point x="406" y="436" type="curve" smooth="yes"/>
      <point x="431" y="413"/>
      <point x="439" y="378"/>
      <point x="439" y="300" type="curve" smooth="yes"/>
      <point x="439" y="0" type="line"/>
      <point x="597" y="0" type="line"/>
      <point x="597" y="239" type="line"/>
      <point x="569" y="374" type="line"/>
      <point x="543" y="482" type="line"/>
      <point x="488" y="555"/>
      <point x="427" y="581"/>
    </contour>
    <contour>
      <point x="712" y="581" type="curve" smooth="yes"/>
      <point x="570" y="581"/>
      <point x="491" y="506"/>
      <point x="458" y="408" type="curve"/>
      <point x="454" y="319" type="line"/>
      <point x="462" y="236" type="line"/>
      <point x="597" y="215" type="line"/>
      <point x="597" y="285" type="line" smooth="yes"/>
      <point x="597" y="358"/>
      <point x="602" y="407"/>
      <point x="636" y="437" type="curve" smooth="yes"/>
      <point x="650" y="450"/>
      <point x="669" y="459"/>
      <point x="699" y="459" type="curve" smooth="yes"/>
      <point x="736" y="459"/>
      <point x="757" y="435"/>
      <point x="757" y="401" type="curve" smooth="yes"/>
      <point x="757" y="380"/>
      <point x="751" y="365"/>
      <point x="735" y="354" type="curve" smooth="yes"/>
      <point x="725" y="347"/>
      <point x="707" y="341"/>
      <point x="675" y="341" type="curve" smooth="yes"/>
      <point x="667" y="341" type="line"/>
      <point x="667" y="222" type="line"/>
      <point x="679" y="222" type="line" smooth="yes"/>
      <point x="714" y="222"/>
      <point x="731" y="218"/>
      <point x="744" y="208" type="curve" smooth="yes"/>
      <point x="757" y="198"/>
      <point x="765" y="183"/>
      <point x="765" y="162" type="curve" smooth="yes"/>
      <point x="765" y="127"/>
      <point x="749" y="110"/>
      <point x="714" y="110" type="curve" smooth="yes"/>
      <point x="701" y="110"/>
      <point x="689" y="112"/>
      <point x="673" y="116" type="curve"/>
      <point x="650" y="0" type="line"/>
      <point x="675" y="-7"/>
      <point x="711" y="-12"/>
      <point x="738" y="-12" type="curve" smooth="yes"/>
      <point x="865" y="-12"/>
      <point x="923" y="45"/>
      <point x="923" y="148" type="curve" smooth="yes"/>
      <point x="923" y="215"/>
      <point x="889" y="265"/>
      <point x="836" y="287" type="curve"/>
      <point x="830" y="278" type="line"/>
      <point x="888" y="306"/>
      <point x="915" y="345"/>
      <point x="915" y="414" type="curve" smooth="yes"/>
      <point x="915" y="509"/>
      <point x="848" y="581"/>
    </contour>
  </outline>
</glyph>
<glyph name="camlym" format="2">
  <advance width="804"/>
  <unicode hex="0D1A"/>
  <outline>
    <contour>
      <point x="756" y="569" type="line"/>
      <point x="598" y="569" type="line"/>
      <point x="598" y="122" type="line"/>
      <point x="434" y="122" type="line"/>
      <point x="452" y="100" type="line"/>
      <point x="476" y="136"/>
      <point x="490" y="179"/>
      <point x="490" y="225" type="curve" smooth="yes"/>
      <point x="490" y="297"/>
      <point x="454" y="400"/>
      <point x="302" y="400" type="curve" smooth="yes"/>
      <point x="172" y="400"/>
      <point x="109" y="331"/>
      <point x="109" y="225" type="curve" smooth="yes"/>
      <point x="109" y="201"/>
      <point x="111" y="180"/>
      <point x="115" y="163" type="curve"/>
      <point x="269" y="178" type="line"/>
      <point x="268" y="188"/>
      <point x="265" y="201"/>
      <point x="265" y="222" type="curve" smooth="yes"/>
      <point x="265" y="253"/>
      <point x="277" y="278"/>
      <point x="302" y="278" type="curve" smooth="yes"/>
      <point x="329" y="278"/>
      <point x="340" y="256"/>
      <point x="340" y="217" type="curve" smooth="yes"/>
      <point x="340" y="173"/>
      <point x="322" y="127"/>
      <point x="297" y="100" type="curve"/>
      <point x="368" y="122" type="line"/>
      <point x="19" y="122" type="line"/>
      <point x="19" y="0" type="line"/>
      <point x="756" y="0" type="line"/>
    </contour>
  </outline>
</glyph>
<glyph name="chamlym" format="2">
  <advance width="1176"/>
  <unicode hex="0D1B"/>
  <outline>
    <contour>
      <point x="302" y="400" type="curve" smooth="yes"/>
      <point x="172" y="400"/>
      <point x="109" y="331"/>
      <point x="109" y="225" type="curve" smooth="yes"/>
      <point x="109" y="201"/>
      <point x="111" y="180"/>
      <point x="115" y="163" type="curve"/>
      <point x="269" y="178" type="line"/>
      <point x="268" y="188"/>
      <point x="265" y="201"/>
      <point x="265" y="222" type="curve" smooth="yes"/>
      <point x="265" y="253"/>
      <point x="277" y="278"/>
      <point x="302" y="278" type="curve" smooth="yes"/>
      <point x="329" y="278"/>
      <point x="340" y="256"/>
      <point x="340" y="217" type="curve" smooth="yes"/>
      <point x="340" y="173"/>
      <point x="322" y="127"/>
      <point x="297" y="100" type="curve"/>
      <point x="368" y="122" type="line"/>
      <point x="19" y="122" type="line"/>
      <point x="19" y="0" type="line"/>
      <point x="654" y="0" type="line"/>
      <point x="622" y="122" type="line"/>
      <point x="434" y="122" type="line"/>
      <point x="452" y="100" type="line"/>
      <point x="476" y="136"/>
      <point x="490" y="179"/>
      <point x="490" y="225" type="curve" smooth="yes"/>
      <point x="490" y="297"/>
      <point x="454" y="400"/>
    </contour>
    <contour>
      <point x="836" y="581" type="curve" smooth="yes"/>
      <point x="624" y="581"/>
      <point x="534" y="448"/>
      <point x="534" y="306" type="curve" smooth="yes"/>
      <point x="534" y="202"/>
      <point x="572" y="125"/>
      <point x="617" y="65" type="curve"/>
      <point x="632" y="0" type="line"/>
      <point x="685" y="0" type="line"/>
      <point x="758" y="74" type="line"/>
      <point x="725" y="136"/>
      <point x="695" y="203"/>
      <point x="695" y="289" type="curve" smooth="yes"/>
      <point x="695" y="397"/>
      <point x="745" y="457"/>
      <point x="839" y="457" type="curve" smooth="yes"/>
      <point x="919" y="457"/>
      <point x="976" y="395"/>
      <point x="985" y="332" type="curve" smooth="yes"/>
      <point x="986" y="327"/>
      <point x="987" y="310"/>
      <point x="987" y="305" type="curve" smooth="yes"/>
      <point x="989" y="285"/>
      <point x="991" y="262"/>
      <point x="991" y="231" type="curve" smooth="yes"/>
      <point x="991" y="130"/>
      <point x="977" y="108"/>
      <point x="948" y="108" type="curve" smooth="yes"/>
      <point x="927" y="108"/>
      <point x="911" y="130"/>
      <point x="911" y="201" type="curve" smooth="yes"/>
      <point x="911" y="275"/>
      <point x="927" y="298"/>
      <point x="955" y="298" type="curve" smooth="yes"/>
      <point x="988" y="298"/>
      <point x="1006" y="265"/>
      <point x="1014" y="216" type="curve"/>
      <point x="1075" y="222" type="line"/>
      <point x="1059" y="311"/>
      <point x="1006" y="407"/>
      <point x="917" y="407" type="curve" smooth="yes"/>
      <point x="816" y="407"/>
      <point x="758" y="338"/>
      <point x="758" y="203" type="curve" smooth="yes"/>
      <point x="758" y="82"/>
      <point x="810" y="-12"/>
      <point x="944" y="-12" type="curve" smooth="yes"/>
      <point x="1079" y="-12"/>
      <point x="1146" y="64"/>
      <point x="1146" y="237" type="curve" smooth="yes"/>
      <point x="1146" y="423"/>
      <point x="1049" y="581"/>
    </contour>
  </outline>
</glyph>
<glyph name="jamlym" format="2">
  <advance width="838"/>
  <unicode hex="0D1C"/>
  <outline>
    <contour>
      <point x="266" y="581" type="curve" smooth="yes"/>
      <point x="106" y="581"/>
      <point x="30" y="501"/>
      <point x="30" y="396" type="curve" smooth="yes"/>
      <point x="30" y="293"/>
      <point x="88" y="247"/>
      <point x="182" y="247" type="curve" smooth="yes"/>
      <point x="294" y="247"/>
      <point x="327" y="307"/>
      <point x="327" y="369" type="curve" smooth="yes"/>
      <point x="327" y="451"/>
      <point x="272" y="477"/>
      <point x="215" y="477" type="curve" smooth="yes"/>
      <point x="170" y="477"/>
      <point x="127" y="466"/>
      <point x="89" y="436" type="curve"/>
      <point x="141" y="402" type="line"/>
      <point x="154" y="414"/>
      <point x="166" y="420"/>
      <point x="179" y="420" type="curve" smooth="yes"/>
      <point x="194" y="420"/>
      <point x="203" y="406"/>
      <point x="203" y="380" type="curve" smooth="yes"/>
      <point x="203" y="348"/>
      <point x="194" y="338"/>
      <point x="179" y="338" type="curve" smooth="yes"/>
      <point x="166" y="338"/>
      <point x="155" y="351"/>
      <point x="155" y="391" type="curve" smooth="yes"/>
      <point x="155" y="408"/>
      <point x="158" y="423"/>
      <point x="164" y="433" type="curve"/>
      <point x="165" y="437"/>
      <point x="172" y="454"/>
      <point x="174" y="457" type="curve"/>
      <point x="195" y="470"/>
      <point x="234" y="478"/>
      <point x="267" y="478" type="curve" smooth="yes"/>
      <point x="304" y="478"/>
      <point x="331" y="466"/>
      <point x="349" y="446" type="curve" smooth="yes"/>
      <point x="375" y="417"/>
      <point x="378" y="372"/>
      <point x="378" y="313" type="curve" smooth="yes"/>
      <point x="378" y="266" type="line"/>
      <point x="520" y="266" type="line"/>
      <point x="520" y="346" type="line" smooth="yes"/>
      <point x="520" y="404"/>
      <point x="525" y="433"/>
      <point x="547" y="450" type="curve" smooth="yes"/>
      <point x="557" y="458"/>
      <point x="569" y="461"/>
      <point x="584" y="461" type="curve" smooth="yes"/>
      <point x="625" y="461"/>
      <point x="654" y="424"/>
      <point x="654" y="363" type="curve" smooth="yes"/>
      <point x="654" y="322"/>
      <point x="644" y="292"/>
      <point x="623" y="272" type="curve" smooth="yes"/>
      <point x="601" y="251"/>
      <point x="569" y="241"/>
      <point x="500" y="241" type="curve" smooth="yes"/>
      <point x="231" y="241" type="line" smooth="yes"/>
      <point x="151" y="241"/>
      <point x="115" y="233"/>
      <point x="82" y="215" type="curve" smooth="yes"/>
      <point x="46" y="195"/>
      <point x="24" y="161"/>
      <point x="24" y="111" type="curve" smooth="yes"/>
      <point x="24" y="20"/>
      <point x="91" y="-12"/>
      <point x="191" y="-12" type="curve" smooth="yes"/>
      <point x="258" y="-12"/>
      <point x="325" y="1"/>
      <point x="413" y="34" type="curve" smooth="yes"/>
      <point x="487" y="62"/>
      <point x="538" y="97"/>
      <point x="570" y="127" type="curve"/>
      <point x="585" y="116" type="line"/>
      <point x="608" y="141"/>
      <point x="618" y="152"/>
      <point x="633" y="152" type="curve" smooth="yes"/>
      <point x="653" y="152"/>
      <point x="659" y="136"/>
      <point x="659" y="115" type="curve" smooth="yes"/>
      <point x="659" y="94"/>
      <point x="649" y="83"/>
      <point x="633" y="83" type="curve" smooth="yes"/>
      <point x="612" y="83"/>
      <point x="606" y="103"/>
      <point x="606" y="120" type="curve" smooth="yes"/>
      <point x="606" y="159"/>
      <point x="640" y="196"/>
      <point x="666" y="211" type="curve"/>
      <point x="541" y="230" type="line"/>
      <point x="518" y="210"/>
      <point x="484" y="172"/>
      <point x="484" y="118" type="curve" smooth="yes"/>
      <point x="484" y="53"/>
      <point x="521" y="-12"/>
      <point x="637" y="-12" type="curve" smooth="yes"/>
      <point x="734" y="-12"/>
      <point x="785" y="31"/>
      <point x="785" y="111" type="curve" smooth="yes"/>
      <point x="785" y="203"/>
      <point x="715" y="234"/>
      <point x="655" y="234" type="curve" smooth="yes"/>
      <point x="618" y="234"/>
      <point x="515" y="174"/>
      <point x="485" y="155" type="curve"/>
      <point x="439" y="148"/>
      <point x="381" y="135"/>
      <point x="323" y="118" type="curve" smooth="yes"/>
      <point x="256" y="98"/>
      <point x="231" y="93"/>
      <point x="203" y="93" type="curve" smooth="yes"/>
      <point x="177" y="93"/>
      <point x="167" y="102"/>
      <point x="167" y="115" type="curve" smooth="yes"/>
      <point x="167" y="121"/>
      <point x="169" y="128"/>
      <point x="175" y="132" type="curve" smooth="yes"/>
      <point x="182" y="137"/>
      <point x="192" y="140"/>
      <point x="225" y="140" type="curve" smooth="yes"/>
      <point x="315" y="140" type="line" smooth="yes"/>
      <point x="351" y="140"/>
      <point x="401" y="140"/>
      <point x="443" y="146" type="curve"/>
      <point x="542" y="153" type="line"/>
      <point x="704" y="184" type="line"/>
      <point x="767" y="215"/>
      <point x="806" y="277"/>
      <point x="806" y="362" type="curve" smooth="yes"/>
      <point x="806" y="474"/>
      <point x="745" y="581"/>
      <point x="595" y="581" type="curve" smooth="yes"/>
      <point x="529" y="581"/>
      <point x="476" y="562"/>
      <point x="430" y="511" type="curve"/>
      <point x="452" y="515" type="line"/>
      <point x="417" y="546"/>
      <point x="371" y="581"/>
    </contour>
  </outline>
</glyph>
<glyph name="jhamlym" format="2">
  <advance width="1461"/>
  <unicode hex="0D1D"/>
  <outline>
    <contour>
      <point x="601" y="581" type="curve" smooth="yes"/>
      <point x="540" y="581"/>
      <point x="473" y="562"/>
      <point x="416" y="522" type="curve"/>
      <point x="404" y="493" type="line"/>
      <point x="310" y="425"/>
      <point x="263" y="348"/>
      <point x="263" y="220" type="curve" smooth="yes"/>
      <point x="263" y="73"/>
      <point x="333" y="-12"/>
      <point x="460" y="-12" type="curve" smooth="yes"/>
      <point x="589" y="-12"/>
      <point x="659" y="63"/>
      <point x="659" y="219" type="curve" smooth="yes"/>
      <point x="659" y="358"/>
      <point x="611" y="432"/>
      <point x="522" y="493" type="curve"/>
      <point x="508" y="528" type="line"/>
      <point x="453" y="564"/>
      <point x="397" y="581"/>
      <point x="327" y="581" type="curve" smooth="yes"/>
      <point x="90" y="581"/>
      <point x="32" y="417"/>
      <point x="32" y="299" type="curve" smooth="yes"/>
      <point x="32" y="162"/>
      <point x="77" y="65"/>
      <point x="139" y="-12" type="curve"/>
      <point x="266" y="53" type="line"/>
      <point x="223" y="129"/>
      <point x="193" y="205"/>
      <point x="193" y="291" type="curve" smooth="yes"/>
      <point x="193" y="386"/>
      <point x="230" y="463"/>
      <point x="336" y="463" type="curve" smooth="yes"/>
      <point x="354" y="463"/>
      <point x="379" y="459"/>
      <point x="396" y="451" type="curve" smooth="yes"/>
      <point x="416" y="442" type="line"/>
      <point x="464" y="409"/>
      <point x="502" y="320"/>
      <point x="502" y="218" type="curve" smooth="yes"/>
      <point x="502" y="132"/>
      <point x="485" y="110"/>
      <point x="460" y="110" type="curve" smooth="yes"/>
      <point x="436" y="110"/>
      <point x="420" y="134"/>
      <point x="420" y="216" type="curve" smooth="yes"/>
      <point x="420" y="316"/>
      <point x="456" y="406"/>
      <point x="510" y="440" type="curve"/>
      <point x="531" y="450" type="line"/>
      <point x="550" y="459"/>
      <point x="573" y="463"/>
      <point x="594" y="463" type="curve" smooth="yes"/>
      <point x="624" y="463"/>
      <point x="648" y="454"/>
      <point x="668" y="438" type="curve" smooth="yes"/>
      <point x="698" y="414"/>
      <point x="711" y="371"/>
      <point x="711" y="287" type="curve" smooth="yes"/>
      <point x="711" y="238" type="line" smooth="yes"/>
      <point x="711" y="133"/>
      <point x="731" y="78"/>
      <point x="773" y="39" type="curve" smooth="yes"/>
      <point x="807" y="8"/>
      <point x="856" y="-11"/>
      <point x="916" y="-11" type="curve" smooth="yes"/>
      <point x="986" y="-11"/>
      <point x="1034" y="14"/>
      <point x="1077" y="70" type="curve"/>
      <point x="1049" y="61" type="line"/>
      <point x="1097" y="9"/>
      <point x="1143" y="-11"/>
      <point x="1208" y="-11" type="curve" smooth="yes"/>
      <point x="1347" y="-11"/>
      <point x="1429" y="100"/>
      <point x="1429" y="263" type="curve" smooth="yes"/>
      <point x="1429" y="389"/>
      <point x="1390" y="483"/>
      <point x="1331" y="582" type="curve"/>
      <point x="1198" y="517" type="line"/>
      <point x="1240" y="433"/>
      <point x="1269" y="354"/>
      <point x="1269" y="263" type="curve" smooth="yes"/>
      <point x="1269" y="149"/>
      <point x="1225" y="112"/>
      <point x="1190" y="112" type="curve" smooth="yes"/>
      <point x="1178" y="112"/>
      <point x="1167" y="117"/>
      <point x="1160" y="123" type="curve" smooth="yes"/>
      <point x="1142" y="139"/>
      <point x="1139" y="166"/>
      <point x="1139" y="222" type="curve" smooth="yes"/>
      <point x="1139" y="570" type="line"/>
      <point x="981" y="570" type="line"/>
      <point x="981" y="214" type="line" smooth="yes"/>
      <point x="981" y="164"/>
      <point x="976" y="140"/>
      <point x="960" y="125" type="curve" smooth="yes"/>
      <point x="951" y="117"/>
      <point x="940" y="112"/>
      <point x="925" y="112" type="curve" smooth="yes"/>
      <point x="910" y="112"/>
      <point x="899" y="117"/>
      <point x="890" y="125" type="curve" smooth="yes"/>
      <point x="874" y="140"/>
      <point x="869" y="164"/>
      <point x="869" y="216" type="curve" smooth="yes"/>
      <point x="869" y="306" type="line" smooth="yes"/>
      <point x="869" y="425"/>
      <point x="838" y="495"/>
      <point x="770" y="539" type="curve" smooth="yes"/>
      <point x="726" y="568"/>
      <point x="672" y="581"/>
    </contour>
  </outline>
</glyph>
<glyph name="nyamlym" format="2">
  <advance width="1311"/>
  <unicode hex="0D1E"/>
  <outline>
    <contour>
      <point x="334" y="581" type="curve" smooth="yes"/>
      <point x="158" y="581"/>
      <point x="32" y="467"/>
      <point x="32" y="246" type="curve" smooth="yes"/>
      <point x="32" y="56"/>
      <point x="111" y="-12"/>
      <point x="220" y="-12" type="curve" smooth="yes"/>
      <point x="338" y="-12"/>
      <point x="399" y="58"/>
      <point x="399" y="184" type="curve" smooth="yes"/>
      <point x="399" y="284"/>
      <point x="353" y="356"/>
      <point x="256" y="356" type="curve" smooth="yes"/>
      <point x="193" y="356"/>
      <point x="141" y="323"/>
      <point x="100" y="278" type="curve"/>
      <point x="126" y="164" type="line"/>
      <point x="166" y="223"/>
      <point x="185" y="243"/>
      <point x="212" y="243" type="curve" smooth="yes"/>
      <point x="235" y="243"/>
      <point x="248" y="226"/>
      <point x="248" y="173" type="curve" smooth="yes"/>
      <point x="248" y="121"/>
      <point x="235" y="106"/>
      <point x="216" y="106" type="curve" smooth="yes"/>
      <point x="193" y="106"/>
      <point x="172" y="121"/>
      <point x="172" y="234" type="curve" smooth="yes"/>
      <point x="172" y="240" type="line" smooth="yes"/>
      <point x="172" y="393"/>
      <point x="250" y="458"/>
      <point x="333" y="458" type="curve" smooth="yes"/>
      <point x="367" y="458"/>
      <point x="390" y="451"/>
      <point x="406" y="436" type="curve" smooth="yes"/>
      <point x="431" y="413"/>
      <point x="439" y="378"/>
      <point x="439" y="300" type="curve" smooth="yes"/>
      <point x="439" y="0" type="line"/>
      <point x="597" y="0" type="line"/>
      <point x="597" y="218" type="line"/>
      <point x="569" y="374" type="line"/>
      <point x="545" y="482" type="line"/>
      <point x="489" y="554"/>
      <point x="427" y="581"/>
    </contour>
    <contour>
      <point x="722" y="581" type="curve" smooth="yes"/>
      <point x="596" y="581"/>
      <point x="530" y="531"/>
      <point x="483" y="467" type="curve"/>
      <point x="458" y="232" type="line"/>
      <point x="458" y="20" type="line"/>
      <point x="597" y="20" type="line"/>
      <point x="597" y="307" type="line" smooth="yes"/>
      <point x="597" y="377"/>
      <point x="609" y="415"/>
      <point x="639" y="439" type="curve" smooth="yes"/>
      <point x="659" y="455"/>
      <point x="685" y="463"/>
      <point x="720" y="463" type="curve" smooth="yes"/>
      <point x="744" y="463"/>
      <point x="767" y="459"/>
      <point x="784" y="451" type="curve" smooth="yes"/>
      <point x="803" y="442" type="line"/>
      <point x="851" y="409"/>
      <point x="889" y="320"/>
      <point x="889" y="218" type="curve" smooth="yes"/>
      <point x="889" y="132"/>
      <point x="872" y="110"/>
      <point x="847" y="110" type="curve" smooth="yes"/>
      <point x="823" y="110"/>
      <point x="807" y="134"/>
      <point x="807" y="216" type="curve" smooth="yes"/>
      <point x="807" y="316"/>
      <point x="842" y="406"/>
      <point x="898" y="441" type="curve"/>
      <point x="921" y="450" type="line" smooth="yes"/>
      <point x="941" y="458"/>
      <point x="963" y="463"/>
      <point x="987" y="463" type="curve" smooth="yes"/>
      <point x="1082" y="463"/>
      <point x="1118" y="391"/>
      <point x="1118" y="284" type="curve" smooth="yes"/>
      <point x="1118" y="202"/>
      <point x="1083" y="123"/>
      <point x="1042" y="52" type="curve"/>
      <point x="1170" y="-12" type="line"/>
      <point x="1229" y="65"/>
      <point x="1279" y="167"/>
      <point x="1279" y="296" type="curve" smooth="yes"/>
      <point x="1279" y="427"/>
      <point x="1222" y="581"/>
      <point x="997" y="581" type="curve" smooth="yes"/>
      <point x="926" y="581"/>
      <point x="863" y="562"/>
      <point x="805" y="524" type="curve"/>
      <point x="791" y="493" type="line"/>
      <point x="697" y="425"/>
      <point x="650" y="349"/>
      <point x="650" y="220" type="curve" smooth="yes"/>
      <point x="650" y="73"/>
      <point x="720" y="-12"/>
      <point x="847" y="-12" type="curve" smooth="yes"/>
      <point x="976" y="-12"/>
      <point x="1046" y="63"/>
      <point x="1046" y="219" type="curve" smooth="yes"/>
      <point x="1046" y="358"/>
      <point x="998" y="432"/>
      <point x="909" y="493" type="curve"/>
      <point x="896" y="528" type="line"/>
      <point x="841" y="565"/>
      <point x="785" y="581"/>
    </contour>
  </outline>
</glyph>
<glyph name="ttamlym" format="2">
  <advance width="503"/>
  <unicode hex="0D1F"/>
  <outline>
    <contour>
      <point x="260" y="581" type="curve" smooth="yes"/>
      <point x="99" y="581"/>
      <point x="22" y="503"/>
      <point x="22" y="396" type="curve" smooth="yes"/>
      <point x="22" y="347"/>
      <point x="38" y="308"/>
      <point x="65" y="281" type="curve" smooth="yes"/>
      <point x="103" y="243"/>
      <point x="166" y="226"/>
      <point x="235" y="226" type="curve" smooth="yes"/>
      <point x="237" y="226" type="line" smooth="yes"/>
      <point x="271" y="226"/>
      <point x="287" y="222"/>
      <point x="302" y="212" type="curve" smooth="yes"/>
      <point x="314" y="204"/>
      <point x="321" y="189"/>
      <point x="321" y="169" type="curve" smooth="yes"/>
      <point x="321" y="135"/>
      <point x="298" y="111"/>
      <point x="233" y="111" type="curve" smooth="yes"/>
      <point x="180" y="111"/>
      <point x="133" y="122"/>
      <point x="76" y="149" type="curve"/>
      <point x="9" y="37" type="line"/>
      <point x="76" y="3"/>
      <point x="155" y="-12"/>
      <point x="235" y="-12" type="curve" smooth="yes"/>
      <point x="412" y="-12"/>
      <point x="482" y="70"/>
      <point x="482" y="177" type="curve" smooth="yes"/>
      <point x="482" y="235"/>
      <point x="459" y="279"/>
      <point x="419" y="308" type="curve" smooth="yes"/>
      <point x="382" y="336"/>
      <point x="332" y="350"/>
      <point x="269" y="350" type="curve" smooth="yes"/>
      <point x="265" y="350" type="line" smooth="yes"/>
      <point x="234" y="350"/>
      <point x="211" y="354"/>
      <point x="198" y="365" type="curve" smooth="yes"/>
      <point x="189" y="372"/>
      <point x="183" y="383"/>
      <point x="183" y="402" type="curve" smooth="yes"/>
      <point x="183" y="432"/>
      <point x="205" y="458"/>
      <point x="259" y="458" type="curve" smooth="yes"/>
      <point x="319" y="458"/>
      <point x="366" y="445"/>
      <point x="420" y="422" type="curve"/>
      <point x="488" y="531" type="line"/>
      <point x="419" y="562"/>
      <point x="352" y="581"/>
    </contour>
  </outline>
</glyph>
<glyph name="tthamlym" format="2">
  <advance width="594"/>
  <unicode hex="0D20"/>
  <outline>
    <contour>
      <point x="296" y="581" type="curve" smooth="yes"/>
      <point x="126" y="581"/>
      <point x="31" y="475"/>
      <point x="31" y="284" type="curve" smooth="yes"/>
      <point x="31" y="97"/>
      <point x="124" y="-12"/>
      <point x="297" y="-12" type="curve" smooth="yes"/>
      <point x="468" y="-12"/>
      <point x="563" y="94"/>
      <point x="563" y="284" type="curve" smooth="yes"/>
      <point x="563" y="472"/>
      <point x="470" y="581"/>
    </contour>
    <contour>
      <point x="297" y="112" type="curve" smooth="yes"/>
      <point x="228" y="112"/>
      <point x="194" y="170"/>
      <point x="194" y="284" type="curve" smooth="yes"/>
      <point x="194" y="406"/>
      <point x="231" y="457"/>
      <point x="297" y="457" type="curve" smooth="yes"/>
      <point x="366" y="457"/>
      <point x="400" y="399"/>
      <point x="400" y="284" type="curve" smooth="yes"/>
      <point x="400" y="163"/>
      <point x="363" y="112"/>
    </contour>
  </outline>
</glyph>
<glyph name="ddamlym" format="2">
  <advance width="1069"/>
  <unicode hex="0D21"/>
  <outline>
    <contour>
      <point x="524" y="-12" type="curve" smooth="yes"/>
      <point x="594" y="-12"/>
      <point x="642" y="13"/>
      <point x="685" y="69" type="curve"/>
      <point x="657" y="60" type="line"/>
      <point x="705" y="8"/>
      <point x="751" y="-12"/>
      <point x="816" y="-12" type="curve" smooth="yes"/>
      <point x="955" y="-12"/>
      <point x="1037" y="99"/>
      <point x="1037" y="262" type="curve" smooth="yes"/>
      <point x="1037" y="388"/>
      <point x="998" y="482"/>
      <point x="939" y="581" type="curve"/>
      <point x="806" y="516" type="line"/>
      <point x="848" y="432"/>
      <point x="877" y="353"/>
      <point x="877" y="262" type="curve" smooth="yes"/>
      <point x="877" y="148"/>
      <point x="833" y="111"/>
      <point x="798" y="111" type="curve" smooth="yes"/>
      <point x="786" y="111"/>
      <point x="775" y="116"/>
      <point x="768" y="122" type="curve" smooth="yes"/>
      <point x="750" y="138"/>
      <point x="747" y="165"/>
      <point x="747" y="221" type="curve" smooth="yes"/>
      <point x="747" y="569" type="line"/>
      <point x="589" y="569" type="line"/>
      <point x="589" y="213" type="line" smooth="yes"/>
      <point x="589" y="163"/>
      <point x="584" y="139"/>
      <point x="568" y="124" type="curve" smooth="yes"/>
      <point x="559" y="116"/>
      <point x="548" y="111"/>
      <point x="533" y="111" type="curve" smooth="yes"/>
      <point x="518" y="111"/>
      <point x="507" y="116"/>
      <point x="498" y="124" type="curve" smooth="yes"/>
      <point x="482" y="139"/>
      <point x="477" y="163"/>
      <point x="477" y="215" type="curve" smooth="yes"/>
      <point x="477" y="336" type="line" smooth="yes"/>
      <point x="477" y="437"/>
      <point x="457" y="495"/>
      <point x="414" y="533" type="curve" smooth="yes"/>
      <point x="376" y="566"/>
      <point x="331" y="581"/>
      <point x="263" y="581" type="curve" smooth="yes"/>
      <point x="109" y="581"/>
      <point x="32" y="470"/>
      <point x="32" y="307" type="curve" smooth="yes"/>
      <point x="32" y="181"/>
      <point x="72" y="85"/>
      <point x="131" y="-13" type="curve"/>
      <point x="264" y="51" type="line"/>
      <point x="222" y="135"/>
      <point x="192" y="207"/>
      <point x="192" y="307" type="curve" smooth="yes"/>
      <point x="192" y="422"/>
      <point x="227" y="458"/>
      <point x="266" y="458" type="curve" smooth="yes"/>
      <point x="280" y="458"/>
      <point x="292" y="454"/>
      <point x="300" y="445" type="curve" smooth="yes"/>
      <point x="313" y="432"/>
      <point x="319" y="412"/>
      <point x="319" y="363" type="curve" smooth="yes"/>
      <point x="319" y="237" type="line" smooth="yes"/>
      <point x="319" y="132"/>
      <point x="339" y="77"/>
      <point x="381" y="38" type="curve" smooth="yes"/>
      <point x="415" y="7"/>
      <point x="464" y="-12"/>
    </contour>
  </outline>
</glyph>
<glyph name="ddhamlym" format="2">
  <advance width="1186"/>
  <unicode hex="0D22"/>
  <outline>
    <contour>
      <point x="524" y="-11" type="curve" smooth="yes"/>
      <point x="594" y="-11"/>
      <point x="642" y="14"/>
      <point x="685" y="70" type="curve"/>
      <point x="747" y="271" type="line"/>
      <point x="747" y="570" type="line"/>
      <point x="589" y="570" type="line"/>
      <point x="589" y="214" type="line" smooth="yes"/>
      <point x="589" y="164"/>
      <point x="584" y="140"/>
      <point x="568" y="125" type="curve" smooth="yes"/>
      <point x="559" y="117"/>
      <point x="548" y="112"/>
      <point x="533" y="112" type="curve" smooth="yes"/>
      <point x="518" y="112"/>
      <point x="507" y="117"/>
      <point x="498" y="125" type="curve" smooth="yes"/>
      <point x="482" y="140"/>
      <point x="477" y="164"/>
      <point x="477" y="216" type="curve" smooth="yes"/>
      <point x="477" y="337" type="line" smooth="yes"/>
      <point x="477" y="438"/>
      <point x="457" y="496"/>
      <point x="414" y="534" type="curve" smooth="yes"/>
      <point x="376" y="567"/>
      <point x="331" y="582"/>
      <point x="263" y="582" type="curve" smooth="yes"/>
      <point x="107" y="582"/>
      <point x="32" y="471"/>
      <point x="32" y="308" type="curve" smooth="yes"/>
      <point x="32" y="182"/>
      <point x="72" y="86"/>
      <point x="131" y="-12" type="curve"/>
      <point x="264" y="52" type="line"/>
      <point x="222" y="136"/>
      <point x="192" y="208"/>
      <point x="192" y="308" type="curve" smooth="yes"/>
      <point x="192" y="423"/>
      <point x="227" y="459"/>
      <point x="266" y="459" type="curve" smooth="yes"/>
      <point x="280" y="459"/>
      <point x="292" y="455"/>
      <point x="300" y="446" type="curve" smooth="yes"/>
      <point x="313" y="433"/>
      <point x="319" y="413"/>
      <point x="319" y="364" type="curve" smooth="yes"/>
      <point x="319" y="238" type="line" smooth="yes"/>
      <point x="319" y="133"/>
      <point x="339" y="78"/>
      <point x="381" y="39" type="curve" smooth="yes"/>
      <point x="415" y="8"/>
      <point x="464" y="-11"/>
    </contour>
    <contour>
      <point x="966" y="581" type="curve" smooth="yes"/>
      <point x="848" y="581"/>
      <point x="787" y="511"/>
      <point x="787" y="385" type="curve" smooth="yes"/>
      <point x="787" y="285"/>
      <point x="833" y="213"/>
      <point x="930" y="213" type="curve" smooth="yes"/>
      <point x="993" y="213"/>
      <point x="1045" y="246"/>
      <point x="1086" y="291" type="curve"/>
      <point x="1060" y="405" type="line"/>
      <point x="1020" y="346"/>
      <point x="1001" y="326"/>
      <point x="974" y="326" type="curve" smooth="yes"/>
      <point x="951" y="326"/>
      <point x="938" y="343"/>
      <point x="938" y="396" type="curve" smooth="yes"/>
      <point x="938" y="448"/>
      <point x="951" y="463"/>
      <point x="970" y="463" type="curve" smooth="yes"/>
      <point x="993" y="463"/>
      <point x="1014" y="448"/>
      <point x="1014" y="335" type="curve" smooth="yes"/>
      <point x="1014" y="329" type="line" smooth="yes"/>
      <point x="1014" y="176"/>
      <point x="936" y="111"/>
      <point x="853" y="111" type="curve" smooth="yes"/>
      <point x="819" y="111"/>
      <point x="796" y="118"/>
      <point x="780" y="133" type="curve" smooth="yes"/>
      <point x="755" y="156"/>
      <point x="747" y="191"/>
      <point x="747" y="269" type="curve" smooth="yes"/>
      <point x="747" y="529" type="line"/>
      <point x="616" y="529" type="line"/>
      <point x="617" y="195" type="line"/>
      <point x="643" y="87" type="line"/>
      <point x="698" y="14"/>
      <point x="759" y="-12"/>
      <point x="852" y="-12" type="curve"/>
      <point x="1028" y="-12"/>
      <point x="1154" y="102"/>
      <point x="1154" y="323" type="curve" smooth="yes"/>
      <point x="1154" y="513"/>
      <point x="1075" y="581"/>
    </contour>
  </outline>
</glyph>
<glyph name="nnamlym" format="2">
  <advance width="1194"/>
  <unicode hex="0D23"/>
  <outline>
    <contour>
      <point x="334" y="581" type="curve" smooth="yes"/>
      <point x="158" y="581"/>
      <point x="32" y="467"/>
      <point x="32" y="246" type="curve" smooth="yes"/>
      <point x="32" y="56"/>
      <point x="111" y="-12"/>
      <point x="220" y="-12" type="curve" smooth="yes"/>
      <point x="338" y="-12"/>
      <point x="399" y="58"/>
      <point x="399" y="184" type="curve" smooth="yes"/>
      <point x="399" y="284"/>
      <point x="353" y="356"/>
      <point x="256" y="356" type="curve" smooth="yes"/>
      <point x="193" y="356"/>
      <point x="141" y="323"/>
      <point x="100" y="278" type="curve"/>
      <point x="126" y="164" type="line"/>
      <point x="166" y="223"/>
      <point x="185" y="243"/>
      <point x="212" y="243" type="curve" smooth="yes"/>
      <point x="235" y="243"/>
      <point x="248" y="226"/>
      <point x="248" y="173" type="curve" smooth="yes"/>
      <point x="248" y="121"/>
      <point x="235" y="106"/>
      <point x="216" y="106" type="curve" smooth="yes"/>
      <point x="193" y="106"/>
      <point x="172" y="121"/>
      <point x="172" y="234" type="curve" smooth="yes"/>
      <point x="172" y="240" type="line" smooth="yes"/>
      <point x="172" y="393"/>
      <point x="250" y="458"/>
      <point x="333" y="458" type="curve" smooth="yes"/>
      <point x="367" y="458"/>
      <point x="390" y="451"/>
      <point x="406" y="436" type="curve" smooth="yes"/>
      <point x="431" y="413"/>
      <point x="439" y="378"/>
      <point x="439" y="300" type="curve" smooth="yes"/>
      <point x="439" y="0" type="line"/>
      <point x="597" y="0" type="line"/>
      <point x="597" y="348" type="line" smooth="yes"/>
      <point x="597" y="408"/>
      <point x="603" y="430"/>
      <point x="619" y="445" type="curve" smooth="yes"/>
      <point x="628" y="453"/>
      <point x="641" y="458"/>
      <point x="655" y="458" type="curve" smooth="yes"/>
      <point x="672" y="458"/>
      <point x="683" y="453"/>
      <point x="692" y="445" type="curve" smooth="yes"/>
      <point x="709" y="429"/>
      <point x="714" y="406"/>
      <point x="714" y="350" type="curve" smooth="yes"/>
      <point x="714" y="0" type="line"/>
      <point x="872" y="0" type="line"/>
      <point x="872" y="348" type="line" smooth="yes"/>
      <point x="872" y="404"/>
      <point x="875" y="428"/>
      <point x="892" y="445" type="curve" smooth="yes"/>
      <point x="899" y="452"/>
      <point x="910" y="458"/>
      <point x="922" y="458" type="curve" smooth="yes"/>
      <point x="958" y="458"/>
      <point x="1002" y="427"/>
      <point x="1002" y="307" type="curve" smooth="yes"/>
      <point x="1002" y="216"/>
      <point x="972" y="135"/>
      <point x="930" y="51" type="curve"/>
      <point x="1063" y="-14" type="line"/>
      <point x="1122" y="85"/>
      <point x="1162" y="181"/>
      <point x="1162" y="307" type="curve" smooth="yes"/>
      <point x="1162" y="470"/>
      <point x="1080" y="581"/>
      <point x="941" y="581" type="curve" smooth="yes"/>
      <point x="876" y="581"/>
      <point x="830" y="561"/>
      <point x="782" y="509" type="curve"/>
      <point x="808" y="503" type="line"/>
      <point x="764" y="560"/>
      <point x="712" y="581"/>
      <point x="656" y="581" type="curve" smooth="yes"/>
      <point x="590" y="581"/>
      <point x="537" y="551"/>
      <point x="498" y="496" type="curve"/>
      <point x="543" y="481" type="line"/>
      <point x="488" y="554"/>
      <point x="427" y="581"/>
    </contour>
  </outline>
</glyph>
<glyph name="tamlym" format="2">
  <advance width="924"/>
  <unicode hex="0D24"/>
  <outline>
    <contour>
      <point x="460" y="-12" type="curve" smooth="yes"/>
      <point x="590" y="-12"/>
      <point x="659" y="63"/>
      <point x="659" y="219" type="curve" smooth="yes"/>
      <point x="659" y="358"/>
      <point x="611" y="432"/>
      <point x="522" y="493" type="curve"/>
      <point x="508" y="528" type="line"/>
      <point x="453" y="564"/>
      <point x="397" y="581"/>
      <point x="327" y="581" type="curve" smooth="yes"/>
      <point x="90" y="581"/>
      <point x="32" y="417"/>
      <point x="32" y="299" type="curve" smooth="yes"/>
      <point x="32" y="162"/>
      <point x="78" y="65"/>
      <point x="139" y="-12" type="curve"/>
      <point x="266" y="53" type="line"/>
      <point x="223" y="129"/>
      <point x="193" y="205"/>
      <point x="193" y="291" type="curve" smooth="yes"/>
      <point x="193" y="386"/>
      <point x="230" y="463"/>
      <point x="336" y="463" type="curve" smooth="yes"/>
      <point x="354" y="463"/>
      <point x="379" y="459"/>
      <point x="396" y="451" type="curve" smooth="yes"/>
      <point x="417" y="442" type="line"/>
      <point x="465" y="409"/>
      <point x="502" y="320"/>
      <point x="502" y="218" type="curve" smooth="yes"/>
      <point x="502" y="132"/>
      <point x="485" y="110"/>
      <point x="460" y="110" type="curve" smooth="yes"/>
      <point x="436" y="110"/>
      <point x="420" y="134"/>
      <point x="420" y="216" type="curve" smooth="yes"/>
      <point x="420" y="316"/>
      <point x="455" y="406"/>
      <point x="511" y="441" type="curve"/>
      <point x="534" y="450" type="line"/>
      <point x="553" y="459"/>
      <point x="576" y="463"/>
      <point x="600" y="463" type="curve" smooth="yes"/>
      <point x="696" y="463"/>
      <point x="731" y="391"/>
      <point x="731" y="284" type="curve" smooth="yes"/>
      <point x="731" y="202"/>
      <point x="696" y="123"/>
      <point x="655" y="52" type="curve"/>
      <point x="783" y="-12" type="line"/>
      <point x="842" y="65"/>
      <point x="892" y="167"/>
      <point x="892" y="296" type="curve" smooth="yes"/>
      <point x="892" y="427"/>
      <point x="835" y="581"/>
      <point x="610" y="581" type="curve" smooth="yes"/>
      <point x="539" y="581"/>
      <point x="476" y="562"/>
      <point x="418" y="524" type="curve"/>
      <point x="404" y="493" type="line"/>
      <point x="310" y="425"/>
      <point x="263" y="349"/>
      <point x="263" y="220" type="curve" smooth="yes"/>
      <point x="263" y="73"/>
      <point x="333" y="-12"/>
    </contour>
  </outline>
</glyph>
<glyph name="thamlym" format="2">
  <advance width="797"/>
  <unicode hex="0D25"/>
  <outline>
    <contour>
      <point x="206" y="569" type="line"/>
      <point x="48" y="569" type="line"/>
      <point x="48" y="0" type="line"/>
      <point x="328" y="0" type="line"/>
      <point x="328" y="122" type="line"/>
      <point x="206" y="122" type="line"/>
    </contour>
    <component base="thapart" xOffset="-1"/>
  </outline>
</glyph>
<glyph name="damlym" format="2">
  <advance width="579"/>
  <unicode hex="0D26"/>
  <outline>
    <contour>
      <point x="335" y="581" type="curve" smooth="yes"/>
      <point x="133" y="581"/>
      <point x="33" y="444"/>
      <point x="33" y="227" type="curve" smooth="yes"/>
      <point x="33" y="152"/>
      <point x="45" y="63"/>
      <point x="64" y="-4" type="curve"/>
      <point x="215" y="29" type="line"/>
      <point x="201" y="85"/>
      <point x="193" y="151"/>
      <point x="193" y="225" type="curve" smooth="yes"/>
      <point x="193" y="359"/>
      <point x="238" y="459"/>
      <point x="327" y="459" type="curve" smooth="yes"/>
      <point x="364" y="459"/>
      <point x="385" y="435"/>
      <point x="385" y="401" type="curve" smooth="yes"/>
      <point x="385" y="380"/>
      <point x="379" y="365"/>
      <point x="363" y="354" type="curve" smooth="yes"/>
      <point x="353" y="347"/>
      <point x="335" y="341"/>
      <point x="303" y="341" type="curve" smooth="yes"/>
      <point x="286" y="341" type="line"/>
      <point x="286" y="222" type="line"/>
      <point x="307" y="222" type="line" smooth="yes"/>
      <point x="342" y="222"/>
      <point x="359" y="218"/>
      <point x="372" y="208" type="curve" smooth="yes"/>
      <point x="385" y="198"/>
      <point x="393" y="183"/>
      <point x="393" y="162" type="curve" smooth="yes"/>
      <point x="393" y="127"/>
      <point x="376" y="110"/>
      <point x="341" y="110" type="curve" smooth="yes"/>
      <point x="323" y="110"/>
      <point x="308" y="112"/>
      <point x="289" y="118" type="curve"/>
      <point x="266" y="2" type="line"/>
      <point x="299" y="-7"/>
      <point x="335" y="-12"/>
      <point x="366" y="-12" type="curve" smooth="yes"/>
      <point x="491" y="-12"/>
      <point x="551" y="44"/>
      <point x="551" y="148" type="curve" smooth="yes"/>
      <point x="551" y="215"/>
      <point x="517" y="265"/>
      <point x="464" y="287" type="curve"/>
      <point x="458" y="278" type="line"/>
      <point x="516" y="306"/>
      <point x="543" y="345"/>
      <point x="543" y="414" type="curve" smooth="yes"/>
      <point x="543" y="509"/>
      <point x="476" y="581"/>
    </contour>
  </outline>
</glyph>
<glyph name="dhamlym" format="2">
  <advance width="805"/>
  <unicode hex="0D27"/>
  <outline>
    <contour>
      <point x="546" y="-12" type="curve"/>
      <point x="698" y="-12"/>
      <point x="773" y="108"/>
      <point x="773" y="262" type="curve" smooth="yes"/>
      <point x="773" y="382"/>
      <point x="736" y="481"/>
      <point x="675" y="583" type="curve"/>
      <point x="542" y="518" type="line"/>
      <point x="585" y="439"/>
      <point x="613" y="354"/>
      <point x="613" y="264" type="curve" smooth="yes"/>
      <point x="613" y="150"/>
      <point x="570" y="111"/>
      <point x="532" y="111" type="curve" smooth="yes"/>
      <point x="519" y="111"/>
      <point x="509" y="114"/>
      <point x="502" y="121" type="curve" smooth="yes"/>
      <point x="486" y="136"/>
      <point x="482" y="159"/>
      <point x="482" y="221" type="curve" smooth="yes"/>
      <point x="482" y="569" type="line"/>
      <point x="324" y="569" type="line"/>
      <point x="324" y="221" type="line" smooth="yes"/>
      <point x="324" y="158"/>
      <point x="319" y="136"/>
      <point x="303" y="121" type="curve" smooth="yes"/>
      <point x="296" y="114"/>
      <point x="286" y="111"/>
      <point x="273" y="111" type="curve" smooth="yes"/>
      <point x="234" y="111"/>
      <point x="192" y="150"/>
      <point x="192" y="262" type="curve" smooth="yes"/>
      <point x="192" y="362"/>
      <point x="222" y="434"/>
      <point x="264" y="518" type="curve"/>
      <point x="131" y="583" type="line"/>
      <point x="72" y="484"/>
      <point x="32" y="388"/>
      <point x="32" y="262" type="curve" smooth="yes"/>
      <point x="32" y="99"/>
      <point x="113" y="-12"/>
      <point x="253" y="-12" type="curve" smooth="yes"/>
      <point x="320" y="-12"/>
      <point x="366" y="8"/>
      <point x="414" y="60" type="curve"/>
      <point x="397" y="55" type="line"/>
      <point x="441" y="8"/>
      <point x="487" y="-12"/>
    </contour>
  </outline>
</glyph>
<glyph name="nnnamlym" format="2">
  <advance width="921"/>
  <unicode hex="0D29"/>
  <outline>
    <contour>
      <point x="334" y="581" type="curve" smooth="yes"/>
      <point x="158" y="581"/>
      <point x="32" y="467"/>
      <point x="32" y="246" type="curve" smooth="yes"/>
      <point x="32" y="56"/>
      <point x="111" y="-12"/>
      <point x="220" y="-12" type="curve" smooth="yes"/>
      <point x="338" y="-12"/>
      <point x="399" y="58"/>
      <point x="399" y="184" type="curve" smooth="yes"/>
      <point x="399" y="284"/>
      <point x="353" y="356"/>
      <point x="256" y="356" type="curve" smooth="yes"/>
      <point x="193" y="356"/>
      <point x="141" y="323"/>
      <point x="100" y="278" type="curve"/>
      <point x="126" y="164" type="line"/>
      <point x="166" y="223"/>
      <point x="185" y="243"/>
      <point x="212" y="243" type="curve" smooth="yes"/>
      <point x="235" y="243"/>
      <point x="248" y="226"/>
      <point x="248" y="173" type="curve" smooth="yes"/>
      <point x="248" y="121"/>
      <point x="235" y="106"/>
      <point x="216" y="106" type="curve" smooth="yes"/>
      <point x="193" y="106"/>
      <point x="172" y="121"/>
      <point x="172" y="234" type="curve" smooth="yes"/>
      <point x="172" y="240" type="line" smooth="yes"/>
      <point x="172" y="393"/>
      <point x="250" y="458"/>
      <point x="333" y="458" type="curve" smooth="yes"/>
      <point x="367" y="458"/>
      <point x="390" y="451"/>
      <point x="406" y="436" type="curve" smooth="yes"/>
      <point x="431" y="413"/>
      <point x="439" y="378"/>
      <point x="439" y="300" type="curve" smooth="yes"/>
      <point x="439" y="0" type="line"/>
      <point x="597" y="0" type="line"/>
      <point x="597" y="348" type="line" smooth="yes"/>
      <point x="597" y="411"/>
      <point x="602" y="434"/>
      <point x="618" y="448" type="curve" smooth="yes"/>
      <point x="626" y="455"/>
      <point x="636" y="458"/>
      <point x="648" y="458" type="curve" smooth="yes"/>
      <point x="687" y="458"/>
      <point x="729" y="419"/>
      <point x="729" y="307" type="curve" smooth="yes"/>
      <point x="729" y="207"/>
      <point x="699" y="135"/>
      <point x="657" y="51" type="curve"/>
      <point x="790" y="-14" type="line"/>
      <point x="849" y="85"/>
      <point x="889" y="181"/>
      <point x="889" y="307" type="curve" smooth="yes"/>
      <point x="889" y="470"/>
      <point x="808" y="581"/>
      <point x="668" y="581" type="curve" smooth="yes"/>
      <point x="601" y="581"/>
      <point x="548" y="563"/>
      <point x="496" y="500" type="curve"/>
      <point x="543" y="481" type="line"/>
      <point x="488" y="554"/>
      <point x="427" y="581"/>
    </contour>
  </outline>
</glyph>
<glyph name="phamlym" format="2">
  <advance width="989"/>
  <unicode hex="0D2B"/>
  <outline>
    <contour>
      <point x="227" y="372" type="curve" smooth="yes"/>
      <point x="102" y="372"/>
      <point x="26" y="296"/>
      <point x="26" y="181" type="curve" smooth="yes"/>
      <point x="26" y="100"/>
      <point x="56" y="41"/>
      <point x="96" y="-13" type="curve"/>
      <point x="222" y="42" type="line"/>
      <point x="200" y="85"/>
      <point x="184" y="120"/>
      <point x="184" y="177" type="curve" smooth="yes"/>
      <point x="184" y="217"/>
      <point x="197" y="250"/>
      <point x="229" y="250" type="curve" smooth="yes"/>
      <point x="262" y="250"/>
      <point x="272" y="215"/>
      <point x="272" y="175" type="curve" smooth="yes"/>
      <point x="272" y="129"/>
      <point x="261" y="95"/>
      <point x="249" y="73" type="curve"/>
      <point x="296" y="0" type="line"/>
      <point x="532" y="0" type="line"/>
      <point x="532" y="122" type="line"/>
      <point x="385" y="122" type="line"/>
      <point x="391" y="78" type="line"/>
      <point x="409" y="107"/>
      <point x="423" y="150"/>
      <point x="423" y="187" type="curve" smooth="yes"/>
      <point x="423" y="276"/>
      <point x="372" y="372"/>
    </contour>
    <component base="thapart" xOffset="191"/>
  </outline>
</glyph>
<glyph name="bhamlym" format="2">
  <advance width="626"/>
  <unicode hex="0D2D"/>
  <outline>
    <contour>
      <point x="375" y="581" type="curve" smooth="yes"/>
      <point x="126" y="581"/>
      <point x="33" y="442"/>
      <point x="33" y="227" type="curve" smooth="yes"/>
      <point x="33" y="152"/>
      <point x="45" y="63"/>
      <point x="64" y="-4" type="curve"/>
      <point x="215" y="29" type="line"/>
      <point x="201" y="85"/>
      <point x="193" y="151"/>
      <point x="193" y="225" type="curve" smooth="yes"/>
      <point x="193" y="371"/>
      <point x="239" y="460"/>
      <point x="376" y="460" type="curve" smooth="yes"/>
      <point x="426" y="460"/>
      <point x="453" y="446"/>
      <point x="453" y="424" type="curve" smooth="yes"/>
      <point x="453" y="409"/>
      <point x="446" y="403"/>
      <point x="419" y="403" type="curve"/>
      <point x="417" y="403" type="line"/>
      <point x="359" y="403"/>
      <point x="324" y="393"/>
      <point x="295" y="373" type="curve" smooth="yes"/>
      <point x="267" y="353"/>
      <point x="249" y="324"/>
      <point x="249" y="277" type="curve" smooth="yes"/>
      <point x="249" y="238"/>
      <point x="265" y="204"/>
      <point x="290" y="183" type="curve" smooth="yes"/>
      <point x="319" y="159"/>
      <point x="357" y="151"/>
      <point x="418" y="151" type="curve" smooth="yes"/>
      <point x="420" y="151" type="line" smooth="yes"/>
      <point x="445" y="151"/>
      <point x="454" y="143"/>
      <point x="454" y="130" type="curve" smooth="yes"/>
      <point x="454" y="113"/>
      <point x="439" y="104"/>
      <point x="400" y="104" type="curve" smooth="yes"/>
      <point x="363" y="104"/>
      <point x="329" y="110"/>
      <point x="287" y="124" type="curve"/>
      <point x="241" y="17" type="line"/>
      <point x="290" y="-2"/>
      <point x="349" y="-12"/>
      <point x="407" y="-12" type="curve" smooth="yes"/>
      <point x="551" y="-12"/>
      <point x="600" y="50"/>
      <point x="600" y="129" type="curve" smooth="yes"/>
      <point x="600" y="174"/>
      <point x="582" y="207"/>
      <point x="550" y="229" type="curve" smooth="yes"/>
      <point x="522" y="248"/>
      <point x="482" y="257"/>
      <point x="429" y="257" type="curve" smooth="yes"/>
      <point x="427" y="257" type="line" smooth="yes"/>
      <point x="415" y="257"/>
      <point x="395" y="258"/>
      <point x="395" y="278" type="curve" smooth="yes"/>
      <point x="395" y="286"/>
      <point x="398" y="292"/>
      <point x="404" y="296" type="curve" smooth="yes"/>
      <point x="410" y="300"/>
      <point x="419" y="302"/>
      <point x="432" y="302" type="curve"/>
      <point x="434" y="302" type="line"/>
      <point x="487" y="302"/>
      <point x="531" y="307"/>
      <point x="559" y="327" type="curve" smooth="yes"/>
      <point x="589" y="348"/>
      <point x="602" y="384"/>
      <point x="602" y="424" type="curve" smooth="yes"/>
      <point x="602" y="525"/>
      <point x="516" y="581"/>
    </contour>
  </outline>
</glyph>
<glyph name="yamlym" format="2">
  <advance width="932"/>
  <unicode hex="0D2F"/>
  <outline>
    <contour>
      <point x="597" y="-12" type="curve" smooth="yes"/>
      <point x="843" y="-12"/>
      <point x="898" y="153"/>
      <point x="898" y="311" type="curve" smooth="yes"/>
      <point x="898" y="406"/>
      <point x="872" y="495"/>
      <point x="819" y="582" type="curve"/>
      <point x="680" y="523" type="line"/>
      <point x="716" y="449"/>
      <point x="737" y="378"/>
      <point x="737" y="306" type="curve" smooth="yes"/>
      <point x="737" y="171"/>
      <point x="692" y="106"/>
      <point x="592" y="106" type="curve" smooth="yes"/>
      <point x="565" y="106"/>
      <point x="542" y="112"/>
      <point x="522" y="122" type="curve" smooth="yes"/>
      <point x="510" y="128"/>
      <point x="493" y="133"/>
      <point x="484" y="143" type="curve" smooth="yes"/>
      <point x="442" y="191"/>
      <point x="422" y="283"/>
      <point x="422" y="352" type="curve" smooth="yes"/>
      <point x="422" y="441"/>
      <point x="445" y="459"/>
      <point x="469" y="459" type="curve" smooth="yes"/>
      <point x="493" y="459"/>
      <point x="514" y="434"/>
      <point x="514" y="352" type="curve" smooth="yes"/>
      <point x="514" y="276"/>
      <point x="491" y="180"/>
      <point x="433" y="133" type="curve" smooth="yes"/>
      <point x="425" y="127"/>
      <point x="417" y="127"/>
      <point x="408" y="122" type="curve" smooth="yes"/>
      <point x="387" y="111"/>
      <point x="364" y="105"/>
      <point x="338" y="105" type="curve" smooth="yes"/>
      <point x="252" y="105"/>
      <point x="190" y="189"/>
      <point x="190" y="333" type="curve" smooth="yes"/>
      <point x="190" y="416"/>
      <point x="214" y="461"/>
      <point x="257" y="461" type="curve" smooth="yes"/>
      <point x="277" y="461"/>
      <point x="298" y="448"/>
      <point x="316" y="416" type="curve"/>
      <point x="420" y="478" type="line"/>
      <point x="381" y="544"/>
      <point x="323" y="581"/>
      <point x="253" y="581" type="curve" smooth="yes"/>
      <point x="104" y="581"/>
      <point x="32" y="479"/>
      <point x="32" y="324" type="curve" smooth="yes"/>
      <point x="32" y="149"/>
      <point x="117" y="-12"/>
      <point x="334" y="-12" type="curve" smooth="yes"/>
      <point x="399" y="-12"/>
      <point x="448" y="4"/>
      <point x="502" y="35" type="curve"/>
      <point x="511" y="41"/>
      <point x="522" y="55"/>
      <point x="531" y="61" type="curve" smooth="yes"/>
      <point x="615" y="120"/>
      <point x="671" y="220"/>
      <point x="671" y="350" type="curve" smooth="yes"/>
      <point x="671" y="489"/>
      <point x="604" y="581"/>
      <point x="469" y="581" type="curve" smooth="yes"/>
      <point x="408" y="581"/>
      <point x="356" y="561"/>
      <point x="325" y="525" type="curve"/>
      <point x="294" y="479" type="line"/>
      <point x="276" y="445"/>
      <point x="265" y="402"/>
      <point x="265" y="349" type="curve" smooth="yes"/>
      <point x="265" y="240"/>
      <point x="308" y="142"/>
      <point x="392" y="76" type="curve" smooth="yes"/>
      <point x="400" y="69"/>
      <point x="403" y="51"/>
      <point x="411" y="45" type="curve" smooth="yes"/>
      <point x="462" y="8"/>
      <point x="526" y="-12"/>
    </contour>
  </outline>
</glyph>
<glyph name="ramlym" format="2">
  <advance width="677"/>
  <unicode hex="0D30"/>
  <outline>
    <contour>
      <point x="337" y="581" type="curve" smooth="yes"/>
      <point x="123" y="581"/>
      <point x="32" y="444"/>
      <point x="32" y="298" type="curve" smooth="yes"/>
      <point x="32" y="160"/>
      <point x="78" y="63"/>
      <point x="142" y="-14" type="curve"/>
      <point x="270" y="49" type="line"/>
      <point x="224" y="125"/>
      <point x="194" y="200"/>
      <point x="194" y="289" type="curve" smooth="yes"/>
      <point x="194" y="397"/>
      <point x="244" y="457"/>
      <point x="340" y="457" type="curve" smooth="yes"/>
      <point x="420" y="457"/>
      <point x="477" y="395"/>
      <point x="486" y="332" type="curve"/>
      <point x="487" y="327"/>
      <point x="488" y="310"/>
      <point x="488" y="305" type="curve"/>
      <point x="490" y="285"/>
      <point x="492" y="262"/>
      <point x="492" y="231" type="curve" smooth="yes"/>
      <point x="492" y="130"/>
      <point x="478" y="108"/>
      <point x="449" y="108" type="curve" smooth="yes"/>
      <point x="428" y="108"/>
      <point x="412" y="130"/>
      <point x="412" y="201" type="curve" smooth="yes"/>
      <point x="412" y="275"/>
      <point x="428" y="298"/>
      <point x="456" y="298" type="curve" smooth="yes"/>
      <point x="489" y="298"/>
      <point x="507" y="265"/>
      <point x="515" y="216" type="curve"/>
      <point x="576" y="222" type="line"/>
      <point x="560" y="311"/>
      <point x="507" y="407"/>
      <point x="418" y="407" type="curve" smooth="yes"/>
      <point x="317" y="407"/>
      <point x="259" y="338"/>
      <point x="259" y="203" type="curve" smooth="yes"/>
      <point x="259" y="82"/>
      <point x="311" y="-12"/>
      <point x="445" y="-12" type="curve" smooth="yes"/>
      <point x="580" y="-12"/>
      <point x="647" y="64"/>
      <point x="647" y="237" type="curve" smooth="yes"/>
      <point x="647" y="423"/>
      <point x="550" y="581"/>
    </contour>
  </outline>
</glyph>
<glyph name="rramlym" format="2">
  <advance width="604"/>
  <unicode hex="0D31"/>
  <outline>
    <contour>
      <point x="303" y="581" type="curve" smooth="yes"/>
      <point x="95" y="581"/>
      <point x="31" y="428"/>
      <point x="31" y="298" type="curve" smooth="yes"/>
      <point x="31" y="159"/>
      <point x="77" y="63"/>
      <point x="141" y="-14" type="curve"/>
      <point x="270" y="51" type="line"/>
      <point x="224" y="127"/>
      <point x="194" y="200"/>
      <point x="194" y="295" type="curve" smooth="yes"/>
      <point x="194" y="397"/>
      <point x="237" y="457"/>
      <point x="306" y="457" type="curve" smooth="yes"/>
      <point x="377" y="457"/>
      <point x="410" y="390"/>
      <point x="410" y="295" type="curve" smooth="yes"/>
      <point x="410" y="203"/>
      <point x="379" y="125"/>
      <point x="332" y="51" type="curve"/>
      <point x="461" y="-14" type="line"/>
      <point x="523" y="63"/>
      <point x="573" y="165"/>
      <point x="573" y="296" type="curve" smooth="yes"/>
      <point x="573" y="439"/>
      <point x="509" y="581"/>
    </contour>
  </outline>
</glyph>
<glyph name="lamlym" format="2">
  <advance width="759"/>
  <unicode hex="0D32"/>
  <outline>
    <contour>
      <point x="711" y="569" type="line"/>
      <point x="553" y="569" type="line"/>
      <point x="553" y="122" type="line"/>
      <point x="202" y="122" type="line"/>
      <point x="202" y="210" type="line"/>
      <point x="494" y="210" type="line"/>
      <point x="494" y="307" type="line" smooth="yes"/>
      <point x="494" y="411"/>
      <point x="478" y="472"/>
      <point x="439" y="517" type="curve" smooth="yes"/>
      <point x="404" y="558"/>
      <point x="349" y="581"/>
      <point x="270" y="581" type="curve" smooth="yes"/>
      <point x="195" y="581"/>
      <point x="142" y="558"/>
      <point x="106" y="520" type="curve" smooth="yes"/>
      <point x="64" y="476"/>
      <point x="45" y="413"/>
      <point x="45" y="305" type="curve" smooth="yes"/>
      <point x="45" y="0" type="line"/>
      <point x="711" y="0" type="line"/>
    </contour>
    <contour>
      <point x="270" y="459" type="curve" smooth="yes"/>
      <point x="315" y="459"/>
      <point x="337" y="423"/>
      <point x="337" y="349" type="curve" smooth="yes"/>
      <point x="337" y="331" type="line"/>
      <point x="202" y="331" type="line"/>
      <point x="202" y="350" type="line" smooth="yes"/>
      <point x="202" y="424"/>
      <point x="221" y="459"/>
    </contour>
  </outline>
</glyph>
<glyph name="llamlym" format="2">
  <advance width="662"/>
  <unicode hex="0D33"/>
  <outline>
    <contour>
      <point x="351" y="461" type="curve" smooth="yes"/>
      <point x="411" y="461"/>
      <point x="469" y="439"/>
      <point x="469" y="393" type="curve" smooth="yes"/>
      <point x="469" y="375"/>
      <point x="463" y="363"/>
      <point x="452" y="355" type="curve" smooth="yes"/>
      <point x="439" y="345"/>
      <point x="419" y="341"/>
      <point x="396" y="341" type="curve" smooth="yes"/>
      <point x="394" y="341" type="line"/>
      <point x="394" y="319" type="line"/>
      <point x="425" y="258" type="line"/>
      <point x="557" y="260"/>
      <point x="627" y="307"/>
      <point x="627" y="405" type="curve" smooth="yes"/>
      <point x="627" y="512"/>
      <point x="522" y="581"/>
      <point x="361" y="581" type="curve" smooth="yes"/>
      <point x="115" y="581"/>
      <point x="29" y="455"/>
      <point x="29" y="319" type="curve" smooth="yes"/>
      <point x="29" y="192"/>
      <point x="96" y="131"/>
      <point x="199" y="131" type="curve" smooth="yes"/>
      <point x="325" y="131"/>
      <point x="361" y="207"/>
      <point x="361" y="284" type="curve" smooth="yes"/>
      <point x="361" y="373"/>
      <point x="316" y="426"/>
      <point x="232" y="426" type="curve" smooth="yes"/>
      <point x="175" y="426"/>
      <point x="127" y="394"/>
      <point x="87" y="350" type="curve"/>
      <point x="134" y="303" type="line"/>
      <point x="156" y="326"/>
      <point x="171" y="333"/>
      <point x="187" y="333" type="curve" smooth="yes"/>
      <point x="205" y="333"/>
      <point x="219" y="320"/>
      <point x="219" y="288" type="curve" smooth="yes"/>
      <point x="219" y="259"/>
      <point x="209" y="241"/>
      <point x="189" y="241" type="curve" smooth="yes"/>
      <point x="170" y="241"/>
      <point x="158" y="257"/>
      <point x="158" y="303" type="curve" smooth="yes"/>
      <point x="158" y="321"/>
      <point x="161" y="345"/>
      <point x="161" y="354" type="curve" smooth="yes"/>
      <point x="163" y="369"/>
      <point x="158" y="376"/>
      <point x="165" y="389" type="curve" smooth="yes"/>
      <point x="184" y="423"/>
      <point x="256" y="461"/>
    </contour>
    <contour>
      <point x="635" y="157" type="curve" smooth="yes"/>
      <point x="635" y="220"/>
      <point x="602" y="267"/>
      <point x="548" y="288" type="curve"/>
      <point x="394" y="333" type="line"/>
      <point x="394" y="223" type="line"/>
      <point x="396" y="223" type="line" smooth="yes"/>
      <point x="424" y="223"/>
      <point x="439" y="221"/>
      <point x="452" y="214" type="curve" smooth="yes"/>
      <point x="467" y="206"/>
      <point x="477" y="192"/>
      <point x="477" y="172" type="curve" smooth="yes"/>
      <point x="477" y="154"/>
      <point x="471" y="142"/>
      <point x="461" y="134" type="curve" smooth="yes"/>
      <point x="447" y="123"/>
      <point x="429" y="122"/>
      <point x="391" y="122" type="curve" smooth="yes"/>
      <point x="296" y="122" type="line" smooth="yes"/>
      <point x="186" y="122"/>
      <point x="137" y="112"/>
      <point x="91" y="80" type="curve" smooth="yes"/>
      <point x="53" y="53"/>
      <point x="31" y="12"/>
      <point x="31" y="-45" type="curve" smooth="yes"/>
      <point x="31" y="-111"/>
      <point x="62" y="-153"/>
      <point x="109" y="-177" type="curve" smooth="yes"/>
      <point x="148" y="-197"/>
      <point x="193" y="-206"/>
      <point x="294" y="-206" type="curve" smooth="yes"/>
      <point x="621" y="-206" type="line"/>
      <point x="621" y="-83" type="line"/>
      <point x="284" y="-83" type="line" smooth="yes"/>
      <point x="237" y="-83"/>
      <point x="219" y="-79"/>
      <point x="207" y="-71" type="curve" smooth="yes"/>
      <point x="196" y="-64"/>
      <point x="190" y="-53"/>
      <point x="190" y="-40" type="curve" smooth="yes"/>
      <point x="190" y="-25"/>
      <point x="196" y="-16"/>
      <point x="210" y="-9" type="curve" smooth="yes"/>
      <point x="222" y="-3"/>
      <point x="238" y="0"/>
      <point x="284" y="0" type="curve" smooth="yes"/>
      <point x="406" y="0" type="line" smooth="yes"/>
      <point x="480" y="0"/>
      <point x="533" y="7"/>
      <point x="573" y="34" type="curve" smooth="yes"/>
      <point x="608" y="58"/>
      <point x="635" y="98"/>
    </contour>
  </outline>
</glyph>
<glyph name="lllamlym" format="2">
  <advance width="626"/>
  <unicode hex="0D34"/>
  <outline>
    <contour>
      <point x="230" y="418" type="curve" smooth="yes"/>
      <point x="230" y="330"/>
      <point x="302" y="242"/>
      <point x="302" y="161" type="curve" smooth="yes"/>
      <point x="302" y="137"/>
      <point x="290" y="111"/>
      <point x="256" y="111" type="curve" smooth="yes"/>
      <point x="234" y="111"/>
      <point x="211" y="115"/>
      <point x="182" y="128" type="curve"/>
      <point x="134" y="17" type="line"/>
      <point x="185" y="-4"/>
      <point x="235" y="-12"/>
      <point x="285" y="-12" type="curve" smooth="yes"/>
      <point x="417" y="-12"/>
      <point x="453" y="62"/>
      <point x="453" y="137" type="curve" smooth="yes"/>
      <point x="453" y="251"/>
      <point x="381" y="343"/>
      <point x="381" y="418" type="curve" smooth="yes"/>
      <point x="381" y="452"/>
      <point x="395" y="468"/>
      <point x="411" y="468" type="curve" smooth="yes"/>
      <point x="429" y="468"/>
      <point x="444" y="453"/>
      <point x="444" y="407" type="curve" smooth="yes"/>
      <point x="444" y="331"/>
      <point x="413" y="267"/>
      <point x="338" y="267" type="curve" smooth="yes"/>
      <point x="321" y="267" type="line" smooth="yes"/>
      <point x="235" y="267"/>
      <point x="187" y="313"/>
      <point x="187" y="409" type="curve" smooth="yes"/>
      <point x="187" y="449"/>
      <point x="198" y="489"/>
      <point x="216" y="529" type="curve"/>
      <point x="76" y="581" type="line"/>
      <point x="46" y="524"/>
      <point x="27" y="462"/>
      <point x="27" y="404" type="curve" smooth="yes"/>
      <point x="27" y="248"/>
      <point x="142" y="161"/>
      <point x="308" y="161" type="curve" smooth="yes"/>
      <point x="347" y="161" type="line" smooth="yes"/>
      <point x="515" y="161"/>
      <point x="599" y="254"/>
      <point x="599" y="402" type="curve" smooth="yes"/>
      <point x="599" y="486"/>
      <point x="544" y="581"/>
      <point x="409" y="581" type="curve" smooth="yes"/>
      <point x="292" y="581"/>
      <point x="230" y="515"/>
    </contour>
  </outline>
</glyph>
<glyph name="vamlym" format="2">
  <advance width="851"/>
  <unicode hex="0D35"/>
  <outline>
    <contour>
      <point x="303" y="581" type="curve" smooth="yes"/>
      <point x="95" y="581"/>
      <point x="31" y="428"/>
      <point x="31" y="298" type="curve" smooth="yes"/>
      <point x="31" y="159"/>
      <point x="77" y="62"/>
      <point x="141" y="-15" type="curve"/>
      <point x="270" y="50" type="line"/>
      <point x="224" y="126"/>
      <point x="194" y="200"/>
      <point x="194" y="295" type="curve" smooth="yes"/>
      <point x="194" y="397"/>
      <point x="237" y="457"/>
      <point x="306" y="457" type="curve" smooth="yes"/>
      <point x="377" y="457"/>
      <point x="410" y="390"/>
      <point x="410" y="295" type="curve" smooth="yes"/>
      <point x="410" y="206"/>
      <point x="378" y="129"/>
      <point x="345" y="74" type="curve"/>
      <point x="420" y="0" type="line"/>
      <point x="803" y="0" type="line"/>
      <point x="803" y="569" type="line"/>
      <point x="645" y="569" type="line"/>
      <point x="645" y="122" type="line"/>
      <point x="517" y="122" type="line"/>
      <point x="468" y="35" type="line"/>
      <point x="534" y="117"/>
      <point x="571" y="196"/>
      <point x="571" y="303" type="curve" smooth="yes"/>
      <point x="571" y="439"/>
      <point x="509" y="581"/>
    </contour>
  </outline>
</glyph>
<glyph name="shamlym" format="2">
  <advance width="933"/>
  <unicode hex="0D36"/>
  <outline>
    <contour>
      <point x="586" y="581" type="curve" smooth="yes"/>
      <point x="518" y="581"/>
      <point x="462" y="567"/>
      <point x="419" y="540" type="curve" smooth="yes"/>
      <point x="352" y="498"/>
      <point x="316" y="425"/>
      <point x="316" y="308" type="curve" smooth="yes"/>
      <point x="316" y="206" type="line" smooth="yes"/>
      <point x="316" y="157"/>
      <point x="313" y="140"/>
      <point x="300" y="125" type="curve" smooth="yes"/>
      <point x="292" y="116"/>
      <point x="281" y="111"/>
      <point x="266" y="111" type="curve" smooth="yes"/>
      <point x="227" y="111"/>
      <point x="192" y="147"/>
      <point x="192" y="262" type="curve" smooth="yes"/>
      <point x="192" y="362"/>
      <point x="222" y="434"/>
      <point x="264" y="518" type="curve"/>
      <point x="131" y="582" type="line"/>
      <point x="72" y="484"/>
      <point x="32" y="388"/>
      <point x="32" y="262" type="curve" smooth="yes"/>
      <point x="32" y="99"/>
      <point x="107" y="-12"/>
      <point x="263" y="-12" type="curve" smooth="yes"/>
      <point x="329" y="-12"/>
      <point x="378" y="3"/>
      <point x="415" y="37" type="curve" smooth="yes"/>
      <point x="458" y="76"/>
      <point x="476" y="132"/>
      <point x="476" y="233" type="curve" smooth="yes"/>
      <point x="476" y="286" type="line" smooth="yes"/>
      <point x="476" y="376"/>
      <point x="488" y="411"/>
      <point x="518" y="435" type="curve" smooth="yes"/>
      <point x="539" y="451"/>
      <point x="564" y="457"/>
      <point x="598" y="457" type="curve" smooth="yes"/>
      <point x="675" y="457"/>
      <point x="733" y="396"/>
      <point x="742" y="332" type="curve" smooth="yes"/>
      <point x="743" y="327"/>
      <point x="744" y="310"/>
      <point x="744" y="305" type="curve" smooth="yes"/>
      <point x="746" y="285"/>
      <point x="748" y="262"/>
      <point x="748" y="231" type="curve" smooth="yes"/>
      <point x="748" y="130"/>
      <point x="734" y="108"/>
      <point x="705" y="108" type="curve" smooth="yes"/>
      <point x="684" y="108"/>
      <point x="668" y="130"/>
      <point x="668" y="201" type="curve" smooth="yes"/>
      <point x="668" y="275"/>
      <point x="684" y="298"/>
      <point x="712" y="298" type="curve" smooth="yes"/>
      <point x="745" y="298"/>
      <point x="763" y="265"/>
      <point x="771" y="216" type="curve"/>
      <point x="832" y="222" type="line"/>
      <point x="816" y="311"/>
      <point x="763" y="407"/>
      <point x="674" y="407" type="curve" smooth="yes"/>
      <point x="573" y="407"/>
      <point x="515" y="338"/>
      <point x="515" y="203" type="curve" smooth="yes"/>
      <point x="515" y="82"/>
      <point x="567" y="-12"/>
      <point x="701" y="-12" type="curve" smooth="yes"/>
      <point x="836" y="-12"/>
      <point x="903" y="64"/>
      <point x="903" y="237" type="curve" smooth="yes"/>
      <point x="903" y="423"/>
      <point x="803" y="581"/>
    </contour>
  </outline>
</glyph>
<glyph name="ssamlym" format="2">
  <advance width="1059"/>
  <unicode hex="0D37"/>
  <outline>
    <contour>
      <point x="227" y="372" type="curve" smooth="yes"/>
      <point x="102" y="372"/>
      <point x="26" y="296"/>
      <point x="26" y="181" type="curve" smooth="yes"/>
      <point x="26" y="100"/>
      <point x="56" y="41"/>
      <point x="96" y="-13" type="curve"/>
      <point x="222" y="42" type="line"/>
      <point x="200" y="85"/>
      <point x="184" y="120"/>
      <point x="184" y="177" type="curve" smooth="yes"/>
      <point x="184" y="217"/>
      <point x="197" y="250"/>
      <point x="229" y="250" type="curve" smooth="yes"/>
      <point x="262" y="250"/>
      <point x="272" y="215"/>
      <point x="272" y="175" type="curve" smooth="yes"/>
      <point x="272" y="129"/>
      <point x="261" y="95"/>
      <point x="249" y="73" type="curve"/>
      <point x="296" y="0" type="line"/>
      <point x="617" y="0" type="line"/>
      <point x="616" y="122" type="line"/>
      <point x="385" y="122" type="line"/>
      <point x="391" y="78" type="line"/>
      <point x="409" y="107"/>
      <point x="423" y="150"/>
      <point x="423" y="187" type="curve" smooth="yes"/>
      <point x="423" y="276"/>
      <point x="372" y="372"/>
    </contour>
    <contour>
      <point x="593" y="0" type="line"/>
      <point x="1011" y="0" type="line"/>
      <point x="1011" y="569" type="line"/>
      <point x="858" y="569" type="line"/>
      <point x="828" y="475"/>
      <point x="766" y="338"/>
      <point x="659" y="338" type="curve" smooth="yes"/>
      <point x="622" y="338" type="line" smooth="yes"/>
      <point x="555" y="338"/>
      <point x="542" y="367"/>
      <point x="542" y="415" type="curve" smooth="yes"/>
      <point x="542" y="445"/>
      <point x="553" y="462"/>
      <point x="570" y="462" type="curve" smooth="yes"/>
      <point x="576" y="462"/>
      <point x="582" y="460"/>
      <point x="586" y="455" type="curve" smooth="yes"/>
      <point x="592" y="447"/>
      <point x="593" y="432"/>
      <point x="593" y="415" type="curve" smooth="yes"/>
    </contour>
    <contour>
      <point x="579" y="581" type="curve" smooth="yes"/>
      <point x="463" y="581"/>
      <point x="402" y="502"/>
      <point x="402" y="412" type="curve" smooth="yes"/>
      <point x="402" y="311"/>
      <point x="464" y="224"/>
      <point x="614" y="224" type="curve" smooth="yes"/>
      <point x="666" y="224" type="line" smooth="yes"/>
      <point x="753" y="224"/>
      <point x="836" y="285"/>
      <point x="867" y="366" type="curve"/>
      <point x="864" y="379" type="line"/>
      <point x="860" y="349"/>
      <point x="857" y="312"/>
      <point x="857" y="268" type="curve" smooth="yes"/>
      <point x="857" y="122" type="line"/>
      <point x="745" y="122" type="line"/>
      <point x="745" y="397" type="line" smooth="yes"/>
      <point x="745" y="466"/>
      <point x="731" y="516"/>
      <point x="696" y="545" type="curve" smooth="yes"/>
      <point x="669" y="568"/>
      <point x="633" y="581"/>
    </contour>
  </outline>
</glyph>
<glyph name="samlym" format="2">
  <advance width="1069"/>
  <unicode hex="0D38"/>
  <outline>
    <contour>
      <point x="545" y="581" type="curve" smooth="yes"/>
      <point x="475" y="581"/>
      <point x="427" y="556"/>
      <point x="384" y="500" type="curve"/>
      <point x="412" y="509" type="line"/>
      <point x="364" y="561"/>
      <point x="318" y="581"/>
      <point x="253" y="581" type="curve" smooth="yes"/>
      <point x="114" y="581"/>
      <point x="32" y="470"/>
      <point x="32" y="307" type="curve" smooth="yes"/>
      <point x="32" y="181"/>
      <point x="71" y="87"/>
      <point x="130" y="-12" type="curve"/>
      <point x="263" y="53" type="line"/>
      <point x="221" y="137"/>
      <point x="192" y="216"/>
      <point x="192" y="307" type="curve" smooth="yes"/>
      <point x="192" y="421"/>
      <point x="236" y="458"/>
      <point x="271" y="458" type="curve" smooth="yes"/>
      <point x="283" y="458"/>
      <point x="294" y="453"/>
      <point x="301" y="447" type="curve" smooth="yes"/>
      <point x="319" y="431"/>
      <point x="322" y="404"/>
      <point x="322" y="348" type="curve" smooth="yes"/>
      <point x="322" y="0" type="line"/>
      <point x="480" y="0" type="line"/>
      <point x="480" y="356" type="line" smooth="yes"/>
      <point x="480" y="406"/>
      <point x="485" y="430"/>
      <point x="501" y="445" type="curve" smooth="yes"/>
      <point x="510" y="453"/>
      <point x="521" y="458"/>
      <point x="536" y="458" type="curve" smooth="yes"/>
      <point x="551" y="458"/>
      <point x="562" y="453"/>
      <point x="571" y="445" type="curve" smooth="yes"/>
      <point x="587" y="430"/>
      <point x="592" y="406"/>
      <point x="592" y="354" type="curve" smooth="yes"/>
      <point x="592" y="233" type="line" smooth="yes"/>
      <point x="592" y="132"/>
      <point x="612" y="74"/>
      <point x="655" y="36" type="curve" smooth="yes"/>
      <point x="693" y="3"/>
      <point x="738" y="-12"/>
      <point x="806" y="-12" type="curve" smooth="yes"/>
      <point x="960" y="-12"/>
      <point x="1037" y="99"/>
      <point x="1037" y="262" type="curve" smooth="yes"/>
      <point x="1037" y="388"/>
      <point x="997" y="484"/>
      <point x="938" y="582" type="curve"/>
      <point x="805" y="518" type="line"/>
      <point x="847" y="434"/>
      <point x="877" y="362"/>
      <point x="877" y="262" type="curve" smooth="yes"/>
      <point x="877" y="147"/>
      <point x="842" y="111"/>
      <point x="803" y="111" type="curve" smooth="yes"/>
      <point x="789" y="111"/>
      <point x="777" y="115"/>
      <point x="769" y="124" type="curve" smooth="yes"/>
      <point x="756" y="137"/>
      <point x="750" y="157"/>
      <point x="750" y="206" type="curve" smooth="yes"/>
      <point x="750" y="332" type="line" smooth="yes"/>
      <point x="750" y="437"/>
      <point x="730" y="492"/>
      <point x="688" y="531" type="curve" smooth="yes"/>
      <point x="654" y="562"/>
      <point x="605" y="581"/>
    </contour>
  </outline>
</glyph>
<glyph name="hamlym" format="2">
  <advance width="1049"/>
  <unicode hex="0D39"/>
  <outline>
    <contour>
      <point x="227" y="372" type="curve" smooth="yes"/>
      <point x="102" y="372"/>
      <point x="26" y="296"/>
      <point x="26" y="181" type="curve" smooth="yes"/>
      <point x="26" y="100"/>
      <point x="56" y="41"/>
      <point x="96" y="-13" type="curve"/>
      <point x="222" y="42" type="line"/>
      <point x="200" y="85"/>
      <point x="184" y="120"/>
      <point x="184" y="177" type="curve" smooth="yes"/>
      <point x="184" y="217"/>
      <point x="197" y="250"/>
      <point x="229" y="250" type="curve" smooth="yes"/>
      <point x="262" y="250"/>
      <point x="272" y="215"/>
      <point x="272" y="175" type="curve" smooth="yes"/>
      <point x="272" y="129"/>
      <point x="261" y="95"/>
      <point x="249" y="73" type="curve"/>
      <point x="296" y="0" type="line"/>
      <point x="618" y="0" type="line"/>
      <point x="579" y="122" type="line"/>
      <point x="385" y="122" type="line"/>
      <point x="391" y="78" type="line"/>
      <point x="409" y="107"/>
      <point x="423" y="150"/>
      <point x="423" y="187" type="curve" smooth="yes"/>
      <point x="423" y="276"/>
      <point x="372" y="372"/>
    </contour>
    <contour>
      <point x="748" y="581" type="curve" smooth="yes"/>
      <point x="537" y="581"/>
      <point x="476" y="428"/>
      <point x="476" y="305" type="curve" smooth="yes"/>
      <point x="476" y="195"/>
      <point x="514" y="125"/>
      <point x="559" y="65" type="curve"/>
      <point x="576" y="0" type="line"/>
      <point x="629" y="0" type="line"/>
      <point x="702" y="74" type="line"/>
      <point x="669" y="136"/>
      <point x="639" y="203"/>
      <point x="639" y="295" type="curve" smooth="yes"/>
      <point x="639" y="397"/>
      <point x="682" y="457"/>
      <point x="751" y="457" type="curve" smooth="yes"/>
      <point x="822" y="457"/>
      <point x="855" y="390"/>
      <point x="855" y="295" type="curve" smooth="yes"/>
      <point x="855" y="202"/>
      <point x="824" y="124"/>
      <point x="777" y="50" type="curve"/>
      <point x="906" y="-15" type="line"/>
      <point x="968" y="62"/>
      <point x="1018" y="164"/>
      <point x="1018" y="296" type="curve" smooth="yes"/>
      <point x="1018" y="439"/>
      <point x="954" y="581"/>
    </contour>
  </outline>
</glyph>
<glyph name="tttamlym" format="2">
  <advance width="603"/>
  <unicode hex="0D3A"/>
  <outline>
    <contour>
      <point x="584" y="122" type="line"/>
      <point x="193" y="122" type="line"/>
      <point x="347" y="530" type="line"/>
      <point x="190" y="580" type="line"/>
      <point x="14" y="105" type="line"/>
      <point x="97" y="0" type="line"/>
      <point x="245" y="0" type="line"/>
      <point x="245" y="-202" type="line"/>
      <point x="402" y="-202" type="line"/>
      <point x="402" y="0" type="line"/>
      <point x="584" y="0" type="line"/>
    </contour>
  </outline>
</glyph>
<glyph name="avagrahamlym" format="2">
  <advance width="443"/>
  <unicode hex="0D3D"/>
  <outline>
    <contour>
      <point x="328" y="805" type="curve" smooth="yes"/>
      <point x="276" y="805"/>
      <point x="239" y="791"/>
      <point x="210" y="769" type="curve" smooth="yes"/>
      <point x="151" y="724"/>
      <point x="142" y="652"/>
      <point x="142" y="569" type="curve" smooth="yes"/>
      <point x="142" y="-50" type="line" smooth="yes"/>
      <point x="142" y="-88"/>
      <point x="139" y="-105"/>
      <point x="131" y="-114" type="curve" smooth="yes"/>
      <point x="127" y="-119"/>
      <point x="121" y="-122"/>
      <point x="113" y="-122" type="curve" smooth="yes"/>
      <point x="97" y="-122"/>
      <point x="88" y="-106"/>
      <point x="80" y="-58" type="curve"/>
      <point x="-54" y="-86" type="line"/>
      <point x="-31" y="-168"/>
      <point x="7" y="-244"/>
      <point x="115" y="-244" type="curve" smooth="yes"/>
      <point x="167" y="-244"/>
      <point x="204" y="-230"/>
      <point x="233" y="-208" type="curve" smooth="yes"/>
      <point x="292" y="-163"/>
      <point x="301" y="-91"/>
      <point x="301" y="-8" type="curve" smooth="yes"/>
      <point x="301" y="611" type="line" smooth="yes"/>
      <point x="301" y="649"/>
      <point x="304" y="666"/>
      <point x="312" y="675" type="curve" smooth="yes"/>
      <point x="316" y="680"/>
      <point x="322" y="683"/>
      <point x="330" y="683" type="curve" smooth="yes"/>
      <point x="346" y="683"/>
      <point x="355" y="667"/>
      <point x="363" y="619" type="curve"/>
      <point x="497" y="647" type="line"/>
      <point x="474" y="729"/>
      <point x="436" y="805"/>
    </contour>
  </outline>
</glyph>
<glyph name="aavowelsignmlym" format="2">
  <advance width="478"/>
  <unicode hex="0D3E"/>
  <outline>
    <contour>
      <point x="445" y="287" type="curve" smooth="yes"/>
      <point x="445" y="459"/>
      <point x="397" y="581"/>
      <point x="234" y="581" type="curve" smooth="yes"/>
      <point x="85" y="581"/>
      <point x="41" y="488"/>
      <point x="14" y="384" type="curve"/>
      <point x="173" y="354" type="line"/>
      <point x="185" y="425"/>
      <point x="200" y="459"/>
      <point x="231" y="459" type="curve" smooth="yes"/>
      <point x="269" y="459"/>
      <point x="284" y="407"/>
      <point x="284" y="290" type="curve" smooth="yes"/>
      <point x="284" y="162"/>
      <point x="269" y="110"/>
      <point x="231" y="110" type="curve" smooth="yes"/>
      <point x="197" y="110"/>
      <point x="183" y="145"/>
      <point x="171" y="215" type="curve"/>
      <point x="12" y="186" type="line"/>
      <point x="30" y="85"/>
      <point x="67" y="-12"/>
      <point x="226" y="-12" type="curve" smooth="yes"/>
      <point x="391" y="-12"/>
      <point x="445" y="92"/>
    </contour>
  </outline>
</glyph>
<glyph name="ivowelsignmlym" format="2">
  <advance width="254"/>
  <unicode hex="0D3F"/>
  <outline>
    <contour>
      <point x="-11" y="853" type="curve" smooth="yes"/>
      <point x="-139" y="853"/>
      <point x="-217" y="795"/>
      <point x="-217" y="682" type="curve" smooth="yes"/>
      <point x="-217" y="658"/>
      <point x="-214" y="635"/>
      <point x="-210" y="618" type="curve"/>
      <point x="-55" y="637" type="line"/>
      <point x="-58" y="646"/>
      <point x="-60" y="662"/>
      <point x="-60" y="679" type="curve" smooth="yes"/>
      <point x="-60" y="706"/>
      <point x="-47" y="731"/>
      <point x="-15" y="731" type="curve" smooth="yes"/>
      <point x="-1" y="731"/>
      <point x="10" y="727"/>
      <point x="19" y="718" type="curve" smooth="yes"/>
      <point x="43" y="694"/>
      <point x="48" y="630"/>
      <point x="48" y="551" type="curve" smooth="yes"/>
      <point x="48" y="0" type="line"/>
      <point x="206" y="0" type="line"/>
      <point x="206" y="571" type="line" smooth="yes"/>
      <point x="206" y="680"/>
      <point x="190" y="756"/>
      <point x="133" y="805" type="curve" smooth="yes"/>
      <point x="99" y="835"/>
      <point x="49" y="853"/>
    </contour>
  </outline>
</glyph>
<glyph name="iivowelsignmlym" format="2">
  <advance width="254"/>
  <unicode hex="0D40"/>
  <outline>
    <contour>
      <point x="-72" y="853" type="curve" smooth="yes"/>
      <point x="-206" y="853"/>
      <point x="-263" y="791"/>
      <point x="-263" y="712" type="curve" smooth="yes"/>
      <point x="-263" y="628"/>
      <point x="-211" y="583"/>
      <point x="-122" y="583" type="curve" smooth="yes"/>
      <point x="-33" y="583"/>
      <point x="8" y="638"/>
      <point x="8" y="700" type="curve" smooth="yes"/>
      <point x="8" y="733"/>
      <point x="-5" y="766"/>
      <point x="-19" y="780" type="curve"/>
      <point x="-140" y="794" type="line"/>
      <point x="-115" y="775"/>
      <point x="-93" y="750"/>
      <point x="-93" y="716" type="curve" smooth="yes"/>
      <point x="-93" y="696"/>
      <point x="-101" y="682"/>
      <point x="-119" y="682" type="curve" smooth="yes"/>
      <point x="-135" y="682"/>
      <point x="-145" y="692"/>
      <point x="-145" y="714" type="curve" smooth="yes"/>
      <point x="-145" y="744"/>
      <point x="-127" y="757"/>
      <point x="-98" y="757" type="curve" smooth="yes"/>
      <point x="-64" y="757"/>
      <point x="-29" y="750"/>
      <point x="-1" y="731" type="curve"/>
      <point x="34" y="701"/>
      <point x="48" y="649"/>
      <point x="48" y="515" type="curve" smooth="yes"/>
      <point x="48" y="0" type="line"/>
      <point x="206" y="0" type="line"/>
      <point x="206" y="531" type="line" smooth="yes"/>
      <point x="206" y="659"/>
      <point x="185" y="738"/>
      <point x="115" y="794" type="curve" smooth="yes"/>
      <point x="66" y="833"/>
      <point x="5" y="853"/>
    </contour>
  </outline>
</glyph>
<glyph name="uvowelsignmlym" format="2">
  <advance width="337"/>
  <unicode hex="0D41"/>
  <outline>
    <contour>
      <point x="161" y="-241" type="curve" smooth="yes"/>
      <point x="282" y="-241"/>
      <point x="344" y="-167"/>
      <point x="344" y="-55" type="curve" smooth="yes"/>
      <point x="344" y="61"/>
      <point x="285" y="136"/>
      <point x="160" y="136" type="curve" smooth="yes"/>
      <point x="31" y="136"/>
      <point x="-21" y="58"/>
      <point x="-21" y="-53" type="curve" smooth="yes"/>
      <point x="-21" y="-163"/>
      <point x="38" y="-241"/>
    </contour>
    <contour>
      <point x="162" y="-125" type="curve" smooth="yes"/>
      <point x="134" y="-125"/>
      <point x="120" y="-103"/>
      <point x="120" y="-53" type="curve" smooth="yes"/>
      <point x="120" y="-2"/>
      <point x="134" y="20"/>
      <point x="163" y="20" type="curve" smooth="yes"/>
      <point x="190" y="20"/>
      <point x="203" y="-3"/>
      <point x="203" y="-53" type="curve" smooth="yes"/>
      <point x="203" y="-105"/>
      <point x="187" y="-125"/>
    </contour>
    <contour>
      <point x="133" y="581" type="curve" smooth="yes"/>
      <point x="88" y="581"/>
      <point x="53" y="574"/>
      <point x="22" y="567" type="curve"/>
      <point x="46" y="452" type="line"/>
      <point x="59" y="455"/>
      <point x="74" y="457"/>
      <point x="86" y="457" type="curve" smooth="yes"/>
      <point x="123" y="457"/>
      <point x="135" y="428"/>
      <point x="135" y="389" type="curve" smooth="yes"/>
      <point x="135" y="300"/>
      <point x="117" y="215"/>
      <point x="95" y="119" type="curve"/>
      <point x="241" y="104" type="line"/>
      <point x="275" y="219"/>
      <point x="295" y="304"/>
      <point x="295" y="403" type="curve" smooth="yes"/>
      <point x="295" y="499"/>
      <point x="247" y="581"/>
    </contour>
  </outline>
</glyph>
<glyph name="uuvowelsignmlym" format="2">
  <advance width="337"/>
  <unicode hex="0D42"/>
  <outline>
    <contour>
      <point x="162" y="-241" type="curve" smooth="yes"/>
      <point x="282" y="-241"/>
      <point x="344" y="-167"/>
      <point x="344" y="-55" type="curve" smooth="yes"/>
      <point x="344" y="61"/>
      <point x="285" y="136"/>
      <point x="160" y="136" type="curve" smooth="yes"/>
      <point x="31" y="136"/>
      <point x="-21" y="58"/>
      <point x="-21" y="-53" type="curve" smooth="yes"/>
      <point x="-21" y="-163"/>
      <point x="38" y="-241"/>
    </contour>
    <contour>
      <point x="161" y="39" type="curve" smooth="yes"/>
      <point x="203" y="39"/>
      <point x="236" y="14"/>
      <point x="236" y="-53" type="curve" smooth="yes"/>
      <point x="236" y="-126"/>
      <point x="202" y="-146"/>
      <point x="162" y="-146" type="curve" smooth="yes"/>
      <point x="121" y="-146"/>
      <point x="87" y="-122"/>
      <point x="87" y="-53" type="curve" smooth="yes"/>
      <point x="87" y="15"/>
      <point x="125" y="39"/>
    </contour>
    <contour>
      <point x="163" y="-101" type="curve" smooth="yes"/>
      <point x="228" y="-101"/>
      <point x="258" y="-51"/>
      <point x="258" y="15" type="curve" smooth="yes"/>
      <point x="258" y="44"/>
      <point x="249" y="70"/>
      <point x="224" y="102" type="curve"/>
      <point x="177" y="73" type="line"/>
      <point x="199" y="60"/>
      <point x="212" y="40"/>
      <point x="212" y="23" type="curve" smooth="yes"/>
      <point x="212" y="4"/>
      <point x="197" y="-17"/>
      <point x="162" y="-17" type="curve" smooth="yes"/>
      <point x="139" y="-17"/>
      <point x="113" y="-7"/>
      <point x="113" y="25" type="curve" smooth="yes"/>
      <point x="113" y="47"/>
      <point x="136" y="60"/>
      <point x="152" y="76" type="curve"/>
      <point x="103" y="102" type="line"/>
      <point x="80" y="68"/>
      <point x="67" y="40"/>
      <point x="67" y="16" type="curve" smooth="yes"/>
      <point x="67" y="-62"/>
      <point x="102" y="-101"/>
    </contour>
    <contour>
      <point x="133" y="581" type="curve" smooth="yes"/>
      <point x="88" y="581"/>
      <point x="53" y="574"/>
      <point x="22" y="567" type="curve"/>
      <point x="46" y="452" type="line"/>
      <point x="59" y="455"/>
      <point x="74" y="457"/>
      <point x="86" y="457" type="curve" smooth="yes"/>
      <point x="123" y="457"/>
      <point x="135" y="428"/>
      <point x="135" y="389" type="curve" smooth="yes"/>
      <point x="135" y="300"/>
      <point x="117" y="215"/>
      <point x="95" y="119" type="curve"/>
      <point x="241" y="104" type="line"/>
      <point x="275" y="219"/>
      <point x="295" y="304"/>
      <point x="295" y="403" type="curve" smooth="yes"/>
      <point x="295" y="499"/>
      <point x="247" y="581"/>
    </contour>
  </outline>
</glyph>
<glyph name="rvocalicvowelsignmlym" format="2">
  <advance width="276"/>
  <unicode hex="0D43"/>
  <outline>
    <contour>
      <point x="60" y="-336" type="curve" smooth="yes"/>
      <point x="184" y="-336"/>
      <point x="275" y="-275"/>
      <point x="275" y="-118" type="curve" smooth="yes"/>
      <point x="275" y="-51"/>
      <point x="262" y="15"/>
      <point x="227" y="132" type="curve" smooth="yes"/>
      <point x="206" y="202"/>
      <point x="194" y="258"/>
      <point x="194" y="319" type="curve" smooth="yes"/>
      <point x="194" y="402"/>
      <point x="217" y="470"/>
      <point x="261" y="569" type="curve"/>
      <point x="98" y="569" type="line"/>
      <point x="63" y="497"/>
      <point x="35" y="413"/>
      <point x="35" y="311" type="curve" smooth="yes"/>
      <point x="35" y="229"/>
      <point x="52" y="162"/>
      <point x="77" y="82" type="curve" smooth="yes"/>
      <point x="117" y="-45"/>
      <point x="121" y="-84"/>
      <point x="121" y="-123" type="curve" smooth="yes"/>
      <point x="121" y="-183"/>
      <point x="101" y="-216"/>
      <point x="56" y="-216" type="curve" smooth="yes"/>
      <point x="28" y="-216"/>
      <point x="11" y="-201"/>
      <point x="11" y="-176" type="curve" smooth="yes"/>
      <point x="11" y="-151"/>
      <point x="28" y="-135"/>
      <point x="56" y="-135" type="curve" smooth="yes"/>
      <point x="87" y="-135"/>
      <point x="114" y="-149"/>
      <point x="142" y="-173" type="curve"/>
      <point x="189" y="-85" type="line"/>
      <point x="151" y="-48"/>
      <point x="99" y="-22"/>
      <point x="37" y="-22" type="curve" smooth="yes"/>
      <point x="-75" y="-22"/>
      <point x="-136" y="-85"/>
      <point x="-136" y="-171" type="curve" smooth="yes"/>
      <point x="-136" y="-284"/>
      <point x="-61" y="-336"/>
    </contour>
  </outline>
</glyph>
<glyph name="rrvocalicvowelsignmlym" format="2">
  <advance width="276"/>
  <unicode hex="0D44"/>
  <outline>
    <contour>
      <point x="-7" y="-336" type="curve" smooth="yes"/>
      <point x="193" y="-336"/>
      <point x="275" y="-244"/>
      <point x="275" y="-118" type="curve" smooth="yes"/>
      <point x="275" y="-47"/>
      <point x="262" y="15"/>
      <point x="227" y="132" type="curve" smooth="yes"/>
      <point x="206" y="202"/>
      <point x="194" y="258"/>
      <point x="194" y="319" type="curve" smooth="yes"/>
      <point x="194" y="402"/>
      <point x="217" y="470"/>
      <point x="261" y="569" type="curve"/>
      <point x="98" y="569" type="line"/>
      <point x="63" y="497"/>
      <point x="35" y="413"/>
      <point x="35" y="311" type="curve" smooth="yes"/>
      <point x="35" y="229"/>
      <point x="52" y="162"/>
      <point x="77" y="82" type="curve" smooth="yes"/>
      <point x="115" y="-37"/>
      <point x="117" y="-79"/>
      <point x="117" y="-119" type="curve" smooth="yes"/>
      <point x="117" y="-195"/>
      <point x="72" y="-219"/>
      <point x="-9" y="-219" type="curve" smooth="yes"/>
      <point x="-85" y="-219"/>
      <point x="-127" y="-196"/>
      <point x="-127" y="-152" type="curve" smooth="yes"/>
      <point x="-127" y="-134"/>
      <point x="-120" y="-124"/>
      <point x="-107" y="-124" type="curve" smooth="yes"/>
      <point x="-97" y="-124"/>
      <point x="-90" y="-132"/>
      <point x="-90" y="-153" type="curve" smooth="yes"/>
      <point x="-90" y="-173" type="line"/>
      <point x="-14" y="-173" type="line"/>
      <point x="-14" y="-153" type="line" smooth="yes"/>
      <point x="-14" y="-132"/>
      <point x="-6" y="-124"/>
      <point x="5" y="-124" type="curve" smooth="yes"/>
      <point x="16" y="-124"/>
      <point x="24" y="-132"/>
      <point x="24" y="-154" type="curve" smooth="yes"/>
      <point x="24" y="-173" type="line"/>
      <point x="102" y="-173" type="line"/>
      <point x="102" y="-134" type="line" smooth="yes"/>
      <point x="102" y="-86"/>
      <point x="91" y="-22"/>
      <point x="14" y="-22" type="curve" smooth="yes"/>
      <point x="-15" y="-22"/>
      <point x="-43" y="-37"/>
      <point x="-61" y="-64" type="curve"/>
      <point x="-38" y="-71" type="line"/>
      <point x="-58" y="-40"/>
      <point x="-79" y="-22"/>
      <point x="-120" y="-22" type="curve" smooth="yes"/>
      <point x="-195" y="-22"/>
      <point x="-242" y="-77"/>
      <point x="-242" y="-154" type="curve" smooth="yes"/>
      <point x="-242" y="-268"/>
      <point x="-158" y="-336"/>
    </contour>
  </outline>
</glyph>
<glyph name="evowelsignmlym" format="2">
  <advance width="660"/>
  <unicode hex="0D46"/>
  <outline>
    <contour>
      <point x="221" y="-12" type="curve" smooth="yes"/>
      <point x="338" y="-12"/>
      <point x="399" y="63"/>
      <point x="399" y="184" type="curve" smooth="yes"/>
      <point x="399" y="284"/>
      <point x="353" y="356"/>
      <point x="256" y="356" type="curve" smooth="yes"/>
      <point x="193" y="356"/>
      <point x="141" y="323"/>
      <point x="100" y="278" type="curve"/>
      <point x="126" y="164" type="line"/>
      <point x="166" y="223"/>
      <point x="185" y="243"/>
      <point x="212" y="243" type="curve" smooth="yes"/>
      <point x="235" y="243"/>
      <point x="248" y="226"/>
      <point x="248" y="173" type="curve" smooth="yes"/>
      <point x="248" y="121"/>
      <point x="235" y="106"/>
      <point x="216" y="106" type="curve" smooth="yes"/>
      <point x="193" y="106"/>
      <point x="172" y="121"/>
      <point x="172" y="234" type="curve" smooth="yes"/>
      <point x="172" y="370"/>
      <point x="239" y="458"/>
      <point x="334" y="458" type="curve" smooth="yes"/>
      <point x="427" y="458"/>
      <point x="465" y="390"/>
      <point x="465" y="289" type="curve" smooth="yes"/>
      <point x="465" y="200"/>
      <point x="434" y="124"/>
      <point x="387" y="50" type="curve"/>
      <point x="516" y="-15" type="line"/>
      <point x="577" y="62"/>
      <point x="628" y="166"/>
      <point x="628" y="293" type="curve" smooth="yes"/>
      <point x="628" y="425"/>
      <point x="567" y="581"/>
      <point x="343" y="581" type="curve" smooth="yes"/>
      <point x="139" y="581"/>
      <point x="32" y="431"/>
      <point x="32" y="236" type="curve" smooth="yes"/>
      <point x="32" y="56"/>
      <point x="112" y="-12"/>
    </contour>
  </outline>
</glyph>
<glyph name="eevowelsignmlym" format="2">
  <advance width="561"/>
  <unicode hex="0D47"/>
  <outline>
    <contour>
      <point x="321" y="-12" type="curve" smooth="yes"/>
      <point x="479" y="-12"/>
      <point x="529" y="59"/>
      <point x="529" y="141" type="curve" smooth="yes"/>
      <point x="529" y="229"/>
      <point x="468" y="279"/>
      <point x="380" y="279" type="curve" smooth="yes"/>
      <point x="269" y="279"/>
      <point x="236" y="209"/>
      <point x="236" y="142" type="curve" smooth="yes"/>
      <point x="236" y="122"/>
      <point x="242" y="94"/>
      <point x="248" y="79" type="curve"/>
      <point x="373" y="59" type="line"/>
      <point x="352" y="86"/>
      <point x="344" y="107"/>
      <point x="344" y="138" type="curve" smooth="yes"/>
      <point x="344" y="166"/>
      <point x="356" y="178"/>
      <point x="373" y="178" type="curve" smooth="yes"/>
      <point x="391" y="178"/>
      <point x="400" y="164"/>
      <point x="400" y="142" type="curve" smooth="yes"/>
      <point x="400" y="118"/>
      <point x="389" y="93"/>
      <point x="347" y="93" type="curve" smooth="yes"/>
      <point x="331" y="93"/>
      <point x="309" y="94"/>
      <point x="296" y="94" type="curve"/>
      <point x="212" y="109"/>
      <point x="187" y="174"/>
      <point x="187" y="287" type="curve" smooth="yes"/>
      <point x="187" y="396"/>
      <point x="230" y="464"/>
      <point x="303" y="475" type="curve"/>
      <point x="318" y="475"/>
      <point x="340" y="476"/>
      <point x="355" y="476" type="curve" smooth="yes"/>
      <point x="393" y="476"/>
      <point x="406" y="448"/>
      <point x="406" y="426" type="curve" smooth="yes"/>
      <point x="406" y="405"/>
      <point x="398" y="392"/>
      <point x="379" y="392" type="curve" smooth="yes"/>
      <point x="363" y="392"/>
      <point x="350" y="403"/>
      <point x="350" y="431" type="curve" smooth="yes"/>
      <point x="350" y="459"/>
      <point x="362" y="486"/>
      <point x="380" y="509" type="curve"/>
      <point x="264" y="502" type="line"/>
      <point x="254" y="486"/>
      <point x="242" y="450"/>
      <point x="242" y="422" type="curve" smooth="yes"/>
      <point x="242" y="351"/>
      <point x="275" y="291"/>
      <point x="388" y="291" type="curve" smooth="yes"/>
      <point x="474" y="291"/>
      <point x="535" y="336"/>
      <point x="535" y="427" type="curve" smooth="yes"/>
      <point x="535" y="508"/>
      <point x="486" y="581"/>
      <point x="335" y="581" type="curve" smooth="yes"/>
      <point x="148" y="581"/>
      <point x="32" y="482"/>
      <point x="32" y="288" type="curve" smooth="yes"/>
      <point x="32" y="72"/>
      <point x="146" y="-12"/>
    </contour>
  </outline>
</glyph>
<glyph name="viramamlym" format="2">
  <unicode hex="0D4D"/>
  <outline>
    <contour>
      <point x="-114" y="599" type="curve" smooth="yes"/>
      <point x="23" y="599"/>
      <point x="67" y="667"/>
      <point x="67" y="763" type="curve" smooth="yes"/>
      <point x="67" y="796"/>
      <point x="59" y="824"/>
      <point x="54" y="840" type="curve"/>
      <point x="-75" y="818" type="line"/>
      <point x="-72" y="804"/>
      <point x="-69" y="787"/>
      <point x="-69" y="768" type="curve" smooth="yes"/>
      <point x="-69" y="731"/>
      <point x="-82" y="712"/>
      <point x="-110" y="712" type="curve" smooth="yes"/>
      <point x="-140" y="712"/>
      <point x="-151" y="732"/>
      <point x="-151" y="769" type="curve" smooth="yes"/>
      <point x="-151" y="785"/>
      <point x="-147" y="805"/>
      <point x="-143" y="818" type="curve"/>
      <point x="-277" y="840" type="line"/>
      <point x="-284" y="823"/>
      <point x="-293" y="796"/>
      <point x="-293" y="762" type="curve" smooth="yes"/>
      <point x="-293" y="667"/>
      <point x="-246" y="599"/>
    </contour>
  </outline>
</glyph>
<glyph name="rephmlym" format="2">
  <unicode hex="0D4E"/>
  <outline>
    <contour>
      <point x="-195" y="844" type="line"/>
      <point x="-363" y="844" type="line"/>
      <point x="-355" y="638" type="line"/>
      <point x="-204" y="638" type="line"/>
    </contour>
  </outline>
</glyph>
<glyph name="uni0D4F" format="2">
  <advance width="1137"/>
  <unicode hex="0D4F"/>
  <outline>
    <contour>
      <point x="544" y="581" type="curve" smooth="yes"/>
      <point x="368" y="581"/>
      <point x="242" y="467"/>
      <point x="242" y="246" type="curve" smooth="yes"/>
      <point x="242" y="56"/>
      <point x="321" y="-12"/>
      <point x="430" y="-12" type="curve" smooth="yes"/>
      <point x="548" y="-12"/>
      <point x="609" y="58"/>
      <point x="609" y="184" type="curve" smooth="yes"/>
      <point x="609" y="284"/>
      <point x="563" y="356"/>
      <point x="466" y="356" type="curve" smooth="yes"/>
      <point x="403" y="356"/>
      <point x="351" y="323"/>
      <point x="310" y="278" type="curve"/>
      <point x="336" y="164" type="line"/>
      <point x="376" y="223"/>
      <point x="395" y="243"/>
      <point x="422" y="243" type="curve" smooth="yes"/>
      <point x="445" y="243"/>
      <point x="458" y="226"/>
      <point x="458" y="173" type="curve" smooth="yes"/>
      <point x="458" y="121"/>
      <point x="445" y="106"/>
      <point x="426" y="106" type="curve" smooth="yes"/>
      <point x="403" y="106"/>
      <point x="382" y="121"/>
      <point x="382" y="234" type="curve" smooth="yes"/>
      <point x="382" y="240" type="line" smooth="yes"/>
      <point x="382" y="393"/>
      <point x="460" y="458"/>
      <point x="543" y="458" type="curve" smooth="yes"/>
      <point x="577" y="458"/>
      <point x="600" y="451"/>
      <point x="616" y="436" type="curve" smooth="yes"/>
      <point x="641" y="413"/>
      <point x="649" y="378"/>
      <point x="649" y="300" type="curve" smooth="yes"/>
      <point x="649" y="0" type="line"/>
      <point x="807" y="0" type="line"/>
      <point x="807" y="348" type="line" smooth="yes"/>
      <point x="807" y="411"/>
      <point x="812" y="434"/>
      <point x="828" y="448" type="curve" smooth="yes"/>
      <point x="836" y="455"/>
      <point x="846" y="458"/>
      <point x="858" y="458" type="curve" smooth="yes"/>
      <point x="897" y="458"/>
      <point x="938" y="413"/>
      <point x="938" y="247" type="curve" smooth="yes"/>
      <point x="938" y="42"/>
      <point x="889" y="-122"/>
      <point x="571" y="-122" type="curve" smooth="yes"/>
      <point x="274" y="-122"/>
      <point x="185" y="27"/>
      <point x="185" y="241" type="curve" smooth="yes"/>
      <point x="185" y="332"/>
      <point x="208" y="429"/>
      <point x="241" y="517" type="curve"/>
      <point x="108" y="564" type="line"/>
      <point x="67" y="460"/>
      <point x="40" y="345"/>
      <point x="40" y="241" type="curve" smooth="yes"/>
      <point x="40" y="-28"/>
      <point x="172" y="-252"/>
      <point x="570" y="-252" type="curve" smooth="yes"/>
      <point x="945" y="-252"/>
      <point x="1100" y="-75"/>
      <point x="1100" y="247" type="curve" smooth="yes"/>
      <point x="1100" y="457"/>
      <point x="1018" y="581"/>
      <point x="878" y="581" type="curve" smooth="yes"/>
      <point x="811" y="581"/>
      <point x="758" y="563"/>
      <point x="706" y="500" type="curve"/>
      <point x="753" y="481" type="line"/>
      <point x="698" y="554"/>
      <point x="637" y="581"/>
    </contour>
  </outline>
</glyph>
<glyph name="machillumlym" format="2">
  <advance width="600"/>
  <unicode hex="0D54"/>
  <outline>
    <contour>
      <point x="186" y="803" type="curve" smooth="yes"/>
      <point x="151" y="803"/>
      <point x="113" y="799"/>
      <point x="78" y="789" type="curve"/>
      <point x="103" y="676" type="line"/>
      <point x="118" y="680"/>
      <point x="131" y="681"/>
      <point x="144" y="681" type="curve" smooth="yes"/>
      <point x="157" y="681"/>
      <point x="167" y="678"/>
      <point x="173" y="674" type="curve" smooth="yes"/>
      <point x="186" y="665"/>
      <point x="191" y="652"/>
      <point x="191" y="619" type="curve" smooth="yes"/>
      <point x="191" y="501" type="line" smooth="yes"/>
      <point x="191" y="373"/>
      <point x="227" y="291"/>
      <point x="310" y="214" type="curve"/>
      <point x="346" y="182" type="line"/>
      <point x="376" y="141"/>
      <point x="409" y="112"/>
      <point x="464" y="59" type="curve"/>
      <point x="481" y="111" type="line"/>
      <point x="461" y="114"/>
      <point x="391" y="117"/>
      <point x="372" y="117" type="curve" smooth="yes"/>
      <point x="367" y="117" type="line" smooth="yes"/>
      <point x="355" y="117"/>
      <point x="321" y="116"/>
      <point x="299" y="111" type="curve"/>
      <point x="291" y="78" type="line"/>
      <point x="336" y="112"/>
      <point x="386" y="159"/>
      <point x="418" y="198" type="curve"/>
      <point x="444" y="212" type="line"/>
      <point x="495" y="258"/>
      <point x="536" y="308"/>
      <point x="536" y="388" type="curve" smooth="yes"/>
      <point x="536" y="512"/>
      <point x="448" y="579"/>
      <point x="318" y="579" type="curve" smooth="yes"/>
      <point x="240" y="579"/>
      <point x="171" y="555"/>
      <point x="124" y="511" type="curve" smooth="yes"/>
      <point x="72" y="462"/>
      <point x="43" y="398"/>
      <point x="43" y="252" type="curve" smooth="yes"/>
      <point x="43" y="0" type="line"/>
      <point x="544" y="0" type="line"/>
      <point x="594" y="102" type="line"/>
      <point x="529" y="164"/>
      <point x="463" y="233"/>
      <point x="425" y="279" type="curve"/>
      <point x="400" y="296" type="line"/>
      <point x="348" y="356"/>
      <point x="336" y="414"/>
      <point x="336" y="472" type="curve" smooth="yes"/>
      <point x="336" y="630" type="line" smooth="yes"/>
      <point x="336" y="705"/>
      <point x="325" y="745"/>
      <point x="287" y="775" type="curve" smooth="yes"/>
      <point x="267" y="791"/>
      <point x="231" y="803"/>
    </contour>
    <contour>
      <point x="198" y="68" type="line"/>
      <point x="198" y="246" type="line" smooth="yes"/>
      <point x="198" y="370"/>
      <point x="204" y="389"/>
      <point x="218" y="419" type="curve" smooth="yes"/>
      <point x="233" y="450"/>
      <point x="270" y="467"/>
      <point x="307" y="467" type="curve" smooth="yes"/>
      <point x="364" y="467"/>
      <point x="389" y="433"/>
      <point x="389" y="387" type="curve" smooth="yes"/>
      <point x="389" y="355"/>
      <point x="368" y="319"/>
      <point x="350" y="296" type="curve"/>
      <point x="317" y="264" type="line"/>
      <point x="274" y="202"/>
      <point x="213" y="130"/>
      <point x="155" y="73" type="curve"/>
    </contour>
  </outline>
</glyph>
<glyph name="lllachillumlym" format="2">
  <advance width="715"/>
  <unicode hex="0D56"/>
  <outline>
    <contour>
      <point x="276" y="190" type="curve" smooth="yes"/>
      <point x="276" y="240"/>
      <point x="293" y="299"/>
      <point x="346" y="410" type="curve" smooth="yes"/>
      <point x="405" y="534"/>
      <point x="433" y="600"/>
      <point x="433" y="659" type="curve" smooth="yes"/>
      <point x="433" y="729"/>
      <point x="407" y="803"/>
      <point x="280" y="803" type="curve" smooth="yes"/>
      <point x="245" y="803"/>
      <point x="204" y="798"/>
      <point x="169" y="788" type="curve"/>
      <point x="194" y="675" type="line"/>
      <point x="211" y="679"/>
      <point x="225" y="681"/>
      <point x="238" y="681" type="curve" smooth="yes"/>
      <point x="267" y="681"/>
      <point x="281" y="662"/>
      <point x="281" y="639" type="curve" smooth="yes"/>
      <point x="281" y="604"/>
      <point x="262" y="554"/>
      <point x="225" y="466" type="curve" smooth="yes"/>
      <point x="172" y="340"/>
      <point x="142" y="268"/>
      <point x="142" y="185" type="curve" smooth="yes"/>
      <point x="142" y="46"/>
      <point x="230" y="-12"/>
      <point x="346" y="-12" type="curve" smooth="yes"/>
      <point x="504" y="-12"/>
      <point x="544" y="74"/>
      <point x="544" y="146" type="curve" smooth="yes"/>
      <point x="544" y="245"/>
      <point x="472" y="343"/>
      <point x="472" y="418" type="curve" smooth="yes"/>
      <point x="472" y="452"/>
      <point x="485" y="468"/>
      <point x="501" y="468" type="curve" smooth="yes"/>
      <point x="519" y="468"/>
      <point x="533" y="453"/>
      <point x="533" y="407" type="curve" smooth="yes"/>
      <point x="533" y="324"/>
      <point x="496" y="267"/>
      <point x="404" y="267" type="curve" smooth="yes"/>
      <point x="362" y="267" type="line" smooth="yes"/>
      <point x="327" y="267"/>
      <point x="289" y="273"/>
      <point x="261" y="283" type="curve"/>
      <point x="209" y="320" type="line"/>
      <point x="197" y="347"/>
      <point x="181" y="361"/>
      <point x="181" y="411" type="curve" smooth="yes"/>
      <point x="181" y="450"/>
      <point x="194" y="494"/>
      <point x="211" y="531" type="curve"/>
      <point x="76" y="581" type="line"/>
      <point x="44" y="523"/>
      <point x="27" y="462"/>
      <point x="27" y="404" type="curve" smooth="yes"/>
      <point x="27" y="280"/>
      <point x="106" y="218"/>
      <point x="186" y="186" type="curve"/>
      <point x="234" y="175" type="line"/>
      <point x="271" y="167"/>
      <point x="306" y="162"/>
      <point x="355" y="162" type="curve" smooth="yes"/>
      <point x="417" y="162" type="line" smooth="yes"/>
      <point x="605" y="162"/>
      <point x="688" y="259"/>
      <point x="688" y="402" type="curve" smooth="yes"/>
      <point x="688" y="486"/>
      <point x="634" y="581"/>
      <point x="503" y="581" type="curve" smooth="yes"/>
      <point x="404" y="581"/>
      <point x="340" y="511"/>
      <point x="340" y="415" type="curve" smooth="yes"/>
      <point x="340" y="295"/>
      <point x="394" y="249"/>
      <point x="394" y="161" type="curve" smooth="yes"/>
      <point x="394" y="130"/>
      <point x="373" y="111"/>
      <point x="340" y="111" type="curve" smooth="yes"/>
      <point x="296" y="111"/>
      <point x="276" y="145"/>
    </contour>
  </outline>
</glyph>
<glyph name="aulengthmarkmlym" format="2">
  <advance width="681"/>
  <unicode hex="0D57"/>
  <outline>
    <contour>
      <point x="452" y="581" type="curve" smooth="yes"/>
      <point x="387" y="581"/>
      <point x="351" y="560"/>
      <point x="315" y="514" type="curve"/>
      <point x="345" y="515" type="line"/>
      <point x="309" y="560"/>
      <point x="271" y="581"/>
      <point x="207" y="581" type="curve" smooth="yes"/>
      <point x="77" y="581"/>
      <point x="25" y="487"/>
      <point x="25" y="390" type="curve" smooth="yes"/>
      <point x="25" y="343"/>
      <point x="33" y="296"/>
      <point x="44" y="257" type="curve"/>
      <point x="195" y="288" type="line"/>
      <point x="188" y="314"/>
      <point x="183" y="348"/>
      <point x="183" y="382" type="curve" smooth="yes"/>
      <point x="183" y="436"/>
      <point x="201" y="459"/>
      <point x="220" y="459" type="curve" smooth="yes"/>
      <point x="231" y="459"/>
      <point x="239" y="454"/>
      <point x="244" y="445" type="curve" smooth="yes"/>
      <point x="252" y="432"/>
      <point x="254" y="409"/>
      <point x="254" y="368" type="curve" smooth="yes"/>
      <point x="254" y="272" type="line"/>
      <point x="410" y="272" type="line"/>
      <point x="410" y="386" type="line" smooth="yes"/>
      <point x="410" y="426"/>
      <point x="412" y="439"/>
      <point x="420" y="450" type="curve" smooth="yes"/>
      <point x="425" y="456"/>
      <point x="431" y="459"/>
      <point x="439" y="459" type="curve" smooth="yes"/>
      <point x="466" y="459"/>
      <point x="489" y="421"/>
      <point x="489" y="313" type="curve" smooth="yes"/>
      <point x="489" y="176"/>
      <point x="457" y="112"/>
      <point x="363" y="112" type="curve" smooth="yes"/>
      <point x="321" y="112"/>
      <point x="279" y="123"/>
      <point x="242" y="140" type="curve"/>
      <point x="181" y="30" type="line"/>
      <point x="245" y="2"/>
      <point x="296" y="-12"/>
      <point x="381" y="-12" type="curve" smooth="yes"/>
      <point x="570" y="-12"/>
      <point x="649" y="103"/>
      <point x="649" y="313" type="curve" smooth="yes"/>
      <point x="649" y="481"/>
      <point x="575" y="581"/>
    </contour>
  </outline>
</glyph>
<glyph name="uni0D58" format="2">
  <advance width="1064"/>
  <unicode hex="0D58"/>
  <outline>
    <contour>
      <point x="529" y="-12" type="curve" smooth="yes"/>
      <point x="585" y="-12"/>
      <point x="636" y="9"/>
      <point x="679" y="66" type="curve"/>
      <point x="743" y="257" type="line"/>
      <point x="743" y="569" type="line"/>
      <point x="585" y="569" type="line"/>
      <point x="585" y="219" type="line" smooth="yes"/>
      <point x="585" y="166"/>
      <point x="580" y="140"/>
      <point x="564" y="124" type="curve" smooth="yes"/>
      <point x="556" y="116"/>
      <point x="545" y="111"/>
      <point x="529" y="111" type="curve" smooth="yes"/>
      <point x="515" y="111"/>
      <point x="502" y="116"/>
      <point x="494" y="124" type="curve" smooth="yes"/>
      <point x="479" y="139"/>
      <point x="472" y="161"/>
      <point x="472" y="221" type="curve" smooth="yes"/>
      <point x="472" y="569" type="line"/>
      <point x="314" y="569" type="line"/>
      <point x="314" y="216" type="line" smooth="yes"/>
      <point x="314" y="161"/>
      <point x="312" y="138"/>
      <point x="298" y="122" type="curve" smooth="yes"/>
      <point x="291" y="115"/>
      <point x="283" y="111"/>
      <point x="268" y="111" type="curve" smooth="yes"/>
      <point x="233" y="111"/>
      <point x="192" y="150"/>
      <point x="192" y="264" type="curve" smooth="yes"/>
      <point x="192" y="354"/>
      <point x="219" y="437"/>
      <point x="262" y="516" type="curve"/>
      <point x="129" y="581" type="line"/>
      <point x="68" y="479"/>
      <point x="32" y="382"/>
      <point x="32" y="262" type="curve" smooth="yes"/>
      <point x="32" y="108"/>
      <point x="106" y="-12"/>
      <point x="253" y="-12" type="curve" smooth="yes"/>
      <point x="313" y="-12"/>
      <point x="359" y="8"/>
      <point x="402" y="55" type="curve"/>
      <point x="374" y="73" type="line"/>
      <point x="412" y="18"/>
      <point x="465" y="-12"/>
    </contour>
    <contour>
      <point x="810" y="-12" type="curve" smooth="yes"/>
      <point x="962" y="-12"/>
      <point x="1025" y="105"/>
      <point x="1025" y="328" type="curve" smooth="yes"/>
      <point x="1025" y="646"/>
      <point x="889" y="849"/>
      <point x="574" y="849" type="curve" smooth="yes"/>
      <point x="471" y="849"/>
      <point x="395" y="838"/>
      <point x="326" y="821" type="curve"/>
      <point x="348" y="698" type="line"/>
      <point x="406" y="711"/>
      <point x="483" y="722"/>
      <point x="555" y="722" type="curve" smooth="yes"/>
      <point x="827" y="722"/>
      <point x="865" y="510"/>
      <point x="865" y="318" type="curve" smooth="yes"/>
      <point x="865" y="215"/>
      <point x="849" y="111"/>
      <point x="794" y="111" type="curve" smooth="yes"/>
      <point x="781" y="111"/>
      <point x="772" y="115"/>
      <point x="764" y="122" type="curve" smooth="yes"/>
      <point x="746" y="138"/>
      <point x="743" y="170"/>
      <point x="743" y="223" type="curve" smooth="yes"/>
      <point x="743" y="559" type="line"/>
      <point x="594" y="559" type="line"/>
      <point x="594" y="260" type="line"/>
      <point x="654" y="63" type="line"/>
      <point x="701" y="11"/>
      <point x="745" y="-12"/>
    </contour>
  </outline>
</glyph>
<glyph name="uni0D59" format="2">
  <advance width="1020"/>
  <unicode hex="0D59"/>
  <outline>
    <contour>
      <point x="335" y="581" type="curve" smooth="yes"/>
      <point x="123" y="581"/>
      <point x="32" y="444"/>
      <point x="32" y="298" type="curve" smooth="yes"/>
      <point x="32" y="160"/>
      <point x="78" y="63"/>
      <point x="142" y="-14" type="curve"/>
      <point x="270" y="49" type="line"/>
      <point x="224" y="125"/>
      <point x="194" y="200"/>
      <point x="194" y="289" type="curve" smooth="yes"/>
      <point x="194" y="397"/>
      <point x="243" y="457"/>
      <point x="338" y="457" type="curve" smooth="yes"/>
      <point x="430" y="457"/>
      <point x="471" y="390"/>
      <point x="486" y="300" type="curve"/>
      <point x="486" y="281" type="line"/>
      <point x="488" y="262"/>
      <point x="489" y="241"/>
      <point x="489" y="221" type="curve" smooth="yes"/>
      <point x="489" y="130"/>
      <point x="470" y="112"/>
      <point x="447" y="112" type="curve" smooth="yes"/>
      <point x="429" y="112"/>
      <point x="418" y="130"/>
      <point x="418" y="157" type="curve" smooth="yes"/>
      <point x="418" y="181"/>
      <point x="423" y="202"/>
      <point x="442" y="216" type="curve" smooth="yes"/>
      <point x="458" y="228"/>
      <point x="479" y="235"/>
      <point x="538" y="235" type="curve" smooth="yes"/>
      <point x="592" y="235" type="line"/>
      <point x="592" y="357" type="line"/>
      <point x="535" y="357" type="line" smooth="yes"/>
      <point x="454" y="357"/>
      <point x="398" y="346"/>
      <point x="354" y="320" type="curve" smooth="yes"/>
      <point x="297" y="286"/>
      <point x="266" y="231"/>
      <point x="266" y="161" type="curve" smooth="yes"/>
      <point x="266" y="75"/>
      <point x="311" y="-12"/>
      <point x="448" y="-12" type="curve" smooth="yes"/>
      <point x="575" y="-12"/>
      <point x="646" y="57"/>
      <point x="646" y="231" type="curve" smooth="yes"/>
      <point x="646" y="412"/>
      <point x="555" y="581"/>
    </contour>
    <contour>
      <point x="837" y="569" type="curve" smooth="yes"/>
      <point x="747" y="569"/>
      <point x="671" y="515"/>
      <point x="671" y="412" type="curve" smooth="yes"/>
      <point x="671" y="372"/>
      <point x="687" y="328"/>
      <point x="704" y="302" type="curve"/>
      <point x="840" y="310" type="line"/>
      <point x="823" y="333"/>
      <point x="805" y="363"/>
      <point x="805" y="404" type="curve" smooth="yes"/>
      <point x="805" y="431"/>
      <point x="814" y="450"/>
      <point x="835" y="450" type="curve" smooth="yes"/>
      <point x="850" y="450"/>
      <point x="862" y="435"/>
      <point x="862" y="410" type="curve" smooth="yes"/>
      <point x="862" y="390"/>
      <point x="858" y="378"/>
      <point x="849" y="370" type="curve" smooth="yes"/>
      <point x="838" y="360"/>
      <point x="819" y="357"/>
      <point x="782" y="357" type="curve" smooth="yes"/>
      <point x="570" y="357" type="line"/>
      <point x="570" y="235" type="line"/>
      <point x="762" y="235" type="line" smooth="yes"/>
      <point x="853" y="235"/>
      <point x="896" y="242"/>
      <point x="944" y="278" type="curve" smooth="yes"/>
      <point x="980" y="305"/>
      <point x="1002" y="352"/>
      <point x="1002" y="411" type="curve" smooth="yes"/>
      <point x="1002" y="490"/>
      <point x="960" y="569"/>
    </contour>
  </outline>
</glyph>
<glyph name="uni0D5A" format="2">
  <advance width="965"/>
  <unicode hex="0D5A"/>
  <outline>
    <contour>
      <point x="617" y="581" type="curve" smooth="yes"/>
      <point x="517" y="581"/>
      <point x="445" y="551"/>
      <point x="393" y="494" type="curve"/>
      <point x="426" y="503" type="line"/>
      <point x="373" y="560"/>
      <point x="325" y="581"/>
      <point x="262" y="581" type="curve" smooth="yes"/>
      <point x="105" y="581"/>
      <point x="32" y="461"/>
      <point x="32" y="307" type="curve" smooth="yes"/>
      <point x="32" y="187"/>
      <point x="69" y="88"/>
      <point x="130" y="-14" type="curve"/>
      <point x="263" y="51" type="line"/>
      <point x="220" y="130"/>
      <point x="192" y="215"/>
      <point x="192" y="305" type="curve" smooth="yes"/>
      <point x="192" y="419"/>
      <point x="235" y="458"/>
      <point x="273" y="458" type="curve" smooth="yes"/>
      <point x="285" y="458"/>
      <point x="296" y="455"/>
      <point x="303" y="448" type="curve" smooth="yes"/>
      <point x="319" y="433"/>
      <point x="323" y="410"/>
      <point x="323" y="348" type="curve" smooth="yes"/>
      <point x="323" y="230" type="line"/>
      <point x="479" y="230" type="line"/>
      <point x="479" y="286" type="line" smooth="yes"/>
      <point x="479" y="370"/>
      <point x="488" y="403"/>
      <point x="501" y="426" type="curve" smooth="yes"/>
      <point x="510" y="441"/>
      <point x="521" y="450"/>
      <point x="536" y="450" type="curve" smooth="yes"/>
      <point x="558" y="450"/>
      <point x="570" y="433"/>
      <point x="570" y="388" type="curve" smooth="yes"/>
      <point x="570" y="283"/>
      <point x="518" y="180"/>
      <point x="476" y="110" type="curve"/>
      <point x="476" y="0" type="line"/>
      <point x="922" y="0" type="line"/>
      <point x="922" y="254" type="line" smooth="yes"/>
      <point x="922" y="390"/>
      <point x="896" y="456"/>
      <point x="846" y="506" type="curve" smooth="yes"/>
      <point x="798" y="554"/>
      <point x="728" y="581"/>
    </contour>
    <contour>
      <point x="725" y="352" type="curve" smooth="yes"/>
      <point x="725" y="401"/>
      <point x="708" y="445"/>
      <point x="675" y="475" type="curve"/>
      <point x="676" y="470" type="line"/>
      <point x="735" y="448"/>
      <point x="767" y="401"/>
      <point x="767" y="280" type="curve" smooth="yes"/>
      <point x="767" y="121" type="line"/>
      <point x="714" y="121" type="line" smooth="yes"/>
      <point x="686" y="121"/>
      <point x="657" y="121"/>
      <point x="637" y="118" type="curve"/>
      <point x="642" y="112" type="line"/>
      <point x="695" y="197"/>
      <point x="725" y="267"/>
    </contour>
  </outline>
</glyph>
<glyph name="uni0D5B" format="2">
  <advance width="852"/>
  <unicode hex="0D5B"/>
  <outline>
    <contour>
      <point x="548" y="-12" type="curve"/>
      <point x="756" y="-12"/>
      <point x="820" y="141"/>
      <point x="820" y="271" type="curve" smooth="yes"/>
      <point x="820" y="410"/>
      <point x="774" y="507"/>
      <point x="710" y="584" type="curve"/>
      <point x="581" y="519" type="line"/>
      <point x="627" y="443"/>
      <point x="657" y="369"/>
      <point x="657" y="274" type="curve" smooth="yes"/>
      <point x="657" y="172"/>
      <point x="614" y="112"/>
      <point x="545" y="112" type="curve" smooth="yes"/>
      <point x="474" y="112"/>
      <point x="441" y="179"/>
      <point x="441" y="274" type="curve" smooth="yes"/>
      <point x="441" y="363"/>
      <point x="473" y="440"/>
      <point x="506" y="495" type="curve"/>
      <point x="431" y="569" type="line"/>
      <point x="48" y="569" type="line"/>
      <point x="48" y="0" type="line"/>
      <point x="206" y="0" type="line"/>
      <point x="206" y="447" type="line"/>
      <point x="334" y="447" type="line"/>
      <point x="383" y="534" type="line"/>
      <point x="317" y="452"/>
      <point x="280" y="373"/>
      <point x="280" y="266" type="curve" smooth="yes"/>
      <point x="280" y="130"/>
      <point x="342" y="-12"/>
    </contour>
  </outline>
</glyph>
